<?xml version="1.0" encoding="utf-8"?>
<!-- Generator: Adobe Illustrator 26.2.1, SVG Export Plug-In . SVG Version: 6.00 Build 0)  -->
<svg version="1.1" id="Vrstva_1" xmlns="http://www.w3.org/2000/svg" xmlns:xlink="http://www.w3.org/1999/xlink" x="0px" y="0px"
	 viewBox="0 0 206 70" style="enable-background:new 0 0 206 70;" xml:space="preserve">
<style type="text/css">
	.st0{fill:#FFFFFF;}
</style>
<g>
	<g>
		<path class="st0" d="M-1123-28.1v-44.1h9.9v35.3h17.5v8.8L-1123-28.1L-1123-28.1z"/>
		<path class="st0" d="M-1087-64.5v-10.1h9.5v10.1H-1087z M-1087-28.1v-32.3h9.5v32.3L-1087-28.1L-1087-28.1z"/>
		<path class="st0" d="M-1068.5-50.5c0.1-6.5,3.7-10.5,13.2-10.5c2.1,0,3.9,0.3,5.5,0.7h10.1v4.5l-3.2,1.2c0.5,1.3,0.8,2.7,0.9,4.2
			v3.9c0,6.2-4.3,10.3-13.2,10.3h-1c-0.7,0.4-1.4,0.9-1.4,1.8c0,0.7,0.5,1.3,1.1,1.3c4.3,0.5,5.6,0.6,8,0.8c5.4,0.5,7.8,2.3,7.8,7.9
			c0,7.8-4.8,10.1-14.8,10.1c-3.2,0-8.6-0.5-12.9-1.7l1.4-7c3.8,0.9,7.8,1.3,10.6,1.3c5,0,7-0.2,7-2.3c0-1.3-0.6-1.6-2.5-1.8
			c-3.7-0.3-4.2-0.4-8.2-0.8c-4.4-0.5-6.9-1.4-6.9-5.8c0-2.6,1.2-4.3,2.8-5.9c-2.8-1.7-4.1-4.4-4.1-8.3V-50.5z M-1051-47.1v-3
			c0-2.1-1.1-3.4-4.3-3.4c-3.2,0-4.3,1.3-4.3,3.4v3c0,2.2,1.2,3.2,4.3,3.2C-1052.2-43.9-1051-44.9-1051-47.1z"/>
		<path class="st0" d="M-1012.8-28.1v-21.3c0-1.5-0.7-2.3-2.3-2.3c-1.7,0-4.9,1.3-7,2.4v21.3h-9.6v-45.5l9.4-1.3v16.8
			c3.9-1.8,7.8-3,11.5-3c5.5,0,7.4,4.1,7.4,10.3v22.6H-1012.8z"/>
		<path class="st0" d="M-981.2-27.5c-6.2,0-9.8-2.3-9.8-8.3v-17h-4.4v-7.7h4.4v-7.8l9.5-1.3v9.1h7.4l-0.5,7.7h-6.8v15.6
			c0,1.3,0.8,1.8,2,1.8c1.1,0,2.6-0.1,4-0.6l1.1,7.2C-976.5-27.9-979-27.5-981.2-27.5z"/>
		<path class="st0" d="M-955-27.5c-3.5,0-8.5-0.9-11.7-1.9l1.5-7.1c2.7,0.8,6.2,1.5,9.8,1.5c2.9,0,3.3-0.8,3.3-2.7
			c0-2-0.1-2.3-5.2-3.6c-7.8-1.9-8.5-4-8.5-10.1c0-6.8,2.6-9.7,12.3-9.7c2.4,0,7,0.3,9.8,1.1l-0.9,7.4c-2.8-0.5-6.4-0.9-8.9-0.9
			c-2.8,0-3.4,0.7-3.4,2.2c0,2,0.3,2.2,4.1,3.1c9.2,2.1,9.9,4,9.9,10.5C-943-31.1-945.7-27.5-955-27.5z"/>
		<path class="st0" d="M-922.2-27.5c-6.2,0-9.8-2.3-9.8-8.3v-17h-4.4v-7.7h4.4v-7.8l9.5-1.3v9.1h7.4l-0.5,7.7h-6.8v15.6
			c0,1.3,0.8,1.8,2,1.8c1.1,0,2.6-0.1,4-0.6l1.1,7.2C-917.4-27.9-920-27.5-922.2-27.5z"/>
		<path class="st0" d="M-899.4-15.1l3.8-13.1h-3l-9.9-32.3h9.7l6.6,22.9l6.6-22.9h9.7l-10.1,32.3l-4.1,13.1L-899.4-15.1z"/>
		<path class="st0" d="M-868.5-28.1v-45.5l9.5-1.3v46.8H-868.5z"/>
		<path class="st0" d="M-840.2-40.9v0.9c0,3.7,1.5,4.7,5.8,4.7c3,0,7-0.5,9.8-1.4l1.4,7.2c-2.9,1.1-7.6,2-12.1,2
			c-10.5,0-14.5-5.2-14.5-13.1v-7.6c0-7,3.1-12.9,13.9-12.9s13.1,6.4,13.1,13.4v6.8L-840.2-40.9L-840.2-40.9z M-831.8-49.5
			c0-2.2-0.7-4.1-4-4.1c-3.3,0-4.4,1.9-4.4,4.1v1.4h8.4L-831.8-49.5L-831.8-49.5z"/>
	</g>
	<g>
		<path class="st0" d="M-783-54.4V-78l2-0.3v23.9H-783z M-771-71.1l-6.7,8.3l7,8.5h-2.5l-6.8-8.5l6.6-8.3H-771z"/>
		<path class="st0" d="M-766.7-74.3V-78h2v3.7H-766.7z M-766.7-54.4v-16.8h2v16.8C-764.7-54.4-766.7-54.4-766.7-54.4z"/>
		<path class="st0" d="M-750.3-54.7c-1,0.4-2.3,0.7-3.5,0.7c-2.7,0-3.8-1-3.8-3.6v-11.8h-3.2v-1.7h3.2v-4l2-0.3v4.2h5.1l-0.2,1.7
			h-4.9v11.6c0,1.5,0.2,2.1,1.9,2.1c0.9,0,2-0.2,3-0.5L-750.3-54.7z"/>
		<path class="st0" d="M-745.2-59.7c0,3,1.2,3.9,4.3,3.9c1,0,2.2-0.1,3.6-0.3l0.2,1.7c-1.2,0.3-2.7,0.5-3.8,0.5
			c-4.7,0-6.3-2.2-6.3-5.8v-5.9c0-3.6,1.6-5.8,6.3-5.8c1.1,0,2.6,0.2,3.8,0.5l-0.2,1.6c-1.4-0.2-2.6-0.3-3.6-0.3
			c-3.1,0-4.3,0.9-4.3,3.9V-59.7z"/>
		<path class="st0" d="M-722.1-54.4v-13.6c0-1.2-0.7-1.7-1.8-1.7c-1.4,0-4.3,0.8-6.4,1.9v13.3h-2V-78l2-0.3v8.6
			c1.8-0.9,4.7-1.8,6.7-1.8c2.6,0,3.5,1.5,3.5,3.8v13.3C-720.1-54.4-722.1-54.4-722.1-54.4z"/>
		<path class="st0" d="M-708.9-55.8c1.7,0,3.6-0.3,5.3-0.8l0.3,1.6c-1.5,0.5-3.8,0.9-5.8,0.9c-4.7,0-6.2-2.5-6.2-6.1v-5.3
			c0-3.4,1.5-6.1,6.3-6.1c4.7,0,6.1,2.7,6.1,6.1v3.2h-10.4v2.1C-713.3-57-712.2-55.8-708.9-55.8z M-713.3-63.9h8.4v-1.5
			c0-2.8-1-4.3-4.1-4.3s-4.3,1.5-4.3,4.3V-63.9z"/>
		<path class="st0" d="M-687.7-54.4v-13.6c0-1.2-0.7-1.7-1.8-1.7c-1.4,0-4.3,0.8-6.4,1.9v13.3h-2v-16.8h1.8l0.1,1.5
			c1.8-0.9,4.8-1.9,6.8-1.9c2.6,0,3.5,1.5,3.5,3.8v13.3L-687.7-54.4L-687.7-54.4z"/>
		<path class="st0" d="M-762.4-18.6v-13.6c0-1.2-0.7-1.7-1.8-1.7c-1.6,0-4.3,0.8-6.4,1.9v13.3h-2v-13.6c0-1.2-0.6-1.7-1.8-1.7
			c-1.4,0-4.3,0.8-6.4,1.9v13.3h-2v-16.8h1.8l0.1,1.5c1.8-0.9,4.8-1.9,6.8-1.9c1.8,0,2.8,0.7,3.2,1.9c1.9-0.9,5-1.9,7-1.9
			c2.6,0,3.5,1.5,3.5,3.8v13.3H-762.4z"/>
		<path class="st0" d="M-743.6-18.6h-1.7l-0.1-1.3c-1.6,1-3.5,1.7-5.7,1.7c-3,0-4.3-1.7-4.3-4.7c0-3.5,1.6-4.7,4.9-4.7h5v-3.3
			c0-2.3-1.2-3.1-4-3.1c-1.7,0-3.4,0.2-5,0.5l-0.3-1.7c1.3-0.4,3.4-0.7,5.2-0.7c4.3,0,6.1,1.7,6.1,4.9L-743.6-18.6L-743.6-18.6z
			 M-745.6-25.8h-4.9c-2.3,0-3,0.7-3,2.9c0,2,0.4,2.9,2.8,2.9c1.6,0,3.6-0.7,5.1-1.7V-25.8z"/>
		<path class="st0" d="M-727.8-18.6v-13.6c0-1.2-0.6-1.7-1.8-1.7c-1.4,0-4.3,0.8-6.4,1.9v13.3h-2v-16.8h1.8l0.1,1.5
			c1.8-0.9,4.8-1.9,6.8-1.9c2.6,0,3.5,1.5,3.5,3.8v13.3H-727.8z"/>
		<path class="st0" d="M-718.3-35.4v13.6c0,1.2,0.7,1.7,1.8,1.7c1.4,0,4.3-0.8,6.4-1.9v-13.3h2v16.8h-1.8l-0.1-1.5
			c-1.8,0.9-4.8,1.9-6.8,1.9c-2.6,0-3.5-1.5-3.5-3.8v-13.3H-718.3z"/>
		<path class="st0" d="M-693.3-40.9c-1.1-0.2-2.1-0.3-3-0.3c-1.9,0-2.5,0.7-2.5,2.5v3.3h5.2l-0.2,1.7h-5v15h-2v-15h-3.1v-1.7h3.1
			v-3.5c0-2.8,1.7-4,4.3-4c1,0,2.5,0.2,3.4,0.5L-693.3-40.9z"/>
		<path class="st0" d="M-678.7-18.6h-1.7l-0.1-1.3c-1.6,1-3.5,1.7-5.7,1.7c-3,0-4.3-1.7-4.3-4.7c0-3.5,1.6-4.7,4.9-4.7h5v-3.3
			c0-2.3-1.2-3.1-4-3.1c-1.7,0-3.4,0.2-5,0.5l-0.3-1.7c1.3-0.4,3.4-0.7,5.2-0.7c4.3,0,6.1,1.7,6.1,4.9L-678.7-18.6L-678.7-18.6z
			 M-680.7-25.8h-4.9c-2.3,0-3,0.7-3,2.9c0,2,0.4,2.9,2.8,2.9c1.6,0,3.6-0.7,5.1-1.7V-25.8z"/>
		<path class="st0" d="M-672.2-24c0,3,1.2,3.9,4.3,3.9c1,0,2.2-0.1,3.6-0.3l0.2,1.7c-1.2,0.3-2.7,0.5-3.8,0.5
			c-4.7,0-6.3-2.2-6.3-5.8v-5.9c0-3.6,1.6-5.8,6.3-5.8c1.1,0,2.7,0.2,3.8,0.5l-0.2,1.7c-1.4-0.2-2.6-0.3-3.6-0.3
			c-3.1,0-4.3,0.9-4.3,3.9V-24z"/>
		<path class="st0" d="M-650.8-18.9c-1,0.4-2.3,0.7-3.5,0.7c-2.7,0-3.8-1-3.8-3.6v-11.8h-3.2v-1.7h3.2v-4l2-0.3v4.2h5.1l-0.2,1.7
			h-4.9v11.6c0,1.5,0.2,2.1,1.9,2.1c0.9,0,2-0.2,3-0.5L-650.8-18.9z"/>
		<path class="st0" d="M-644.8-35.4v13.6c0,1.2,0.6,1.7,1.8,1.7c1.4,0,4.3-0.8,6.4-1.9v-13.3h2v16.8h-1.8l-0.1-1.5
			c-1.8,0.9-4.8,1.9-6.8,1.9c-2.6,0-3.5-1.5-3.5-3.8v-13.3H-644.8z"/>
		<path class="st0" d="M-621.4-33.8c-1.8,0.8-3.7,2-5.3,3.1v12h-2v-16.8h1.8l0.1,2.5c1.8-1.2,3.6-2.3,5.2-2.9L-621.4-33.8z"/>
		<path class="st0" d="M-612.4-20c1.7,0,3.7-0.3,5.3-0.8l0.3,1.6c-1.5,0.6-3.8,0.9-5.8,0.9c-4.7,0-6.2-2.4-6.2-6.1v-5.3
			c0-3.4,1.5-6.1,6.3-6.1c4.7,0,6.1,2.7,6.1,6.1v3.2h-10.4v2.1C-616.8-21.3-615.8-20-612.4-20z M-616.8-28.2h8.4v-1.5
			c0-2.8-1-4.3-4.1-4.3s-4.3,1.5-4.3,4.3V-28.2L-616.8-28.2z"/>
	</g>
	<rect x="-802.5" y="-88.5" class="st0" width="1.6" height="83.6"/>
</g>
<g>
	<path class="st0" d="M-881.1,190.2c-12.7,0-25.5,0-38.2,0c-2.6,0-5-0.5-7.1-2.1c-3.4-2.6-4.5-6.2-3.7-10.3
		c1.8-8.4,3.7-16.7,5.6-25.1c3.2-14.1,6.4-28.3,9.6-42.4c0.3-1.4,0-1.3,1.6-1.3c25.5,0,51,0,76.5,0c2.8,0,5.5,0.6,7.7,2.5
		c2.5,2.2,3.7,5,3.3,8.2c-0.3,2.9-1.1,5.8-1.7,8.7c-3.4,15.3-6.9,30.7-10.3,46c-1.1,5-2.3,10-3.4,15c-0.2,0.7-0.6,0.8-1.1,0.8
		C-855.2,190.2-868.2,190.2-881.1,190.2z M-889.5,141.8c0.3,0,0.5,0.1,0.6,0.1c3.6,0,7.3,0,10.9,0c0.6,0,0.8-0.3,0.9-0.8
		c0.4-2,0.9-4,1.1-6.1c0.5-5.4-1.5-9.7-7.6-11.1c-3.4-0.8-6.7-0.7-10.1-0.2c-3.4,0.5-6.5,1.9-9.1,4.3c-2.5,2.4-4.2,5.4-5.5,8.6
		c-1.9,4.5-3.1,9.3-4,14.1c-0.9,4.6-1.9,9.1-1.4,13.8c0.4,4.5,2.4,7.5,7,8.8c3,0.8,6.1,0.9,9.1,0.6c7.3-0.7,12.5-4.3,15.5-11
		c1.2-2.7,1.8-5.6,2.4-8.5c0.2-1,0.2-1-0.8-1c-3.1,0-6.1,0-9.2,0c-2.1,0-2.1,0-2.6,2.1c0,0.2-0.1,0.4-0.1,0.5
		c-0.7,2.2-1.3,4.4-2.1,6.5c-0.3,0.8-0.9,1.7-1.7,2.2c-2,1.6-4.5,0.6-4.8-1.9c-0.1-1.1-0.1-2.2,0.1-3.3c1.2-7.3,2.8-14.5,4.9-21.6
		c0.4-1.5,1.1-2.9,1.9-4.2c0.9-1.4,2.3-1.9,3.9-1.6c1.1,0.2,1.7,0.8,1.8,1.9c0.1,0.9,0,1.8-0.1,2.7
		C-888.7,138.4-889.1,140.1-889.5,141.8z M-880.9,173c0.3,0,0.5,0.1,0.7,0.1c9.6,0,19.1,0,28.7,0c0.6,0,0.8-0.2,0.9-0.8
		c0.3-1.4,0.6-2.8,0.9-4.2c0.4-1.8,0.8-3.5,1.2-5.4c-5.2,0-10.2,0-15.5,0c0.3-0.4,0.4-0.6,0.6-0.9c7-9.2,13.9-18.4,20.9-27.6
		c0.3-0.4,0.5-0.9,0.7-1.4c0.5-2,1-4.1,1.4-6.2c0.2-0.7,0.3-1.4,0.4-2.2c-0.5,0-0.8,0-1.1,0c-8.9,0-17.9,0-26.8,0
		c-1.3,0-1.1-0.1-1.4,1.2c-0.2,1-0.5,2.1-0.7,3.1c-0.4,2-0.9,3.9-1.4,6.1c4.7,0,9.4,0,14.2,0c-0.3,0.4-0.4,0.6-0.5,0.8
		c-6.7,9-13.5,18-20.2,27c-0.6,0.9-1.1,1.7-1.3,2.8c-0.2,1.1-0.5,2.2-0.7,3.4C-880.3,170.1-880.6,171.5-880.9,173z"/>
	<path class="st0" d="M-1008.5,143.5c0.2-0.2,0.3-0.4,0.5-0.6c2.4-3.1,4.7-6.3,7.1-9.4c0.3-0.4,0.6-0.5,1.1-0.5c4.2,0,8.4,0,12.6,0
		c0.3,0,0.6,0,0.9,0c0.6-3,1.3-6,1.9-9c3.4,0,6.8,0,10.2,0c-0.6,3-1.2,5.9-1.9,8.9c1.3,0,2.6,0,4,0c-0.5,2.3-0.9,4.6-1.4,6.9
		c-1.3,0-2.7,0-4.1,0c-0.5,2.4-1,4.8-1.5,7.2c-0.5,2.4-1,4.8-1.5,7.3c-0.1,0.3-0.1,0.7-0.1,1c0,0.9,0.3,1.4,1.2,1.5
		c0.8,0.1,1.5,0.1,2.4,0.2c-0.3,1.5-0.6,3-0.9,4.5c-0.1,0.5-0.2,0.9-0.3,1.4c-0.1,0.6-0.3,1-1,1c-2.7,0-5.4,0.2-8.1,0
		c-3.9-0.2-4.7-2.4-4.1-5.7c1-5.6,2.2-11.1,3.3-16.6c0.1-0.5,0.2-1.1,0.3-1.7c-1.1,0-2.2,0-3.4,0c0.4-2.2,0.9-4.3,1.3-6.3
		c0,0-0.1-0.1-0.1-0.1c-0.7,0.8-1.5,1.7-2.2,2.5c-2.7,3-5.3,6.1-8,9.1c-0.4,0.5-0.5,0.9-0.3,1.5c1.8,5.5,3.6,11,5.3,16.5
		c0.1,0.2,0.1,0.5,0.2,0.8c-0.3,0-0.6,0-0.8,0c-3.1,0-6.2,0-9.3,0c-0.6,0-0.8-0.1-1-0.7c-0.9-3.1-1.8-6.3-2.7-9.4
		c0-0.1-0.1-0.2-0.1-0.4c-1.4,1.4-2.5,2.7-2.8,4.7c-0.2,1.9-0.7,3.9-1.1,5.8c-3.4,0-6.8,0-10.2,0c2.8-13.5,5.6-27,8.4-40.6
		c3.4,0,6.8,0,10.2,0c-1.4,6.8-2.8,13.5-4.2,20.2C-1008.6,143.5-1008.6,143.5-1008.5,143.5z"/>
	<path class="st0" d="M-755.8,132.3c-0.2,1.2-0.5,2.4-0.7,3.6c0,0,0.1,0,0.1,0.1c0.2-0.2,0.3-0.4,0.5-0.6c2.8-3.7,7.3-4.5,11.1-3.4
		c1.7,0.5,2.7,1.7,3.2,3.4c0.1,0.3,0.1,0.5,0.2,0.8c0.7-0.7,1.3-1.6,2.1-2.2c2.9-2.4,6.2-2.9,9.8-2c2.7,0.7,3.9,3.1,3.4,6.1
		c-0.7,4.1-1.5,8.1-2.4,12.2c-0.8,4-1.7,8.1-2.5,12.1c-0.1,0.3-0.1,0.5-0.2,0.8c-3.4,0-6.7,0-10.2,0c0.4-1.9,0.7-3.7,1.1-5.5
		c1-5,2.1-10,3.1-14.9c0.1-0.7,0.2-1.6,0-2.3c-0.1-0.4-0.6-0.9-1-1.1c-1.5-0.5-2.9,0.1-3.5,1.6c-0.5,1.3-0.8,2.6-1,3.9
		c-1.3,6.1-2.5,12.2-3.8,18.3c-3.4,0-6.8,0-10.2,0c0.3-1.7,0.7-3.4,1-5.1c1.1-5.2,2.2-10.5,3.3-15.7c0-0.2,0-0.5,0.1-0.7
		c0-1.5-0.2-2.1-1.1-2.3c-1.2-0.4-2.7,0-3.2,1c-0.5,1.1-0.9,2.4-1.2,3.6c-1.3,6.2-2.6,12.5-3.9,18.7c0,0.2-0.3,0.5-0.5,0.5
		c-3.2,0-6.5,0-9.8,0c2.1-10.3,4.3-20.6,6.4-30.8C-762.4,132.3-759.1,132.3-755.8,132.3z"/>
	<path class="st0" d="M-944.2,164.6c-2,0-4.1-0.2-6.1-1c-2.7-1.1-4.2-3.3-4.3-6.1c-0.3-6,1-11.9,3.5-17.3c2.4-5,6.6-7.5,12.1-7.9
		c2.2-0.2,4.4-0.1,6.6,0.5c3.8,1,5.8,3.5,5.8,7.5c0,5.3-1,10.5-3.1,15.3C-932.4,161.9-937.4,164.7-944.2,164.6z M-944.8,155.1
		c0.1,0,0.1,0,0.2,0c0,0.4,0,0.8,0,1.2c0.1,0.7,0.4,1.3,1.2,1.6c1.2,0.3,2.4-0.1,3-1.1c0.4-0.7,0.9-1.5,1.1-2.3
		c0.8-3.4,1.6-6.7,2.3-10.1c0.2-1.2,0.3-2.4,0.3-3.6c0-1.7-1-2.3-2.6-2c-1.2,0.3-1.8,1.1-2.1,2.1c-0.7,1.9-1.3,3.9-1.7,5.9
		C-943.8,149.6-944.3,152.4-944.8,155.1z"/>
	<path class="st0" d="M-788.3,164c-2.1,0-4.2-0.2-6.1-1c-2.8-1.1-4.3-3.2-4.4-6.1c-0.3-6,0.9-11.7,3.4-17.2
		c2.3-4.9,6.3-7.6,11.7-8.1c2.2-0.2,4.4-0.2,6.6,0.3c4,0.9,6.2,3.4,6.2,7.5c0,5.9-1.1,11.6-3.8,16.9c-2.3,4.5-6.1,6.9-11.2,7.4
		C-786.7,163.9-787.5,163.9-788.3,164z M-789,154.5c0.1,0,0.1,0,0.2,0c0,0.4,0,0.9,0,1.3c0.1,0.9,0.7,1.5,1.5,1.6
		c1.2,0.1,2.2-0.2,2.8-1.3c0.3-0.6,0.6-1.2,0.8-1.8c1.2-3.8,2-7.7,2.6-11.7c0.1-1,0.1-2.1,0-3.2c0-0.7-0.6-1.1-1.3-1.2
		c-1-0.2-2,0.1-2.6,1c-0.4,0.5-0.7,1-0.9,1.6c-0.6,1.8-1.1,3.6-1.5,5.4C-788,148.9-788.5,151.7-789,154.5z"/>
	<path class="st0" d="M-1066.1,153.1c-0.3,5-4.4,9.8-9.5,11c-3.6,0.8-7.3,0.9-10.8-0.3c-2.8-0.9-4.4-3-4.6-6
		c-0.4-6.4,0.9-12.5,3.7-18.2c2.3-4.7,6.3-7,11.5-7.3c2.3-0.2,4.6-0.1,6.8,0.5c3,0.9,4.8,3.2,5.1,6.3c0.4,3.6-0.5,7.1-1.2,10.6
		c-0.1,0.5-0.5,0.4-0.9,0.4c-4.5,0-9,0-13.5,0c-0.3,0-0.6,0-1.1,0c-0.3,1.9-0.7,3.8-0.9,5.7c-0.1,1,0.1,2,1.2,2.4
		c1.1,0.4,2.3,0.2,3-0.7c0.7-0.8,1.1-1.9,1.5-2.9c0.2-0.5,0.3-1,0.4-1.6C-1072.2,153.1-1069.2,153.1-1066.1,153.1z M-1079.2,144.6
		c1.8,0,3.6,0,5.3,0c0.1,0,0.4-0.2,0.4-0.4c0.2-1.3,0.5-2.5,0.5-3.8c0-1.1-0.6-1.8-1.6-2c-1.1-0.2-2.2,0.1-2.9,1
		C-1078.6,140.9-1078.8,142.7-1079.2,144.6z"/>
	<path class="st0" d="M-1038.2,150.1c-0.3,1.9-0.7,3.8-0.9,5.7c-0.1,1,0.1,1.9,1.2,2.4c1,0.4,2.4,0.1,3.1-0.8c0.6-0.8,1-1.8,1.5-2.8
		c0.2-0.5,0.3-1,0.4-1.6c3,0,6.1,0,9.1,0c-0.4,5.4-4.9,10.2-10.3,11.2c-3.2,0.5-6.4,0.6-9.5-0.3c-3.1-0.9-4.8-3.1-5.1-6.3
		c-0.4-3.8,0.4-7.5,1.3-11.2c0.7-3.1,1.7-6,3.6-8.7c2.2-3.1,5.2-4.9,9-5.4c2.7-0.4,5.5-0.4,8.2,0.3c3.1,0.9,4.8,3.1,5.2,6.3
		c0.4,3.6-0.5,7.1-1.2,10.6c-0.1,0.6-0.5,0.4-0.9,0.4c-4.5,0-9,0-13.6,0C-1037.5,150.1-1037.8,150.1-1038.2,150.1z M-1036.9,144.6
		c1.8,0,3.6,0,5.3,0c0.2,0,0.5-0.2,0.5-0.4c0.2-1.2,0.5-2.5,0.5-3.7c0.1-1.2-0.6-1.9-1.8-2.1c-1.2-0.1-2.3,0.2-3,1.3
		C-1036.4,141.2-1036.6,142.8-1036.9,144.6z"/>
	<path class="st0" d="M-822.1,163.1c2.7-4.6,0.2-9.3-4.3-10.4c0.3-1.5,0.5-3.1,0.8-4.6c0.6-3.1,1.5-6,2.9-8.8
		c2.5-4.7,6.3-7.4,11.6-7.6c2-0.1,4-0.1,6,0.2c4.1,0.6,6.2,3.2,6.2,7.3c0,0.9-0.1,1.7-0.1,2.6c-0.1,0.8-0.2,1.7-0.3,2.6
		c-3.1,0-6.1,0-9.1,0c0.1-1.3,0.2-2.6,0.3-3.8c0-0.9-0.1-1.8-1.1-2.2c-1.1-0.4-2.2-0.3-2.9,0.6c-0.6,0.7-1.2,1.6-1.4,2.5
		c-0.8,3-1.6,6-2.2,9.1c-0.3,1.4-0.4,2.9-0.5,4.4c0,1,0.1,2,1.2,2.5c1,0.4,2.4,0,3.2-0.9c1-1.2,1.3-2.6,1.6-4
		c0.2-0.6,0.3-1.3,0.4-1.9c3,0,6.1,0,9.2,0c-1.1,5.2-2.7,10.1-8.1,12.4c-2.9,1.2-6,1.4-9.1,1.1
		C-819.3,163.7-820.6,163.4-822.1,163.1z"/>
	<path class="st0" d="M-1046.2,123.1c-2.8,13.6-5.6,27.1-8.4,40.6c-3.4,0-6.8,0-10.2,0c0.3-1.5,0.6-2.9,0.9-4.4
		c1.8-8.9,3.7-17.8,5.5-26.7c0.6-2.9,1.2-5.9,1.8-8.8c0.1-0.6,0.3-0.7,0.9-0.7C-1052.6,123.2-1049.4,123.1-1046.2,123.1z"/>
	<path class="st0" d="M-960.3,133c-0.2,0.8-0.3,1.6-0.5,2.3c-0.2,0.8-0.3,1.6-0.4,2.4c1.1-1.7,2.3-3.2,4-4.3
		c1.7-1.1,3.6-1.4,5.8-1.2c-0.7,3.2-1.3,6.3-1.9,9.4c-1.3,0-2.5-0.1-3.7,0c-2.9,0.2-4.7,1.6-5.5,4.4c-0.7,2.7-1.2,5.5-1.8,8.3
		c-0.7,3.1-1.3,6.3-2,9.4c-3.4,0-6.8,0-10.2,0c0.4-2.2,0.9-4.3,1.3-6.4c1.6-7.9,3.3-15.8,4.9-23.7c0.1-0.4,0.1-0.7,0.6-0.7
		c3,0,6,0,9.1,0C-960.5,133-960.4,133-960.3,133z"/>
	<path class="st0" d="M-827.4,155.1c2.3,0,4.2,1.9,4.2,4.1c0,2.3-1.9,4.2-4.2,4.2c-2.3,0-4.2-1.8-4.2-4.2
		C-831.7,156.9-829.8,155.1-827.4,155.1z"/>
</g>
<g>
	<path class="st0" d="M-828.3-345.2c-6.4,0-12.5,0-18.7,0c0-25.8,0-51.6,0-77.5c6.1,0,12.3,0,18.6,0c0,5.6,0,11.3,0,17.3
		c0.6-0.5,1-0.7,1.3-1c5.7-4.6,13.8-4.8,19.1-0.5c2.3,1.9,3.7,4.3,3.9,7.2c0.2,3.6,0.5,7.2,0.5,10.8c0.1,14,0,28.1,0,42.1
		c0,0.5,0,0.9,0,1.4c-6.3,0-12.5,0-18.8,0c0-0.6,0-1.2,0-1.7c0-15.6,0-31.2-0.1-46.7c0-1-0.1-1.9-0.3-2.9c-0.2-1.3-1-2-2.4-2.1
		c-1.3-0.1-2.4,0.6-2.6,1.9c-0.3,2.2-0.6,4.5-0.6,6.8c0,14.4,0,28.7,0,43.1C-828.3-346.4-828.3-345.9-828.3-345.2z"/>
	<path class="st0" d="M-797.4-408.8c6.4,0,12.5,0,18.8,0c0,0.6,0,1.2,0,1.8c0,15.6,0.1,31.2,0.1,46.9c0,0.9,0.1,1.8,0.2,2.6
		c0.2,1.6,1,2.3,2.6,2.2c1.6,0,2.4-0.7,2.5-2.3c0.1-1.9,0.2-3.8,0.3-5.7c0-14.6,0-29.2,0-43.8c0-0.5,0-1.1,0-1.7
		c6.3,0,12.5,0,18.7,0c0,21.1,0,42.3,0,63.5c-6.3,0-12.6,0-19,0c0.1-1.5,0.2-3.1,0.3-4.8c-0.3,0.2-0.4,0.3-0.5,0.3
		c-3.8,5.7-10.2,6.7-16,5c-4.6-1.3-7.5-5.4-7.8-10.9c-0.2-3.3-0.3-6.6-0.3-9.9c0-14,0-27.9,0-41.9
		C-797.4-407.8-797.4-408.2-797.4-408.8z"/>
	<path class="st0" d="M-651.9-375.9c-8.5,0-16.5,0-24.4,0c-0.1,0.2-0.2,0.3-0.2,0.3c0.1,5.9,0.1,11.8,0.2,17.6
		c0.1,1.9,1,2.6,2.6,2.7c1.7,0.1,2.9-0.8,3.2-2.5c0.3-2.1,0.4-4.3,0.5-6.5c0.1-2.4,0-4.9,0-7.4c6,0,11.8,0,17.8,0
		c-0.1,4.9,0.6,9.9-1,14.5c-2.2,6.6-6.7,11.1-13.9,12.5c-5.6,1-11.1,0.9-16.5-1.1c-6.8-2.5-10.5-7.6-11.4-14.6
		c-0.3-2.2-0.4-4.4-0.4-6.7c0-7.9-0.1-15.8,0.2-23.8c0.1-2.6,0.6-5.4,1.5-7.9c1.9-5.7,6.3-8.9,12-10.4c5.3-1.4,10.7-1.3,16,0.3
		c7.3,2.3,11.9,7.3,12.8,14.9C-652.3-388-652.3-382-651.9-375.9z M-671.1-386.3c0-2.5,0-4.9,0-7.3c0-1.2-0.2-2.4-0.4-3.6
		c-0.3-1.2-1.2-1.6-2.3-1.5c-1.1,0.1-2.3,0.4-2.3,1.7c-0.2,3.5-0.3,7.1-0.5,10.7C-674.7-386.3-672.9-386.3-671.1-386.3z"/>
	<path class="st0" d="M-901.1-388.6c-5.4,0-10.8,0-16.4,0c0-0.6,0-1.3,0-1.9c-0.1-1.9-0.1-3.9-0.2-5.8c-0.1-1.2-0.5-2.1-2-2.3
		c-1.7-0.2-2.8,0.2-3.4,1.5c-1.3,2.6-0.5,8,1.9,9.7c2.9,2.1,6.2,3.7,9.3,5.6c1.8,1.1,3.7,2.1,5.5,3.3c4.2,2.6,6.4,6.3,6.8,11.2
		c0.3,4,0.2,8-0.7,12c-1,4.5-3.7,7.7-7.9,9.4c-8.2,3.2-16.4,2.9-24.3-0.9c-3.9-1.9-6.3-5-6.9-9.3c-0.5-3.6-0.7-7.3-1-11
		c5.8,0,11.3,0,16.9,0c0,0.4,0,0.9,0,1.4c0.1,2.6,0.1,5.2,0.3,7.8c0.2,2,1.1,2.9,2.7,2.9c2.1,0.1,3.3-0.7,3.5-2.8
		c0.2-2.3,0.1-4.6-0.2-6.9c-0.1-0.8-1-1.8-1.8-2.3c-3.1-2-6.3-3.8-9.4-5.7c-1.9-1.1-3.7-2.3-5.5-3.5c-3.8-2.6-6.1-6.2-6.6-10.8
		c-0.5-4.1-0.3-8.1,0.6-12.2c0.9-3.9,3.3-6.7,6.9-8.2c8-3.3,16-3.3,24,0.1c1.9,0.8,3.6,2.3,5.1,3.8c1.7,1.7,2.7,3.9,2.8,6.3
		C-901.1-394.5-901.1-391.6-901.1-388.6z"/>
	<path class="st0" d="M-852.6-384.9c-6,0-11.8,0-17.9,0c0-0.8,0-1.5,0-2.3c-0.1-3-0.1-6-0.3-9c-0.1-1.3-0.7-2.3-2.2-2.5
		c-1.5-0.2-2.5,0.5-2.8,2.1c-0.2,1-0.3,2-0.3,3c0,10.7,0,21.4,0,32.1c0,1.3,0.2,2.7,0.6,4c0.4,1.6,1.6,2.4,2.9,2.3
		c1.4-0.1,2.4-1,2.6-2.7c0.3-3.3,0.4-6.6,0.5-9.8c0-1.1,0-2.2,0-3.4c5.6,0,11.1,0,16.8,0c-0.1,3.2-0.1,6.3-0.5,9.4
		c-0.3,2.3-0.7,4.6-1.6,6.7c-3.1,7.1-8.8,10.6-16.4,10.9c-3.2,0.2-6.5,0-9.7-0.6c-7.6-1.5-12.2-6.7-13.3-14.7
		c-0.3-2.2-0.6-4.5-0.6-6.8c-0.1-8.4,0-16.9,0.1-25.3c0-2,0.4-4.1,0.9-6c0.9-4.3,3.8-7.2,7.5-9.2c8.3-4.5,16.7-4.4,24.9,0.1
		c5.3,2.9,7.7,7.8,8.2,13.6C-853-390.5-852.8-387.8-852.6-384.9z"/>
	<path class="st0" d="M-747.1-422.8c6.4,0,12.7,0,19.1,0c0,25.8,0,51.6,0,77.5c-6.3,0-12.7,0-19.1,0
		C-747.1-371-747.1-396.8-747.1-422.8z"/>
	<path class="st0" d="M-701.7-345.2c-6.4,0-12.7,0-19.1,0c0-25.8,0-51.6,0-77.5c6.4,0,12.7,0,19.1,0
		C-701.7-396.9-701.7-371.1-701.7-345.2z"/>
	<path class="st0" d="M-646-345.2c0-21.2,0-42.3,0-63.5c6.2,0,12.4,0,18.7,0c-0.2,2.6-0.4,5.1-0.6,7.6c2.6-4.6,5.9-8.3,11.7-8.8
		c0,7.4,0,14.8,0,22.2c-1.5,0.2-3.1,0.3-4.6,0.5c-4,0.7-6.1,3-6.2,7c-0.2,11.1-0.2,22.1-0.3,33.2c0,0.5,0,1.1,0,1.7
		C-633.5-345.2-639.7-345.2-646-345.2z"/>
	<path class="st0" d="M-615.7-345c0-9,0-17.8,0-26.8c8.9,0,17.8,0,26.8,0c0,0.5,0.1,1,0.1,1.4c0,7.9,0,15.8,0,23.8
		c0,1.3-0.4,1.6-1.6,1.6c-7.9-0.1-15.8,0-23.7,0C-614.6-345-615-345-615.7-345z"/>
	<path class="st0" d="M-791.7-425.5c4,0,7.9,0,11.9,0c0,4.1,0,8.1,0,12.3c-4,0-7.9,0-11.9,0C-791.7-417.4-791.7-421.4-791.7-425.5z"
		/>
	<path class="st0" d="M-759.4-413.1c-0.6,0-1.1,0-1.5,0c-3.4,0-6.9,0-10.4,0c0-4.1,0-8.2,0-12.3c3.9,0,7.9,0,11.9,0
		C-759.4-421.4-759.4-417.4-759.4-413.1z"/>
	<path class="st0" d="M-588.9-415c0,5.9-4.8,10.6-10.7,10.6c-5.8,0-10.5-4.8-10.6-10.5c0-5.9,4.7-10.6,10.6-10.6
		C-593.6-425.6-588.9-420.9-588.9-415z M-599.7-405.7c5.1,0.1,9.5-4,9.6-9.2c0.1-5.1-4-9.4-9.2-9.6c-5.1-0.2-9.4,4-9.6,9.2
		C-609-410-604.9-405.8-599.7-405.7z"/>
	<path class="st0" d="M-603-420.7c1.6,0,3.2-0.1,4.8,0c2.2,0.2,3.2,1.1,3.5,2.8c0.2,1.8-0.4,2.8-2.6,3.7c0.9,1.5,1.7,3,2.7,4.7
		c-1.2,0.4-2.1,0.4-2.7-0.9c-0.4-0.9-1-1.7-1.4-2.6c-0.5-1.1-1.2-1.4-2.5-1c0,1.5,0,3,0,4.6c-0.6,0-1.1,0.1-1.7,0.1
		C-603-413.1-603-416.8-603-420.7z M-601.4-415.8c1.2,0,2.4,0.1,3.4-0.1c0.5-0.1,1.1-0.8,1.2-1.4c0.3-0.8-0.1-1.5-1-1.7
		c-1.2-0.2-2.4-0.2-3.7-0.3C-601.4-417.9-601.4-417-601.4-415.8z"/>
</g>
<g>
	<path class="st0" d="M-1291.2-820.8c1.8-0.5,3.6-1,5.6-1.6c0.5,1.8,0.9,3.5,1.4,5.3c0.2-0.2,0.5-0.4,0.7-0.6
		c3-2.7,6.4-4.6,10.6-4.5c5.2,0.2,9,3.7,9.1,8.9c0.1,8.9,0,17.8,0,26.8c0,0.1,0,0.2-0.1,0.4c-1.8,0-3.6,0-5.6,0c0-0.5,0-1,0-1.4
		c0-7.7,0-15.4,0-23c0-0.8-0.1-1.6-0.1-2.4c-0.1-3-2.6-4.6-5.5-4.3c-3.5,0.4-6.5,2.2-9,4.6c-0.3,0.3-0.4,0.9-0.4,1.4
		c0,7.9,0,15.8,0,23.6c0,0.5,0,0.9,0,1.5c-1.8,0-3.5,0-5.4,0c0-0.5,0-0.9,0-1.4c0-8.8,0-17.7,0-26.5c0-2.2-0.1-4.5-1.3-6.5
		C-1291.2-820.7-1291.2-820.7-1291.2-820.8z"/>
	<path class="st0" d="M-1113.6-776.1c-2.1-0.3-1.9-2-2.2-3.4c1.6,0.1,3.2,0.4,4.7,0.3c4.1-0.2,7.5-1.8,9.7-5.4
		c1.1-1.9,1.4-3.9,0.9-6c-0.6-2.9-3.1-5-6.6-5c-2.6,0-5.3,0.4-8,0.6c0.5-5.6,1.1-11.6,1.7-17.6c5.3,0,10.6,0,15.9,0
		c-0.2,1.2-0.4,2.3-0.6,3.5c-3.8,0-7.6,0-11.4,0c-0.3,3.5-0.6,6.8-0.9,10.1c1.4,0,2.7,0,4.1,0c2.1,0,4.1,0.5,6,1.5
		c5,2.8,6.4,9.7,3,14.9c-2.4,3.7-6,5.5-10.2,6.3c-0.3,0.1-0.5,0.2-0.7,0.3C-1110.1-776.1-1111.9-776.1-1113.6-776.1z"/>
	<path class="st0" d="M-1250.4-802.9c0,4.5,0.3,8.6,4.4,11.2c3.7,2.4,9.4,2.2,13.2-0.5c0.5-0.3,1-0.7,1.6-1.2
		c0.7,1.2,1.4,2.3,2.2,3.6c-1.1,0.7-2.1,1.5-3.2,2.1c-4.1,2.2-8.5,2.8-13,1.7c-5.2-1.2-8.5-4.6-10.2-9.5c-1.8-5.3-2.1-10.7-0.5-16.1
		c1.7-5.7,5.4-9.8,11.6-10.9c8-1.4,14.7,3.6,15.7,11.7c0.3,2.5,0.4,5,0.6,7.7C-1235.7-802.9-1242.9-802.9-1250.4-802.9z
		 M-1234.1-807.2c-0.3-1.9-0.4-3.7-0.8-5.4c-0.7-3.1-3-5-6.2-5.3c-3.6-0.4-6.2,0.9-7.7,3.8c-1.1,2.2-1.5,4.5-1.6,7
		C-1245-807.2-1239.7-807.2-1234.1-807.2z"/>
	<path class="st0" d="M-1208.8-801.1c-0.9,1.4-1.7,2.7-2.5,3.9c-2.2,3.4-4.3,6.8-6.5,10.2c-0.4,0.6-0.8,0.9-1.5,0.9
		c-1.8-0.1-3.6,0-5.6,0c0.3-0.5,0.5-0.9,0.7-1.2c3.9-5.8,7.9-11.7,11.9-17.5c0.5-0.7,0.5-1.1,0-1.8c-3.2-4.5-6.3-9-9.4-13.5
		c-0.2-0.3-0.4-0.6-0.8-1.2c2.3,0,4.4,0,6.6,0c0.3,0,0.6,0.5,0.8,0.8c1.9,3.1,3.8,6.3,5.7,9.4c0.2,0.4,0.5,0.7,0.8,1.2
		c0.3-0.5,0.6-1,0.9-1.4c1.8-3.1,3.6-6.1,5.3-9.2c0.4-0.6,0.7-0.9,1.5-0.9c1.8,0.1,3.6,0,5.5,0c-0.3,0.5-0.5,0.8-0.7,1.1
		c-3,4.5-6.1,9.1-9.1,13.6c-0.5,0.7-0.4,1.1,0,1.8c4.1,5.8,8.1,11.7,12.2,17.6c0.2,0.3,0.4,0.6,0.8,1.2c-2.2,0-4.3,0-6.4,0
		c-0.3,0-0.8-0.5-1-0.8c-2.7-4.2-5.4-8.4-8.1-12.6C-1208.1-800-1208.4-800.5-1208.8-801.1z"/>
	<path class="st0" d="M-1172.8-789.9c0.2,1,0.5,1.9,0.6,2.9c0,0.3-0.3,0.7-0.5,0.9c-3.1,1.3-6.3,1.6-9.6,0.5c-2.4-0.8-3.7-2.6-4-5
		c-0.1-1.1-0.2-2.1-0.2-3.2c0-7.2,0-14.5,0-21.7c0-0.5,0-0.9,0-1.5c-1.6,0-3,0-4.5,0c0-1.5,0-2.9,0-4.4c1.5,0,3,0,4.5,0
		c0.2-2.5,0.4-4.9,0.5-7.2c0.1-1.1,0.4-1.7,1.6-1.8c1.4-0.2,2.8-0.6,4.3-0.9c-0.2,3.3-0.5,6.6-0.7,10c3.1,0,6,0,9.1,0
		c-0.6,1.5-1,2.8-1.6,4c-0.1,0.3-0.7,0.4-1.1,0.4c-2.1,0-4.2,0-6.5,0c0,0.5-0.1,0.9-0.1,1.4c0,7.2,0,14.3,0,21.5c0,4,1.5,5.4,5.5,5
		C-1174.6-789.4-1173.8-789.7-1172.8-789.9z"/>
	<path class="st0" d="M-1139.4-789.5c5.7,0,11,0,16.6,0c-0.3,1.2-0.5,2.2-0.8,3.3c-6.9,0-13.7,0-20.6,0c0-1-0.1-2,0-3
		c0-0.3,0.4-0.7,0.8-1c3.8-3.2,7.6-6.3,11.4-9.5c1.7-1.4,2.8-3.2,2.9-5.5c0.2-2.7-1.3-4.5-3.9-4.9c-2.4-0.4-4.6,0-6.7,1.1
		c-1.2,0.7-2.3,1.4-3.6,2.2c-0.5-0.7-1.1-1.4-1.7-2.1c4.4-4,9.2-6.1,15.2-4.5c4.9,1.4,7.2,5.9,5,10.6c-0.8,1.7-2,3.4-3.5,4.6
		c-3.2,2.7-6.6,5.2-9.9,7.8C-1138.5-790.2-1138.8-790-1139.4-789.5z"/>
	<path class="st0" d="M-1154.9-789.6c1.7,0,3.2,0,4.8,0c0,1.2,0,2.2,0,3.4c-4.7,0-9.3,0-14,0c0-1.1,0-2.1,0-3.3c1.6,0,3.2,0,4.8,0
		c0-6.2,0-12.3,0-18.4c-2.4,1.1-4.7,2.1-7,3.2c-0.2-0.2-0.2-0.2-0.3-0.3c-1-2.1-1-2.1,0.9-3.3c1.9-1.3,3.9-2.5,5.7-3.9
		c1.5-1.2,3.2-1.3,5.1-1.1C-1154.9-805.4-1154.9-797.6-1154.9-789.6z"/>
</g>
<g>
	<path class="st0" d="M-1811.5-540.4c1.7-1.3,3.2-2.5,4.8-3.6c3.6-2.4,7.7-3.4,11.9-3.9c7.1-0.8,14.1,0,20.8,2.6
		c7.2,2.7,11.7,8.1,13.7,15.3c2.4,8.7,2.5,17.5-0.2,26.2c-2.8,8.9-9,14.2-18,16.3c-7.3,1.6-14.7,1.6-22,0.1
		c-4.3-0.9-7.9-3.1-11.3-6.1c0,1.2,0,2.4,0,3.5c0,2.3-0.6,2.8-2.8,2.8c-9.5,0-19,0-28.5,0c-1.8,0-2.4-0.7-2.4-2.4
		c0-24.9,0-49.7,0-74.6c0-2.1,0.6-2.8,2.8-2.9c2.2,0,4.5,0,6.7,0c7,0,14.1,0,21.1,0c0.3,0,0.7,0,1,0c1.8,0.2,2.5,0.8,2.5,2.7
		c0,7.6,0,15.2,0,22.7C-1811.5-541.2-1811.5-540.8-1811.5-540.4z M-1812.5-516.2c0,0,0.1,0,0.1,0c0.1,0.9,0.1,1.9,0.2,2.8
		c0.6,5.6,3.9,9,9.5,9.5c5.3,0.4,9.3-1.7,11-7c1-3.4,1-6.8,0.2-10.2c-0.9-3.9-3.4-6.3-7.4-6.9c-1.4-0.2-2.9-0.2-4.4-0.1
		c-4.2,0.3-7.1,2.6-8.2,6.7C-1812.1-519.8-1812.2-518-1812.5-516.2z"/>
	<path class="st0" d="M-1586.3-493.4c-0.1,0-0.2,0.1-0.2,0.1c-4.1,4.1-9.1,6.1-14.7,6.6c-5.4,0.5-10.9,0.5-16.3-0.3
		c-10.9-1.7-17.8-8-20.4-18.7c-2-8.1-1.9-16.4,0.5-24.4c2.6-8.8,8.5-14.3,17.6-16.3c7.5-1.6,15.1-1.7,22.6,0.3c4,1,7.6,3,10.5,6.1
		c0.1,0.1,0.3,0.2,0.6,0.4c0-0.4,0-0.8,0-1.1c0-1.1,0-2.3,0-3.4c0-1.8,0.7-2.5,2.5-2.5c9.6,0,19.3,0,28.9,0c1.8,0,2.5,0.6,2.5,2.4
		c0,18.1,0,36.2,0,54.4c0,1.9-0.7,2.5-2.5,2.5c-9.6,0-19.2,0-28.8,0c-1.9,0-2.5-0.7-2.5-2.5c0-1.2,0-2.3,0-3.5
		C-1586.1-493.3-1586.2-493.4-1586.3-493.4z M-1595.9-527.6c-0.5,0-0.9,0-1.4,0c-4.4,0.2-7.4,2.6-8.6,6.8c-0.7,2.3-0.8,4.7-0.5,7.2
		c0.7,6.5,4.9,10.3,11.4,9.9c3.5-0.2,6.4-1.7,8-4.8c2.5-4.7,2.5-9.6,0.2-14.4C-1588.6-526.6-1592-527.7-1595.9-527.6z"/>
	<path class="st0" d="M-1987.2-538.7c3-3.8,6.8-5.9,11.1-7.3c4.9-1.5,10-1.8,15.1-1.6c3.2,0.1,6.4,0.5,9.6,1.2
		c8.4,1.9,13.2,7.5,15,15.7c0.7,3.4,0.9,7,1,10.6c0.1,10.1,0,20.1,0,30.2c0,0.3,0,0.6,0,0.9c-0.1,1.1-0.9,1.8-2,1.8
		c-10,0-20.1,0-30.1,0c-1,0-1.9-0.7-2-1.8c0-0.4,0-0.7,0-1.1c0-8.8,0-17.6,0-26.5c0-0.8-0.1-1.6-0.2-2.4c-0.6-2.7-2.2-4.4-4.8-5.1
		c-2.6-0.6-5.2-0.6-7.7,0.4c-2.7,1.1-4.3,3.1-4.5,6c-0.1,0.8-0.1,1.6-0.1,2.4c0,8.1,0,16.2,0,24.3c0,0.5,0,1-0.1,1.5
		c-0.2,1.2-0.9,1.7-2.1,1.7c-9.8,0-19.7,0-29.5,0c-1.8,0-2.6-0.8-2.5-2.6c0-0.4,0-0.8,0-1.2c0-17.6-0.1-35.2-0.1-52.8
		c0-1.5,0.7-2.3,2.2-2.3c9.9,0,19.8,0,29.6,0c1.3,0,2.1,0.8,2.1,2.2c0,1.6,0,3.1,0,4.7C-1987.2-539.4-1987.2-539.1-1987.2-538.7z"/>
	<path class="st0" d="M-1890.6-485.1c-6.4,0-12.8-0.4-19.1-1.9c-5.5-1.3-10.5-3.5-14.6-7.4c-4.8-4.5-7.3-10.2-8.2-16.7
		c-0.8-5.9-0.4-11.7,1.2-17.4c2.3-7.7,7.5-12.9,14.7-16.1c5.3-2.3,10.9-3.3,16.7-3.7c6.3-0.5,12.6-0.4,18.9,0
		c5.8,0.4,11.4,1.5,16.8,3.8c6.8,2.9,11.5,7.8,13.8,14.8c2.7,7.9,3,15.9,0.6,23.9c-2.4,7.9-7.7,13.3-15.2,16.6
		c-4.7,2.1-9.6,3.1-14.6,3.5C-1883.3-485.4-1887-485.3-1890.6-485.1z M-1901.8-516.2c0.4,2,0.7,4.2,1.3,6.2c1,3.1,3.1,5.1,6.3,5.7
		c2.2,0.5,4.3,0.5,6.5,0.1c4-0.8,6.4-3.1,7.5-6.9c0.9-3.2,0.9-6.4,0.2-9.7c-0.9-3.8-3.1-6.4-7-7.2c-2.3-0.5-4.7-0.5-7,0
		c-3.5,0.7-5.8,2.7-6.8,6.1C-1901.3-520.1-1901.5-518.2-1901.8-516.2z"/>
	<path class="st0" d="M-1715.9-526.8c0-12.3,0-24.6,0-36.9c0-1.1,0.2-2,1.3-2.5c0.4-0.2,0.8-0.3,1.2-0.3c9.6,0,19.2,0,28.7,0
		c2.2,0,3,0.8,3,3c0,24.5,0,48.9,0,73.4c0,2.1-0.7,2.8-2.8,2.8c-9.7,0-19.5,0-29.2,0c-1.3,0-2.1-0.8-2.2-2.1c0-2,0-4.1,0-6.1
		C-1715.9-505.9-1715.9-516.3-1715.9-526.8z"/>
	<path class="st0" d="M-1642-516.8c0,8.9,0,17.9,0,26.8c0,2-1.1,2.8-2.8,2.8c-9.7-0.1-19.4,0-29,0c-1.7,0-2.4-0.7-2.4-2.4
		c0-18.2,0-36.4,0-54.6c0-1.6,0.7-2.3,2.3-2.3c9.8,0,19.6,0,29.4,0c1.9,0,2.5,0.6,2.5,2.5C-1642-534.9-1642-525.9-1642-516.8z"/>
	<path class="st0" d="M-1755.6-516.9c0-9.2,0-18.4,0-27.5c0-1.3,0.8-2.1,2.1-2.1c10,0,20,0,30,0c1.3,0,1.9,0.6,2.1,1.9
		c0,0.3,0,0.6,0,0.9c0,18,0,36,0,54c0,0.8,0.1,1.6-0.7,2.1c-0.4,0.3-0.9,0.5-1.4,0.5c-10,0-19.9,0-29.9,0c-1.3,0-2.1-0.9-2.1-2.2
		C-1755.6-498.6-1755.6-507.7-1755.6-516.9z"/>
	<path class="st0" d="M-1659.1-551.2c-4.5,0-9,0-13.5,0c-0.6,0-1.2-0.1-1.8-0.2c-0.9-0.2-1.4-0.8-1.4-1.8c0-3.8,0-7.5,0-11.3
		c0-1,0.9-1.8,1.9-2c0.3,0,0.6,0,0.9,0c9.2,0,18.3,0,27.5,0c0.3,0,0.6,0,0.9,0c1.5,0.1,2.3,0.9,2.3,2.4c0,3.5,0,7.1,0,10.6
		c0,1.3-0.6,2-1.9,2.2c-0.5,0.1-1,0.1-1.5,0.1C-1650.2-551.2-1654.7-551.2-1659.1-551.2z"/>
	<path class="st0" d="M-1738.6-566.4c4.4,0,8.8,0,13.2,0c0.6,0,1.2,0,1.8,0.1c1.3,0.2,1.8,0.9,1.8,2.2c0,3.6,0,7.2,0,10.7
		c0,1.2-0.6,1.9-1.8,2.2c-0.5,0.1-1,0.1-1.5,0.1c-9,0-18,0-27,0c-0.4,0-0.8,0-1.3-0.1c-1.4-0.2-1.9-0.8-1.9-2.2c0-3.5,0-7.1,0-10.6
		c0-1.5,0.9-2.3,2.4-2.4c4,0,8,0,12,0C-1740.1-566.5-1739.3-566.5-1738.6-566.4C-1738.6-566.5-1738.6-566.4-1738.6-566.4z"/>
	<path class="st0" d="M-1559.8-567.4c4.6,0,8,3.4,8,8c0,4.6-3.4,8-7.9,8c-4.6,0-7.7-3.4-7.7-8.4
		C-1567.5-564.3-1564.3-567.5-1559.8-567.4z M-1559.9-552.6c4.1,0,6.9-2.8,6.9-7c0-4.1-2.8-6.8-6.9-6.8c-3.9,0-6.7,2.8-6.7,6.9
		C-1566.5-555.4-1563.8-552.6-1559.9-552.6z"/>
	<path class="st0" d="M-1557.9-558.8c0.7,1.2,1.3,2.4,2,3.6c-1.4,0.4-1.6,0.3-2.3-0.9c-0.3-0.5-0.5-1-0.8-1.4
		c-0.7-1.2-0.7-1.2-2.3-1c0,0.5,0,1.1,0,1.7c0,0.5,0,1.1,0,1.7c-0.5,0-1,0-1.5,0c0-3,0-5.9,0-8.9c1.4,0,2.8-0.1,4.2,0
		c1.2,0.1,2.1,0.8,2.4,2c0.3,1.2-0.3,2.1-1.2,2.8C-1557.6-559.1-1557.7-559-1557.9-558.8z M-1561.3-560c0.8,0,1.5,0.1,2.1,0
		c0.9-0.1,1.5-0.8,1.4-1.7c-0.1-0.9-0.7-1.1-1.5-1.1c-0.7,0-1.3,0-2.1,0C-1561.3-561.8-1561.3-561-1561.3-560z"/>
</g>
<g>
	<path class="st0" d="M-639.6-531.4c0-10.3,0-20.4,0-30.7c0.2,0,0.5,0,0.7,0c4.9,0,9.8,0,14.7,0c2.2,0,4.1,0.7,5.8,2
		c1.8,1.4,3,3.1,3.3,5.4c0.3,2.7-0.4,5.1-2.4,7c-0.3,0.3-0.8,0.5-1.2,0.8c0.2,0.1,0.5,0.2,0.7,0.2c2.1,0.4,3.4,1.8,3.9,3.8
		c0.9,3.2,0.5,6.2-1.7,8.8c-1.1,1.3-2.6,1.8-4.3,2.1c-3.1,0.5-6.3,0.6-9.5,0.5c-3.1,0-6.2,0-9.3,0
		C-639.1-531.4-639.3-531.4-639.6-531.4z M-631.6-537.2c0.2,0,0.4,0,0.5,0c1.7,0,3.3,0,5,0c0.7,0,1.4-0.1,2.1-0.3
		c2.1-0.7,2.9-3.6,1.3-5.2c-0.8-0.8-1.9-1-3-1.1c-1.9,0-3.7,0-5.6,0c-0.1,0-0.2,0-0.4,0c0,2.1,0,4.1,0,6.2
		C-631.7-537.5-631.7-537.4-631.6-537.2z M-631.9-549.7c1.5,0,2.9,0,4.3,0c0.7,0,1.3,0,2-0.1c1.6-0.2,2.5-1.2,2.6-2.7
		c0.1-1.3-0.4-2.5-1.8-3c-0.4-0.1-0.9-0.3-1.4-0.3c-1.8,0-3.6-0.1-5.5-0.1c-0.1,0-0.2,0-0.2,0.1
		C-631.9-553.8-631.9-551.8-631.9-549.7z"/>
	<path class="st0" d="M-524.2-561.2c2.7,0,5.4,0,8.2,0c0,3.8,0,7.6,0,11.4c3.3,0,6.5,0,9.8,0c0-3.9,0-7.7,0-11.5c2.7,0,5.4,0,8.1,0
		c0,10.3,0,20.6,0,30.9c-2.7,0-5.4,0-8.2,0c0-4.2,0-8.3,0-12.4c-3.3,0-6.5,0-9.8,0c0,4.2,0,8.4,0,12.5c-2.8,0-5.5,0-8.2,0
		C-524.2-540.6-524.2-550.9-524.2-561.2z"/>
	<path class="st0" d="M-582.7-547.6c0,3.8-0.3,6.6-1.3,9.2c-1.9,4.4-5.1,7.1-9.9,7.8c-3.2,0.4-6.3,0.3-9.3-0.9c-3-1.1-5-3.3-6.4-6.1
		c-1.2-2.3-1.6-4.7-1.8-7.2c-0.2-2.5,0-5,0.6-7.5c0.9-3.5,2.7-6.4,5.9-8.3c1.8-1.1,3.7-1.6,5.7-1.8c2.7-0.2,5.4-0.1,8,0.8
		c3.7,1.4,6.2,4.1,7.4,7.8C-582.8-551.1-582.7-549.5-582.7-547.6z M-604-546.6c0.1,1.3,0.2,2.3,0.3,3.3c0.3,2.1,1.2,3.8,3.2,4.8
		c1.6,0.8,3.2,0.9,4.9,0.6c2.4-0.4,4-1.8,4.6-4.2c0.5-2,0.6-4,0.5-6c-0.1-0.9-0.3-1.9-0.6-2.8c-0.9-2.6-2.9-3.8-5.5-4
		c-3.2-0.3-6,1.1-6.9,4.5C-603.7-549-603.8-547.6-604-546.6z"/>
	<path class="st0" d="M-672.7-573.7c14.8-0.1,27.6,12.3,27.2,27.8c-0.4,14-12,26.4-27.2,26.4c-15.2-0.1-27.3-12.7-27-27.7
		C-699.5-561.7-687.3-573.6-672.7-573.7z M-672.9-523c13.2,0.1,23.8-10.1,23.9-23.5c0.1-13.2-10.2-23.8-23.7-23.7
		c-12.9,0-23.7,10.1-23.6,23.7C-696.2-533-685.7-523.2-672.9-523z"/>
	<path class="st0" d="M-557.3-557.8c-1.6,1.8-3.2,3.5-4.8,5.2c-1.3-1.6-3-2.7-5-3.1c-1-0.2-2.2-0.1-3.2,0.1c-1,0.2-1.8,0.9-1.9,2
		c-0.2,1.6,0.4,2.7,1.9,3.2c1.9,0.6,3.9,1,5.9,1.5c1.9,0.4,3.5,1.2,5.1,2.2c1,0.7,1.5,1.7,2,2.7c2.5,4.8-0.3,11.4-5.1,13.1
		c-1.1,0.4-2.3,0.6-3.5,0.7c-2.1,0.2-4.3,0.2-6.4-0.3c-3.1-0.7-5.7-2.2-7.8-4.6c-0.2-0.2-0.3-0.4-0.5-0.6c1.4-1.5,2.8-3,4.3-4.6
		c1.9,1.4,4,2.5,6.3,3.2c1.4,0.4,2.9,0.4,4.3,0.2c1-0.2,1.9-1.1,1.9-2.1c0.1-1.4-0.5-2.5-1.6-2.9c-1.4-0.4-2.8-0.7-4.1-1
		c-2.8-0.7-5.4-1.7-7.6-3.6c-2.1-1.8-2.9-4.1-2.8-6.7c0.2-3.4,1.8-6,4.9-7.5c1.4-0.7,2.8-1.4,4.4-1.6c3.9-0.5,7.6,0,10.8,2.6
		C-558.9-559.1-558.1-558.5-557.3-557.8z"/>
	<path class="st0" d="M-526.9-555.6c-2.1,1.4-4.2,2.8-6.3,4.2c-0.5-0.4-1-0.9-1.4-1.3c-0.4-0.3-0.7-0.7-1-1c-1.5-1.5-3.2-1.6-5.1-1
		c-2.9,0.9-4.5,3-4.8,6c-0.2,1.8-0.3,3.7,0.1,5.5c0.4,1.7,1.3,3.3,2.4,4.6c0.6,0.7,1.5,1.1,2.4,1.2c2.3,0.3,4.4,0,6.3-1.4
		c0.6-0.4,1.1-1.1,1.6-1.6c1.8,1.3,3.6,2.8,5.5,4.2c-1.5,2.9-3.7,5-6.9,5.8c-3,0.8-6,0.9-9,0c-3.8-1.1-6.6-3.5-8.5-6.9
		c-1.3-2.2-2.1-4.6-2.2-7.2c-0.4-5.5,0.8-10.5,5.1-14.4c3-2.7,6.6-3.8,10.6-3.4c2.1,0.2,4.1,0.6,5.9,1.7
		C-530.2-559.2-528.4-557.6-526.9-555.6z"/>
	<path class="st0" d="M-682.7-564.2c0,3.1,0,6.1,0,9.2c6.5,0,12.9,0,19.4,0c0-3.2,0-6.4,0-9.6c13.8,7.9,14.9,27.1,0,36.1
		c0-2.9,0-5.7,0-8.5c-6.5,0-13,0-19.5,0c0,2.7,0,5.4,0,8.3c-1.1-0.9-2.2-1.6-3.1-2.5c-1.9-1.8-3.5-3.7-4.8-6
		c-1.3-2.3-1.9-4.7-2.2-7.3c-0.2-2.4-0.1-4.7,0.5-7c0.4-1.5,0.9-3,1.7-4.4c1.1-1.9,2.3-3.7,3.9-5.2c1.2-1.2,2.6-2.2,3.9-3.3
		C-682.8-564.3-682.7-564.3-682.7-564.2z M-682.6-540.5c6.4,0,12.7,0,19.1,0c0-3.7,0-7.3,0-11c-6.4,0-12.7,0-19.1,0
		C-682.6-547.8-682.6-544.2-682.6-540.5z M-659.7-535.9c5.9-7.1,4.4-16.4,0-21.4C-659.7-550.1-659.7-543-659.7-535.9z M-686.1-556.5
		c-4.9,6.4-3.7,15.2,0,19.7C-686.1-543.3-686.1-549.8-686.1-556.5z"/>
</g>
<g>
	<path class="st0" d="M272.4-518.6c0,0.3,0,0.6,0,1c0,6,0,12,0,18.1c0,0.8-0.2,1.1-1,1c-1.4-0.1-2.8,0-4.1,0c-0.6,0-0.8-0.2-0.8-0.8
		c0-9.7,0-19.4,0-29c0-0.7,0.2-0.8,0.8-0.8c3.1,0,6.2,0,9.3,0c0.6,0,0.9,0.2,1.1,0.8c2.3,5.6,4.5,11.2,6.8,16.8
		c0.2,0.4,0.4,0.8,0.6,1.4c0.2-0.4,0.4-0.7,0.5-1c2.4-5.7,4.8-11.4,7.3-17.1c0.2-0.6,0.5-0.8,1.2-0.8c2.9,0,5.8,0,8.8,0
		c0.7,0,0.9,0.2,0.9,0.9c0,9.6,0,19.2,0,28.8c0,0.7-0.2,0.9-0.9,0.9c-2.1,0-4.2-0.1-6.3,0c-0.8,0-1.1-0.2-1.1-1.1c0-6,0-12,0-18.1
		c0-0.3,0-0.6,0-1c-0.1,0-0.2,0-0.2-0.1c-0.2,0.3-0.3,0.6-0.4,0.9c-2.7,6.2-5.3,12.4-8,18.6c-0.3,0.7-0.6,1-1.4,0.9
		c-1.1-0.1-2.2-0.1-3.3,0c-0.7,0-1-0.3-1.2-0.9c-2.5-6.2-5.1-12.4-7.7-18.5c-0.1-0.3-0.3-0.6-0.5-1
		C272.6-518.6,272.5-518.6,272.4-518.6z"/>
	<path class="st0" d="M344.8-518c0,0.3-0.1,0.7-0.1,1c0,5.8,0,11.6,0,17.4c0,0.9-0.2,1.1-1.1,1.1c-1.3-0.1-2.6-0.1-3.9,0
		c-0.8,0-1-0.2-1-1c0-6.9,0-13.7,0-20.6c0-2.7,0-5.4,0-8.1c0-0.8,0.2-1,1-1c2.7,0,5.3,0,8,0c0.7,0,1,0.2,1.3,0.8
		c3.2,5.9,6.4,11.8,9.7,17.7c0.2,0.3,0.3,0.6,0.7,0.8c0-0.3,0.1-0.6,0.1-0.9c0-5.8,0-11.5,0-17.3c0-0.8,0.2-1.1,1-1
		c1.4,0.1,2.8,0,4.1,0c0.6,0,0.8,0.2,0.8,0.8c0,9.7,0,19.4,0,29c0,0.6-0.2,0.8-0.8,0.8c-2.7,0-5.4,0-8.1,0c-0.7,0-0.9-0.4-1.2-0.9
		c-3.3-6-6.6-12-9.9-17.9c-0.1-0.3-0.3-0.5-0.5-0.8C345-518.1,344.9-518.1,344.8-518z"/>
	<path class="st0" d="M311-513.8c0-4.8,0-9.5,0-14.3c0-0.8,0.2-1.1,1-1.1c6.8,0,13.5,0,20.3,0c0.7,0,1,0.2,1,0.9
		c-0.1,1.2-0.1,2.4,0,3.6c0,0.7-0.2,0.9-0.9,0.9c-3.8,0-7.6,0-11.5,0c-1.2,0-1.2,0-1.2,1.2c0,1.6,0,3.1,0,4.7c0,1.2,0,1.2,1.3,1.2
		c3.2,0,6.5,0,9.7,0c0.7,0,1,0.2,1,1c-0.1,1,0,2.1,0,3.1c0,0.7-0.2,0.9-0.9,0.9c-3.3,0-6.7,0-10,0c-0.8,0-1.1,0.3-1,1.1
		c0,1.8,0,3.5,0,5.3c0,0.8,0.2,1.1,1,1.1c3.9,0,7.9,0,11.8,0c0.8,0,1.1,0.2,1,1c-0.1,1.3,0,2.6,0,3.9c0,0.6-0.2,0.8-0.8,0.8
		c-7,0-13.9,0-20.9,0c-0.8,0-0.8-0.4-0.8-0.9C311-504.3,311-509.1,311-513.8z"/>
	<path class="st0" d="M247.3-511.7c0,2.4,0,4.6,0,6.9c0,0.2,0.3,0.4,0.5,0.5c0.3,0.1,0.6,0,0.9,0c3.8,0,7.6,0,11.5,0
		c0.7,0,1,0.2,1,1c-0.1,1.3,0,2.7,0,4c0,0.6-0.2,0.8-0.8,0.8c-7,0-13.9,0-20.9,0c-0.6,0-0.8-0.2-0.8-0.8c0-9.7,0-19.4,0-29.1
		c0-0.6,0.2-0.8,0.8-0.8c6.9,0,13.8,0,20.7,0c0.6,0,0.8,0.2,0.8,0.8c0,1.3,0,2.5,0,3.8c0,0.7-0.3,0.9-0.9,0.9c-3.8,0-7.7,0-11.5,0
		c-1.2,0-1.2,0-1.2,1.2c0,1.7,0,3.4,0,5c0,0.7,0.2,0.9,0.9,0.9c3.3,0,6.6,0,9.9,0c0.8,0,1.1,0.2,1.1,1c-0.1,1-0.1,2,0,3
		c0,0.7-0.2,0.9-0.9,0.9c-3.3,0-6.5,0-9.8,0C248.1-511.7,247.8-511.7,247.3-511.7z"/>
	<path class="st0" d="M195.1-505c1.7,0.4,3.3,0.9,4.9,1.2c2.1,0.4,4.3,0.7,6.5,0.3c0.5-0.1,0.9-0.2,1.4-0.4c1-0.4,1.6-1.1,1.7-2.2
		c0.1-1.1-0.4-1.9-1.3-2.4c-1.5-0.8-3.1-1.4-4.6-2.1c-1.5-0.7-3.1-1.3-4.5-2.2c-2.8-1.6-4.6-4-4.7-7.4c-0.2-3.7,1.9-6.6,5.5-8.2
		c3.1-1.3,6.3-1.5,9.6-1.2c1.7,0.2,3.4,0.5,5.2,0.7c1.2,0.2,1.2,0.2,1.2,1.5c0,1.4,0,2.7,0,4.1c0,0.1,0,0.1-0.1,0.2
		c-1.2-0.3-2.3-0.7-3.5-1c-2.1-0.5-4.3-0.9-6.5-0.4c-0.8,0.2-1.6,0.6-2.3,1.1c-0.9,0.7-0.9,2,0,2.8c0.5,0.5,1.1,0.9,1.7,1.2
		c2.1,1,4.3,2,6.3,3.1c1.2,0.6,2.4,1.4,3.5,2.3c4.7,3.7,3.8,10.7-1.1,13.7c-2.2,1.3-4.5,2-7,2.1c-3.7,0.2-7.4,0-11.1-0.9
		c-0.6-0.1-0.8-0.4-0.8-1C195.1-501.6,195.1-503.3,195.1-505z"/>
	<path class="st0" d="M372.2-505c1.7,0.4,3.3,0.8,4.9,1.1c2.2,0.4,4.3,0.7,6.5,0.3c0.5-0.1,0.9-0.2,1.4-0.4c1-0.4,1.6-1.2,1.7-2.3
		c0.1-1-0.4-1.8-1.3-2.3c-1.1-0.6-2.3-1.1-3.4-1.6c-2.2-1.1-4.5-1.9-6.5-3.2c-3.9-2.5-5-7.4-2.9-11.2c1.2-2.1,3.1-3.3,5.3-4.1
		c2.9-1,5.8-1.2,8.8-0.8c1.8,0.2,3.5,0.5,5.2,0.7c0.7,0.1,1.1,0.4,1,1.2c-0.1,1.5,0,3,0,4.6c-1.3-0.4-2.4-0.7-3.6-1
		c-2.1-0.5-4.2-0.9-6.4-0.4c-0.7,0.2-1.5,0.5-2.1,1c-1.2,0.9-1.2,2.2,0,3.2c0.6,0.5,1.2,0.8,1.9,1.1c2.5,1.3,5.1,2.4,7.6,3.8
		c2.3,1.3,4.1,3.1,4.8,5.8c0.8,3.3-0.5,6.8-3.2,8.8c-2.3,1.7-5,2.5-7.8,2.7c-3.7,0.2-7.4,0-11-0.9c-0.6-0.2-0.9-0.4-0.9-1.1
		C372.2-501.7,372.2-503.3,372.2-505z"/>
	<path class="st0" d="M222.5-513.9c0-4.8,0-9.5,0-14.3c0-0.8,0.2-1,1-1c2.3,0,4.7,0,7,0c0.7,0,0.9,0.2,0.9,0.9c0,9.6,0,19.3,0,28.9
		c0,0.7-0.2,0.9-0.9,0.9c-2.4,0-4.7,0-7.1,0c-0.7,0-0.9-0.2-0.9-0.9C222.5-504.3,222.5-509.1,222.5-513.9z"/>
</g>
<g>
	<path class="st0" d="M-5.7-358.1c-3.5,0-7,0-10.4,0c0-0.1,0-0.2,0.1-0.3c0.9-2.1,1.7-4.3,2.6-6.4c0.1-0.3,0.3-0.4,0.6-0.4
		c7.1,0,14.3,0,21.4,0c0.2,0,0.3,0,0.5,0c0,10.7,0,21.4,0,32.1c-0.1,0-0.2,0.1-0.4,0.2c-3.1,1-6.3,1.9-9.5,2.5
		c-2.8,0.5-5.6,0.8-8.5,0.9c-1.5,0-3,0.1-4.5,0c-4.1-0.1-8-0.8-11.9-2.3c-2.3-0.9-4.4-2-6.5-3.4c-1.8-1.3-3.5-2.7-5-4.4
		c-2.4-2.7-4.2-5.7-5.5-9.1c-1.3-3.4-2-6.9-2.2-10.5c-0.1-2.7,0-5.3,0.4-7.9c0.6-3.7,1.7-7.2,3.6-10.5c1.8-3.3,4.2-6.1,7.2-8.5
		c2.7-2.1,5.6-3.8,8.9-4.9c2.6-0.9,5.2-1.5,7.9-1.7c1.3-0.1,2.7-0.2,4.1-0.2c6.2,0,12.4,0,18.6,0c0.1,0,0.3,0,0.4,0
		c0,0.4-2.4,6.7-2.8,7.6c-0.2,0-0.3,0-0.5,0c-4.8,0-9.6,0-14.4,0c-2,0-4,0.4-5.9,1.1c-2,0.8-3.8,2.1-5.2,3.7
		c-1.4,1.6-2.4,3.4-3.2,5.3c-1.1,2.6-1.7,5.4-2.1,8.2c-0.3,2.7-0.5,5.4-0.3,8.1c0.2,3.3,0.6,6.5,1.7,9.6c0.8,2.5,1.9,4.8,3.6,6.9
		c1.4,1.8,3.2,3.3,5.3,4.3c1.5,0.8,3.1,1.2,4.8,1.5c1.8,0.3,3.6,0.3,5.5,0.2c0.6,0,1.2-0.2,1.9-0.4C-5.7-343.9-5.7-351-5.7-358.1z"
		/>
	<path class="st0" d="M-151-330c-2.7,0-5.4,0-8.2,0c0.1-0.2,0.1-0.4,0.2-0.6c0.9-2.2,1.8-4.5,2.7-6.7c1.2-3.1,2.5-6.2,3.7-9.3
		c1.7-4.4,3.5-8.8,5.2-13.2c1.9-4.8,3.8-9.6,5.7-14.4c1.1-2.8,2.2-5.6,3.4-8.4c0.1-0.2,0.1-0.4,0-0.7c-1.1-2.9-2.3-5.8-3.4-8.7
		c-0.1-0.2-0.2-0.4-0.3-0.7c0.2,0,0.4,0,0.5,0c5.3,0,10.6,0,15.9,0c0.6,0,0.5,0,0.7,0.5c1.2,3.1,2.5,6.3,3.7,9.4
		c1.4,3.5,2.7,7,4.1,10.5c1.1,2.9,2.3,5.8,3.4,8.7c1.3,3.3,2.6,6.6,3.9,9.9c1.1,2.9,2.3,5.8,3.4,8.8c1.1,2.9,2.2,5.7,3.4,8.6
		c0.8,2,1.6,4,2.3,5.9c0.1,0.1,0.1,0.3,0.2,0.4c-5.7,0-11.3,0-16.9,0c0-0.1-0.1-0.2-0.1-0.3c-1.3-3.4-2.6-6.7-3.9-10.1
		c-0.5-1.4-1.1-2.8-1.6-4.2c-0.2-0.4-0.2-0.4-0.6-0.4c-7,0-13.9,0-20.9,0c-0.4,0-0.4,0-0.6,0.4c-1.8,4.3-3.5,8.7-5.3,13
		C-150.6-331-150.8-330.5-151-330z M-142.1-352.3c0.6,0.1,15.5,0.1,15.9,0c-0.1-0.4-7.6-19.7-7.8-20
		C-136.7-365.7-139.4-359-142.1-352.3z"/>
	<path class="st0" d="M-49.4-392.7c0,0.1-0.1,0.2-0.1,0.4c-0.9,2.3-1.7,4.5-2.6,6.8c-0.1,0.2-0.2,0.4-0.4,0.3c-0.1,0-0.3,0-0.4,0
		c-7.9,0-15.8,0-23.7,0c-0.2,0-0.4,0-0.7,0c0,6.7,0,13.3,0,19.9c0.2,0,0.4,0,0.6,0c3.8,0,7.7,0,11.5,0c3.4,0,6.8,0,10.2,0
		c0.2,0,0.3,0,0.6,0c-1,2.4-1.9,4.7-2.9,7.1c-6.6,0-13.2,0-19.8,0c-0.1,0.4-0.1,20,0,20.6c1,0.1,2.1,0,3.1,0c1.1,0,2.1,0,3.2,0
		c1.1,0,2.1,0,3.2,0c1.1,0,2.1,0,3.2,0c1,0,2.1,0,3.1,0c1.1,0,2.1,0,3.2,0s2.1,0,3.2,0c1.1,0,2.1,0,3.2,0c1.1,0,2.1,0,3.2,0
		c-1.1,2.6-2.1,5-3.1,7.5c-13.8,0-27.6,0-41.4,0c0-20.9,0-41.8,0-62.7c0,0,0,0,0,0c0,0,0,0,0,0c0.1,0,0.1,0,0.2,0
		c14.4,0,28.8,0,43.2,0c0.1,0,0.1,0,0.2,0C-49.5-392.7-49.5-392.7-49.4-392.7z"/>
</g>
<g>
	<path class="st0" d="M47.9,57.8c-15.5,0-30.9,0-46.4,0c0-15.4,0-30.7,0-46.1c15.5,0,30.9,0,46.4,0C47.9,27.1,47.9,42.4,47.9,57.8z
		 M31.3,15.2c-0.1,0.8-0.1,38.6,0,39c6.3-1.8,13.8-8.5,14.1-18.8C45.8,24.7,38.2,17.2,31.3,15.2z M29.1,54.9c0.1-0.8,0-1.6-0.1-2.3
		c-0.4-2.8-1.5-5.4-3.2-7.7c-2.3-3.2-5.2-5.5-8.8-7.1c-2.4-1.1-4.8-1.7-7.4-1.8c-1.7-0.1-3.4,0-5.1,0c-0.1,0-0.2,0-0.3,0.1
		C4.4,48.6,17.3,57.8,29.1,54.9z M4,33.6c0.1,0,0.3,0,0.4,0c1.4,0,2.9,0,4.3,0c1.7,0,3.4-0.3,5.1-0.7c4.2-1.2,7.7-3.4,10.6-6.6
		C27,23.4,28.6,20,29,16.1c0-0.5,0-1,0-1.5C16,11.7,4.5,22,4,33.6z"/>
	<path class="st0" d="M73.2,32.2c0,1.3,0,2.4,0,3.7c-3.2,0-6.4,0-9.6,0c0,0.2,0,0.3,0,0.5c0,0.8,0,1.6,0,2.5c0,0.2,0,0.4,0,0.6
		c0.3,1.8,1.4,2.8,3.2,2.8c2.2,0,4.5,0,6.7,0c0.2,0,0.4,0,0.6,0c0,1.2,0,2.4,0,3.6c-0.1,0-0.2,0.1-0.3,0.1c-2.6,0-5.3,0-7.9,0
		c-1,0-2-0.3-3-0.8c-1.5-0.7-2.4-2-2.9-3.5c-0.3-0.9-0.4-1.9-0.4-2.9c0-5,0-10,0-15c0-0.2,0-0.4,0-0.5c0.4-0.1,13.3-0.2,14.1-0.1
		c0.1,0.4,0.1,2.9,0,3.6c-3.4,0-6.8,0-10.2,0c0,1.8,0,3.6,0,5.4C66.7,32.2,69.9,32.2,73.2,32.2z"/>
	<path class="st0" d="M100.3,38.6c-4.3,0-8.6,0-12.9,0c0,0.8,0.2,1.5,0.6,2.1c0.5,0.9,1.2,1.5,2.2,1.8c2.3,0.8,4.5,0.6,6.4-1.1
		c0.1-0.1,0.2-0.2,0.4-0.3c0,0,0,0,0.1,0c0.7,0.7,1.5,1.4,2.3,2.2c-0.7,0.8-1.5,1.4-2.4,1.9c-1.2,0.7-2.5,1-3.9,1.1
		c-1.4,0.1-2.9,0-4.2-0.6c-2.6-1-4.3-2.8-5-5.5c-0.6-2.2-0.4-4.5,0.5-6.6c1.2-2.6,3.3-4.1,6.1-4.6c1.5-0.3,3-0.2,4.5,0.3
		c2.9,1,4.6,3,5.3,6C100.6,36.5,100.6,37.7,100.3,38.6z M96.5,35.9c0-0.2,0-0.4,0-0.5c-0.1-0.7-0.4-1.3-0.9-1.7
		c-1.3-1.3-2.9-1.6-4.6-1.2c-1.3,0.3-2.3,1-2.9,2.1c-0.2,0.4-0.4,0.8-0.4,1.3C90.5,35.9,93.5,35.9,96.5,35.9z"/>
	<path class="st0" d="M160.5,37.7c0,3.9-2.6,7.3-6.4,8.4c-3.1,0.8-6,0.3-8.5-1.7c-1.8-1.4-2.8-3.3-3.1-5.6c-0.6-4.8,2.8-9.1,7.6-9.7
		c2.6-0.3,4.9,0.2,7,1.8C159.4,32.5,160.5,34.9,160.5,37.7z M151.5,42.9c2.9,0,5.2-2.3,5.2-5.2c0-2.9-2.3-5.2-5.2-5.2
		c-2.9,0-5.1,2.2-5.2,5.1C146.3,40.3,148.3,42.9,151.5,42.9z"/>
	<path class="st0" d="M170,29.5c1.3,0,2.6,0,4,0c0,0.3,0,0.5,0,0.8c0,2.8,0,5.6,0,8.4c0,0.4,0,0.8,0,1.1c0.1,1.6,1.1,2.6,2.7,2.9
		c0.7,0.1,1.4,0.1,2,0c1.5-0.3,2.4-1.5,2.5-3c0-0.3,0-0.6,0-1c0-2.8,0-5.7,0-8.5c0-0.2,0-0.4,0-0.7c1.3,0,2.6,0,3.9,0
		c0,0.2,0,0.3,0,0.5c0,3.3,0.1,6.5,0,9.8c-0.1,2.8-1.4,4.9-4,6c-2.4,1-4.8,1-7.2,0c-2.4-1-3.7-2.8-3.9-5.4c0-0.5-0.1-0.9-0.1-1.4
		c0-2.9,0-5.9,0-8.8C170,29.9,170,29.7,170,29.5z"/>
	<path class="st0" d="M187.1,45.9c2.1-2.9,4.2-5.8,6.3-8.7c-1.9-2.6-3.8-5.1-5.7-7.7c0.2,0,0.3-0.1,0.5-0.1c1.1,0,2.2,0,3.3,0
		c0.3,0,0.5,0.1,0.7,0.4c1,1.3,1.9,2.7,2.9,4c0.1,0.2,0.3,0.4,0.5,0.6c0.2-0.2,0.3-0.3,0.4-0.5c1-1.3,2-2.7,2.9-4
		c0.2-0.3,0.5-0.4,0.8-0.4c1.1,0,2.1,0,3.2,0c0.1,0,0.3,0,0.5,0c-1.9,2.6-3.8,5.1-5.7,7.7c2.1,2.9,4.1,5.8,6.3,8.7
		c-0.2,0-0.4,0-0.5,0c-1.1,0-2.2,0-3.3,0c-0.3,0-0.5-0.1-0.7-0.3c-1.2-1.7-2.4-3.4-3.6-5c-0.1-0.1-0.2-0.3-0.4-0.5
		c-0.2,0.2-0.3,0.3-0.4,0.5c-1.2,1.6-2.4,3.3-3.6,5c-0.2,0.3-0.4,0.4-0.7,0.4c-1.1,0-2.1,0-3.2,0C187.5,45.9,187.4,45.9,187.1,45.9z
		"/>
	<path class="st0" d="M115.9,34.2c-0.7-0.6-1.4-1.2-2.2-1.5c-1.9-0.6-3.7-0.5-5.3,0.8c-1,0.8-1.6,1.8-1.8,3.1c-0.3,1.6,0,3,1,4.3
		c1.1,1.4,2.5,2,4.3,1.9c1.5,0,2.7-0.6,3.8-1.6c0.1,0,0.1-0.1,0.2-0.1c0,0,0,0,0.1,0c0.8,0.8,1.6,1.6,2.4,2.5
		c-0.7,0.8-1.5,1.4-2.4,1.9c-4,2.1-9.8,1-12.3-3.6c-1.7-3.2-1.3-7.5,1.4-10.2c2.2-2.2,4.8-2.9,7.8-2.6c2,0.2,3.7,1,5.1,2.4
		c0.1,0.1,0.3,0.2,0.5,0.4C117.5,32.5,116.7,33.3,115.9,34.2z"/>
	<path class="st0" d="M120.8,23.2c0.5-0.1,3.4-0.1,3.9,0c0,2,0,4.1,0,6.2c1.2,0.1,2.4,0,3.6,0.1c0,1.2,0,2.3,0,3.5
		c-1.2,0-2.3,0-3.5,0c0,0.2,0,0.3,0,0.5c0,1.8,0,3.6,0,5.4c0,0.3,0,0.6,0.1,1c0.3,1.4,1.4,2.3,2.8,2.4c0.2,0,0.5,0,0.7,0
		c0,1.2,0,2.4,0,3.6c-0.1,0-0.2,0.1-0.3,0c-0.9,0-1.9-0.1-2.8-0.3c-2.4-0.7-3.8-2.3-4.3-4.8c-0.1-0.7-0.2-1.5-0.2-2.2
		c0-4.9,0-9.9,0-14.8C120.8,23.6,120.8,23.4,120.8,23.2z"/>
	<path class="st0" d="M77,23.1c1.3,0,2.5,0,3.8,0c0,7.6,0,15.2,0,22.8c-1.3,0-2.6,0-3.8,0C76.9,45.5,76.9,23.8,77,23.1z"/>
	<path class="st0" d="M163.1,23.1c1.3,0,2.5,0,3.8,0c0,7.6,0,15.2,0,22.8c-1.3,0-2.6,0-3.8,0C163,45.5,162.9,23.9,163.1,23.1z"/>
	<path class="st0" d="M141.7,32.9c-0.3,0-0.6-0.1-0.8-0.1c-0.8-0.1-1.6,0-2.4,0.2c-1.7,0.5-2.7,1.9-2.9,3.8c0,0.2,0,0.4,0,0.6
		c0,2.6,0,5.2,0,7.8c0,0.2,0,0.4,0,0.6c-1.3,0-2.6,0-3.8,0c-0.1-0.4-0.1-15.6,0-16.4c0.4-0.1,3.2-0.2,3.8,0c0,0.7,0,1.4,0,2.1
		c1.5-2.2,3.6-2.7,6.1-2.5C141.7,30.4,141.7,31.7,141.7,32.9z"/>
</g>
<g>
	<path class="st0" d="M1429.3-441.6c109.1,0,218.2,0,327.3,0c0,0.3,0,0.6,0,0.9c0,26.2,0,52.4,0,78.6c0,0.3,0,0.6,0,0.9
		c-109.1,0-218.1,0-327.2,0c0-0.3,0-0.6,0-0.8c0-26.2,0-52.4,0-78.6C1429.4-441,1429.4-441.3,1429.3-441.6z M1534.6-428.2
		c-0.2,0-0.4,0-0.6,0c-9.8,0-19.6,0-29.4,0c-0.4,0-0.7,0.2-0.9,0.5c-4.6,6.3-9.2,12.7-13.8,19c-0.2,0.2-0.3,0.5-0.5,0.7
		c-0.2-0.3-0.3-0.5-0.5-0.6c-4.6-6.3-9.2-12.7-13.8-19c-0.3-0.4-0.6-0.5-1-0.5c-11.1,0-22.2,0-33.3,0c-0.2,0-0.5,0-0.7,0
		c0,2.9,0,5.7,0,8.6c2,0,4,0,6,0c0,11.6,0,23.2,0,34.8c-2,0-4,0-6,0c0,2.9,0,5.7,0,8.5c7.3,0,14.6,0,21.9,0c0-2.9,0-5.7,0-8.5
		c-2,0-4,0-6,0c0-7.5,0-14.8,0-22.4c7.6,10.4,15.1,20.7,22.6,31c7.5-10.4,15-20.6,22.5-31c0,7.6,0,15,0,22.4c-2,0-4,0-6,0
		c0,2.9,0,5.7,0,8.5c13.2,0,26.4,0,39.7,0c0-2.9,0-5.7,0-8.5c-2,0-4,0-6,0c0-11.6,0-23.1,0-34.8c2,0,4,0,6,0
		C1534.6-422.5,1534.6-425.3,1534.6-428.2z M1640.3-389.8c-0.2,0-0.3,0-0.4,0c-4.8,0-9.6,0-14.3,0c-0.4,0-0.5,0.2-0.6,0.5
		c-1.9,5.1-7.3,7.8-12.5,6.4c-2.5-0.7-4.4-2-4.9-4.7c-0.3-1.7-0.2-3.5-0.3-5.3c0.4,0,0.7,0,0.9,0c6.9,0,13.8,0,20.7,0
		c3.8,0,7.5,0,11.3,0c0.5,0,0.7-0.1,0.7-0.6c0-0.6,0.1-1.3,0.1-1.9c-0.2-6.9-3-12.5-8.9-16.2c-5.7-3.6-12-5.3-18.7-5.7
		c-5.3-0.3-10.5,0.5-15.5,2.2c-2.9,1-5.7,2-8,4c-5.9,4.9-8.4,11.3-7.1,18.9c1.1,6.5,4.7,11.3,10.7,14.1c5.5,2.5,11.3,3.7,17.3,3.8
		c6.5,0.1,12.7-1.3,18.7-3.9c3.5-1.5,6.5-3.7,8.7-6.9C1639-386.6,1639.8-388.1,1640.3-389.8z M1744.8-389.8c-0.3,0-0.6,0-0.8,0
		c-4.6,0-9.1,0-13.7,0c-0.6,0-0.8,0.2-1,0.7c-1.9,5-7.4,7.7-12.6,6.2c-3.1-0.9-4.8-2.8-5-5.6c-0.1-1.4,0-2.8,0-4.2
		c0,0,0-0.1,0.1-0.2c11.1,0,22.2,0,33.3,0c0-0.1,0.1-0.2,0.1-0.3c0.7-7.5-2-13.7-8.2-18c-5.7-3.9-12.3-5.7-19.2-6.1
		c-6.2-0.4-12.2,0.8-18.1,3c-9.5,3.5-14.4,12.9-12.7,21.9c1.2,6.2,4.4,11,10.1,13.9c4.9,2.5,10.3,3.6,15.7,4
		c6.5,0.5,12.7-0.6,18.7-2.9c3.1-1.2,6-2.5,8.4-4.8C1742.2-384.4,1743.8-386.9,1744.8-389.8z M1678.1-384.9c0-14.5,0-28.9,0-43.3
		c-11.6,0-23.2,0-34.7,0c0,2.9,0,5.7,0,8.6c2,0,4,0,5.9,0c0,11.6,0,23.2,0,34.8c-2,0-4,0-5.9,0c0,2.9,0,5.7,0,8.5c0.2,0,0.4,0,0.6,0
		c13.2,0,26.4,0,39.7,0c0.5,0,0.7-0.1,0.7-0.6c0-2.4,0-4.9,0-7.4c0-0.2,0-0.4-0.1-0.6C1682.2-384.9,1680.2-384.9,1678.1-384.9z
		 M1573.7-384.9c0-0.4,0-0.6,0-0.9c0-9.6,0-19.3,0-28.9c0-0.5-0.1-0.7-0.7-0.7c-10.8,0-21.6,0-32.4,0c-0.5,0-0.7,0.1-0.7,0.6
		c0,2.4,0,4.9,0,7.3c0,0.2,0,0.4,0,0.6c2.1,0,4,0,6,0c0,7.3,0,14.6,0,21.9c-2,0-4,0-6.1,0c0,0.3,0,0.4,0,0.6c0,2.4,0,4.9,0,7.3
		c0,0.5,0.2,0.7,0.7,0.7c12.8,0,25.6,0,38.4,0c0.5,0,0.7-0.1,0.7-0.7c0-2.4,0-4.8,0-7.2c0-0.2,0-0.4,0-0.7
		C1577.8-384.9,1575.8-384.9,1573.7-384.9z M1556.2-416.3c4.2-2.2,8.4-4.4,12.5-6.5c-1.3-2.6-2.6-5-4-7.6c-4.2,2.2-8.3,4.3-12.5,6.5
		C1553.6-421.4,1554.9-418.9,1556.2-416.3z"/>
	<path class="st0" d="M1615.8-399.7c-0.3,0-0.5,0-0.7,0c-2.4,0-4.8,0-7.2,0c-0.5,0-0.7-0.1-0.7-0.7c0-1.6,0-3.1,0-4.7
		c0-2.2,1.6-4,3.7-4.3c2.1-0.3,4,1,4.6,3c0.1,0.3,0.1,0.5,0.2,0.8c0,0.3,0,0.5,0,0.8C1615.8-403,1615.8-401.4,1615.8-399.7z"/>
	<path class="st0" d="M1720.2-399.7c-2.8,0-5.6,0-8.5,0c0-0.8,0-1.6,0-2.3c0-1.3-0.1-2.6,0.1-3.8c0.3-2.2,2.4-3.6,4.6-3.4
		c2.1,0.2,3.8,2,3.8,4.1c0,1.7,0,3.4,0,5C1720.3-400,1720.3-399.8,1720.2-399.7z"/>
</g>
</svg>
