<?xml version="1.0" encoding="utf-8"?>
<!-- Generator: Adobe Illustrator 26.2.1, SVG Export Plug-In . SVG Version: 6.00 Build 0)  -->
<svg version="1.1" id="Vrstva_1" xmlns="http://www.w3.org/2000/svg" xmlns:xlink="http://www.w3.org/1999/xlink" x="0px" y="0px"
	 viewBox="0 0 521.3 84.8" style="enable-background:new 0 0 521.3 84.8;" xml:space="preserve">
<style type="text/css">
	.st0{fill:#FFFFFF;}
</style>
<g>
	<g>
		<path class="st0" d="M2.8,60.8V16.7h9.9V52h17.5v8.8L2.8,60.8L2.8,60.8z"/>
		<path class="st0" d="M38.8,24.5V14.3h9.5v10.1H38.8z M38.8,60.8V28.5h9.5v32.3L38.8,60.8L38.8,60.8z"/>
		<path class="st0" d="M57.4,38.4c0.1-6.5,3.7-10.5,13.2-10.5c2.1,0,3.9,0.3,5.5,0.7h10.1V33l-3.2,1.2c0.5,1.3,0.8,2.7,0.9,4.2v3.9
			c0,6.2-4.3,10.3-13.2,10.3h-1c-0.7,0.4-1.4,0.9-1.4,1.8c0,0.7,0.5,1.3,1.1,1.3c4.3,0.5,5.6,0.6,8,0.8c5.4,0.5,7.8,2.3,7.8,7.9
			c0,7.8-4.8,10.1-14.8,10.1c-3.2,0-8.6-0.5-12.9-1.7l1.4-7c3.8,0.9,7.8,1.3,10.6,1.3c5,0,7-0.2,7-2.3c0-1.3-0.6-1.6-2.5-1.8
			c-3.7-0.3-4.2-0.4-8.2-0.8c-4.4-0.5-6.9-1.4-6.9-5.8c0-2.6,1.2-4.3,2.8-5.9c-2.8-1.7-4.1-4.4-4.1-8.3L57.4,38.4z M74.9,41.8v-3
			c0-2.1-1.1-3.4-4.3-3.4s-4.3,1.3-4.3,3.4v3c0,2.2,1.2,3.2,4.3,3.2C73.7,45,74.9,44,74.9,41.8z"/>
		<path class="st0" d="M113.1,60.8V39.5c0-1.5-0.7-2.3-2.3-2.3c-1.7,0-4.9,1.3-7,2.4v21.3h-9.6V15.3l9.4-1.3v16.8
			c3.9-1.8,7.8-3,11.5-3c5.5,0,7.4,4.1,7.4,10.3v22.6H113.1z"/>
		<path class="st0" d="M144.6,61.5c-6.2,0-9.8-2.3-9.8-8.3v-17h-4.4v-7.7h4.4v-7.8l9.6-1.3v9.1h7.4l-0.5,7.7h-6.8v15.6
			c0,1.3,0.8,1.8,2,1.8c1.1,0,2.6-0.1,4-0.6l1.1,7.2C149.4,61,146.8,61.5,144.6,61.5z"/>
		<path class="st0" d="M170.9,61.5c-3.5,0-8.6-0.9-11.7-1.9l1.5-7.1c2.6,0.8,6.2,1.5,9.8,1.5c2.9,0,3.3-0.8,3.3-2.7
			c0-2-0.1-2.3-5.2-3.6c-7.8-1.9-8.6-4-8.6-10.1c0-6.8,2.6-9.7,12.3-9.7c2.4,0,7,0.3,9.8,1.1l-0.9,7.4c-2.9-0.5-6.4-0.9-8.9-0.9
			c-2.8,0-3.4,0.7-3.4,2.2c0,2,0.3,2.2,4.1,3.1c9.2,2.1,9.9,4,9.9,10.5C182.9,57.8,180.1,61.5,170.9,61.5z"/>
		<path class="st0" d="M203.7,61.5c-6.2,0-9.8-2.3-9.8-8.3v-17h-4.4v-7.7h4.4v-7.8l9.6-1.3v9.1h7.4l-0.5,7.7h-6.8v15.6
			c0,1.3,0.8,1.8,2,1.8c1.1,0,2.6-0.1,4-0.6l1.1,7.2C208.5,61,205.9,61.5,203.7,61.5z"/>
		<path class="st0" d="M226.5,73.9l3.8-13.1h-3.1l-9.9-32.3h9.7l6.6,22.9l6.6-22.9h9.7l-10.1,32.3l-4.1,13.1L226.5,73.9z"/>
		<path class="st0" d="M257.4,60.8V15.3l9.5-1.3v46.8H257.4z"/>
		<path class="st0" d="M285.7,48v0.9c0,3.7,1.5,4.7,5.8,4.7c3,0,7-0.5,9.8-1.4l1.4,7.2c-2.9,1.1-7.6,2-12.1,2
			c-10.5,0-14.5-5.2-14.5-13.1v-7.6c0-7,3.1-12.9,13.9-12.9S303,34.2,303,41.2V48L285.7,48L285.7,48z M294,39.5c0-2.2-0.7-4.1-4-4.1
			c-3.3,0-4.4,1.9-4.4,4.1v1.4h8.4L294,39.5L294,39.5z"/>
	</g>
	<g>
		<path class="st0" d="M342.9,34.6V10.9l2-0.3v23.9H342.9z M354.9,17.8l-6.7,8.3l7,8.5h-2.5l-6.8-8.5l6.6-8.3H354.9z"/>
		<path class="st0" d="M359.1,14.6v-3.7h2v3.7H359.1z M359.1,34.6V17.8h2v16.8C361.1,34.6,359.1,34.6,359.1,34.6z"/>
		<path class="st0" d="M375.6,34.3c-1,0.4-2.3,0.7-3.5,0.7c-2.6,0-3.8-1-3.8-3.6V19.5h-3.2v-1.7h3.2v-4l2-0.3v4.2h5.1l-0.2,1.7h-4.9
			v11.6c0,1.5,0.2,2.1,1.9,2.1c0.9,0,2-0.2,3-0.5L375.6,34.3z"/>
		<path class="st0" d="M380.7,29.2c0,3,1.2,3.9,4.3,3.9c1,0,2.2-0.1,3.6-0.3l0.2,1.7c-1.2,0.3-2.7,0.5-3.8,0.5
			c-4.7,0-6.3-2.2-6.3-5.8v-5.9c0-3.6,1.6-5.8,6.3-5.8c1.1,0,2.6,0.2,3.8,0.5l-0.2,1.6c-1.4-0.2-2.6-0.4-3.6-0.4
			c-3.1,0-4.3,0.9-4.3,3.9V29.2z"/>
		<path class="st0" d="M403.8,34.6V21c0-1.2-0.6-1.7-1.8-1.7c-1.4,0-4.3,0.8-6.4,1.9v13.3h-2V10.9l2-0.3v8.6
			c1.8-0.9,4.7-1.8,6.7-1.8c2.6,0,3.5,1.5,3.5,3.8v13.3C405.8,34.6,403.8,34.6,403.8,34.6z"/>
		<path class="st0" d="M417,33.2c1.7,0,3.6-0.3,5.3-0.8l0.3,1.6c-1.5,0.5-3.8,0.9-5.8,0.9c-4.7,0-6.2-2.5-6.2-6.1v-5.3
			c0-3.5,1.5-6.1,6.3-6.1s6.1,2.6,6.1,6.1v3.2h-10.4v2.1C412.6,31.9,413.6,33.2,417,33.2z M412.6,25h8.4v-1.5c0-2.8-1-4.3-4.1-4.3
			s-4.3,1.5-4.3,4.3V25z"/>
		<path class="st0" d="M438.2,34.6V21c0-1.2-0.6-1.7-1.8-1.7c-1.4,0-4.3,0.8-6.4,1.9v13.3h-2V17.8h1.8l0.1,1.5
			c1.8-0.9,4.8-1.9,6.8-1.9c2.6,0,3.5,1.5,3.5,3.8v13.3L438.2,34.6L438.2,34.6z"/>
		<path class="st0" d="M363.4,70.3V56.8c0-1.2-0.6-1.7-1.8-1.7c-1.6,0-4.3,0.8-6.4,1.9v13.3h-2V56.8c0-1.2-0.6-1.7-1.8-1.7
			c-1.4,0-4.3,0.8-6.4,1.9v13.3h-2V53.6h1.8l0.1,1.5c1.8-0.9,4.8-1.9,6.8-1.9c1.8,0,2.8,0.7,3.2,1.9c1.9-0.9,5-1.9,7-1.9
			c2.6,0,3.5,1.5,3.5,3.8v13.3H363.4z"/>
		<path class="st0" d="M382.3,70.3h-1.7l-0.1-1.3c-1.6,1-3.5,1.7-5.7,1.7c-3,0-4.3-1.7-4.3-4.7c0-3.5,1.6-4.6,4.9-4.6h5v-3.3
			c0-2.3-1.2-3.1-4-3.1c-1.6,0-3.4,0.2-5,0.5l-0.3-1.7c1.3-0.4,3.4-0.7,5.2-0.7c4.3,0,6.1,1.7,6.1,4.9L382.3,70.3L382.3,70.3z
			 M380.3,63.1h-4.9c-2.3,0-3,0.7-3,2.9c0,2,0.4,2.9,2.8,2.9c1.6,0,3.6-0.7,5.1-1.7V63.1z"/>
		<path class="st0" d="M398.1,70.3V56.8c0-1.2-0.6-1.7-1.8-1.7c-1.4,0-4.3,0.8-6.4,1.9v13.3h-2V53.6h1.8l0.1,1.5
			c1.8-0.9,4.8-1.9,6.8-1.9c2.6,0,3.5,1.5,3.5,3.8v13.3H398.1z"/>
		<path class="st0" d="M407.6,53.6v13.6c0,1.2,0.6,1.7,1.8,1.7c1.4,0,4.3-0.8,6.4-1.9V53.6h2v16.8h-1.8l-0.1-1.5
			c-1.8,0.9-4.8,1.9-6.8,1.9c-2.6,0-3.5-1.5-3.5-3.8V53.6H407.6z"/>
		<path class="st0" d="M432.6,48c-1.1-0.2-2.1-0.3-3-0.3c-1.9,0-2.5,0.7-2.5,2.5v3.3h5.2l-0.2,1.7h-5v15h-2v-15H422v-1.7h3.1v-3.5
			c0-2.8,1.7-4,4.3-4c1,0,2.5,0.2,3.4,0.5L432.6,48z"/>
		<path class="st0" d="M447.2,70.3h-1.7l-0.1-1.3c-1.6,1-3.5,1.7-5.7,1.7c-3,0-4.3-1.7-4.3-4.7c0-3.5,1.6-4.6,4.9-4.6h5v-3.3
			c0-2.3-1.2-3.1-4-3.1c-1.6,0-3.4,0.2-5,0.5l-0.3-1.7c1.3-0.4,3.4-0.7,5.2-0.7c4.3,0,6.1,1.7,6.1,4.9L447.2,70.3L447.2,70.3z
			 M445.2,63.1h-4.9c-2.3,0-3,0.7-3,2.9c0,2,0.4,2.9,2.8,2.9c1.6,0,3.6-0.7,5.1-1.7V63.1z"/>
		<path class="st0" d="M453.6,65c0,3,1.2,3.9,4.3,3.9c1,0,2.2-0.1,3.6-0.3l0.2,1.7c-1.2,0.3-2.7,0.5-3.8,0.5c-4.7,0-6.3-2.2-6.3-5.8
			V59c0-3.6,1.6-5.8,6.3-5.8c1.1,0,2.6,0.2,3.8,0.5l-0.2,1.7c-1.4-0.2-2.6-0.3-3.6-0.3c-3.1,0-4.3,0.9-4.3,3.9V65z"/>
		<path class="st0" d="M475.1,70c-1,0.4-2.3,0.7-3.5,0.7c-2.6,0-3.8-1-3.8-3.6V55.3h-3.2v-1.7h3.2v-4l2-0.3v4.2h5.1l-0.2,1.7h-4.9
			v11.6c0,1.5,0.2,2.1,1.9,2.1c0.9,0,2-0.2,3-0.5L475.1,70z"/>
		<path class="st0" d="M481,53.6v13.6c0,1.2,0.6,1.7,1.8,1.7c1.4,0,4.3-0.8,6.4-1.9V53.6h2v16.8h-1.8l-0.1-1.5
			c-1.8,0.9-4.8,1.9-6.8,1.9c-2.6,0-3.5-1.5-3.5-3.8V53.6H481z"/>
		<path class="st0" d="M504.5,55.2c-1.8,0.8-3.7,2-5.3,3.1v12h-2V53.6h1.8l0.1,2.5c1.8-1.2,3.6-2.3,5.2-2.9L504.5,55.2z"/>
		<path class="st0" d="M513.4,68.9c1.7,0,3.7-0.3,5.3-0.8l0.3,1.6c-1.5,0.6-3.8,0.9-5.8,0.9c-4.7,0-6.2-2.4-6.2-6.1v-5.3
			c0-3.4,1.5-6.1,6.3-6.1c4.7,0,6.1,2.7,6.1,6.1v3.2H509v2.1C509,67.6,510.1,68.9,513.4,68.9z M509,60.8h8.4v-1.5
			c0-2.8-1-4.3-4.1-4.3s-4.3,1.5-4.3,4.3L509,60.8L509,60.8z"/>
	</g>
	<rect x="323.4" y="0.4" class="st0" width="1.6" height="83.6"/>
</g>
<g>
	<path class="st0" d="M-434.4-330.3c-19,0-38.1,0-57.1,0c-3.8,0-7.5-0.8-10.6-3.2c-5.1-3.9-6.8-9.3-5.5-15.4
		c2.7-12.5,5.6-25,8.4-37.5c4.8-21.1,9.5-42.3,14.3-63.4c0.5-2.2,0-1.9,2.4-2c38.1,0,76.2,0,114.3,0c4.2,0,8.2,0.9,11.5,3.8
		c3.8,3.2,5.5,7.4,5,12.3c-0.5,4.4-1.6,8.7-2.6,13c-5.1,22.9-10.3,45.8-15.5,68.8c-1.7,7.5-3.4,14.9-5,22.4
		c-0.2,1.1-0.8,1.1-1.7,1.1C-395.8-330.3-415.1-330.3-434.4-330.3z M-447-402.7c0.4,0,0.7,0.1,1,0.1c5.4,0,10.9,0,16.3,0
		c0.9,0,1.2-0.4,1.3-1.2c0.5-3,1.3-6,1.6-9.1c0.8-8.1-2.3-14.5-11.4-16.6c-5-1.2-10.1-1.1-15.1-0.3c-5.1,0.8-9.7,2.8-13.5,6.4
		c-3.8,3.6-6.3,8-8.3,12.8c-2.8,6.8-4.6,13.9-6,21c-1.4,6.8-2.8,13.6-2.1,20.6c0.6,6.7,3.6,11.3,10.5,13.1c4.5,1.2,9.1,1.4,13.7,0.9
		c10.9-1,18.6-6.5,23.1-16.5c1.8-4,2.7-8.3,3.6-12.6c0.3-1.5,0.3-1.5-1.2-1.5c-4.6,0-9.1,0-13.7,0c-3.1,0-3.1,0-3.9,3.1
		c-0.1,0.3-0.1,0.5-0.2,0.8c-1,3.3-2,6.6-3.2,9.8c-0.5,1.2-1.4,2.5-2.5,3.3c-3,2.3-6.7,0.8-7.2-2.9c-0.2-1.6-0.1-3.3,0.2-4.9
		c1.7-10.9,4.1-21.7,7.3-32.3c0.6-2.2,1.7-4.3,2.9-6.3c1.3-2.1,3.4-2.8,5.8-2.4c1.7,0.3,2.5,1.1,2.6,2.9c0.1,1.3,0.1,2.7-0.1,4.1
		C-445.9-407.8-446.4-405.3-447-402.7z M-434.2-356.1c0.5,0.1,0.8,0.1,1.1,0.1c14.3,0,28.5,0,42.8,0c0.9,0,1.2-0.4,1.3-1.1
		c0.4-2.1,0.9-4.2,1.4-6.3c0.6-2.6,1.1-5.3,1.8-8.1c-7.7,0-15.3,0-23.1,0c0.4-0.6,0.6-0.9,0.9-1.3c10.4-13.8,20.8-27.5,31.2-41.3
		c0.5-0.6,0.8-1.4,1-2.1c0.8-3.1,1.4-6.1,2.1-9.2c0.2-1,0.4-2.1,0.7-3.3c-0.7,0-1.2,0-1.6,0c-13.4,0-26.7,0-40.1,0
		c-2,0-1.7-0.2-2.1,1.8c-0.4,1.6-0.7,3.1-1.1,4.7c-0.7,2.9-1.3,5.9-2,9.1c7.1,0,14,0,21.2,0c-0.4,0.6-0.6,0.9-0.8,1.2
		c-10.1,13.5-20.1,26.9-30.3,40.4c-1,1.3-1.7,2.6-1.9,4.2c-0.3,1.7-0.7,3.3-1.1,5C-433.3-360.4-433.7-358.3-434.2-356.1z"/>
	<path class="st0" d="M-624.9-400.2c0.2-0.3,0.5-0.6,0.7-0.9c3.5-4.7,7-9.4,10.5-14.1c0.4-0.6,0.9-0.8,1.6-0.8c6.3,0,12.6,0,18.8,0
		c0.4,0,0.9,0,1.4,0c0.9-4.5,1.9-8.9,2.8-13.4c5.1,0,10.2,0,15.3,0c-0.9,4.5-1.8,8.9-2.8,13.4c2,0,3.9,0,6,0
		c-0.7,3.5-1.4,6.9-2.1,10.3c-2,0-4,0-6.1,0c-0.8,3.7-1.5,7.2-2.3,10.8c-0.8,3.6-1.5,7.2-2.3,10.9c-0.1,0.5-0.2,1-0.2,1.5
		c0,1.4,0.4,2,1.8,2.3c1.1,0.2,2.3,0.2,3.6,0.3c-0.4,2.2-0.9,4.4-1.3,6.7c-0.1,0.7-0.3,1.4-0.4,2.1c-0.1,0.9-0.5,1.4-1.5,1.4
		c-4,0-8.1,0.3-12.1,0c-5.8-0.4-7-3.7-6.2-8.5c1.4-8.3,3.3-16.5,5-24.8c0.2-0.8,0.3-1.6,0.5-2.6c-1.7,0-3.3,0-5.1,0
		c0.7-3.3,1.3-6.4,1.9-9.5c-0.1,0-0.1-0.1-0.2-0.1c-1.1,1.2-2.2,2.5-3.3,3.7c-4,4.5-8,9.1-12,13.6c-0.7,0.7-0.7,1.4-0.4,2.2
		c2.7,8.2,5.3,16.4,8,24.6c0.1,0.3,0.2,0.7,0.4,1.1c-0.5,0-0.8,0.1-1.2,0.1c-4.6,0-9.3,0-13.9,0c-0.9,0-1.2-0.2-1.5-1.1
		c-1.3-4.7-2.6-9.3-4-14c-0.1-0.2-0.1-0.4-0.2-0.7c-2,2-3.8,4-4.1,7c-0.3,2.9-1.1,5.8-1.7,8.7c-5.1,0-10.2,0-15.3,0
		c4.2-20.2,8.4-40.4,12.6-60.6c5,0,10.1,0,15.3,0c-2.1,10.1-4.2,20.2-6.3,30.2C-625-400.2-624.9-400.2-624.9-400.2z"/>
	<path class="st0" d="M-247.3-416.9c-0.4,1.8-0.7,3.6-1.1,5.3c0.1,0,0.1,0.1,0.2,0.1c0.2-0.3,0.5-0.6,0.7-0.9
		c4.2-5.6,10.9-6.7,16.5-5.1c2.6,0.7,4,2.6,4.8,5.1c0.1,0.4,0.2,0.8,0.3,1.2c1.1-1.1,2-2.3,3.1-3.3c4.3-3.6,9.3-4.3,14.6-2.9
		c4.1,1.1,5.8,4.6,5,9.1c-1,6.1-2.3,12.1-3.5,18.2c-1.2,6-2.5,12.1-3.8,18.1c-0.1,0.4-0.2,0.8-0.3,1.2c-5.1,0-10.1,0-15.3,0
		c0.6-2.8,1.1-5.5,1.7-8.3c1.5-7.4,3.1-14.9,4.6-22.3c0.2-1.1,0.3-2.3,0-3.4c-0.1-0.6-0.9-1.4-1.5-1.6c-2.2-0.7-4.3,0.2-5.2,2.4
		c-0.7,1.9-1.1,3.9-1.6,5.9c-1.9,9.1-3.8,18.2-5.6,27.3c-5.1,0-10.1,0-15.3,0c0.5-2.6,1-5.1,1.6-7.6c1.6-7.8,3.2-15.7,4.9-23.5
		c0.1-0.3,0.1-0.7,0.1-1.1c0.1-2.2-0.3-3.1-1.6-3.5c-1.8-0.6-4,0-4.7,1.6c-0.8,1.7-1.4,3.6-1.8,5.4c-2,9.3-3.9,18.6-5.8,27.9
		c-0.1,0.3-0.5,0.8-0.8,0.8c-4.8,0-9.7,0-14.7,0c3.2-15.4,6.4-30.7,9.5-46C-257.1-416.9-252.2-416.9-247.3-416.9z"/>
	<path class="st0" d="M-528.8-368.7c-3,0-6.2-0.3-9.1-1.5c-4.1-1.7-6.3-4.9-6.5-9.1c-0.4-9,1.4-17.7,5.3-25.9
		c3.6-7.5,9.8-11.3,18.1-11.8c3.3-0.2,6.6-0.1,9.9,0.7c5.7,1.5,8.7,5.2,8.7,11.2c0,7.9-1.6,15.6-4.6,22.9
		C-511.1-372.7-518.6-368.5-528.8-368.7z M-529.6-382.8c0.1,0,0.2,0,0.3,0.1c0,0.6-0.1,1.2,0,1.8c0.1,1.1,0.6,2,1.7,2.3
		c1.7,0.5,3.5-0.1,4.5-1.7c0.7-1.1,1.3-2.2,1.6-3.5c1.2-5,2.4-10.1,3.4-15.1c0.4-1.7,0.5-3.6,0.5-5.3c0-2.5-1.5-3.5-3.9-2.9
		c-1.7,0.4-2.7,1.7-3.2,3.1c-1,2.9-1.9,5.8-2.6,8.8C-528.2-391.1-528.8-386.9-529.6-382.8z"/>
	<path class="st0" d="M-295.9-369.6c-3.1-0.1-6.2-0.4-9.2-1.5c-4.2-1.6-6.4-4.8-6.6-9.1c-0.5-8.9,1.4-17.5,5.1-25.6
		c3.4-7.4,9.4-11.3,17.5-12.1c3.3-0.3,6.6-0.2,9.9,0.5c6,1.4,9.3,5,9.3,11.2c0,8.8-1.7,17.4-5.7,25.3c-3.4,6.7-9.1,10.3-16.7,11.1
		C-293.4-369.7-294.6-369.7-295.9-369.6z M-296.9-383.8c0.1,0,0.2,0,0.3,0.1c0,0.6-0.1,1.3,0,1.9c0.2,1.3,1,2.2,2.2,2.3
		c1.8,0.2,3.3-0.4,4.2-2c0.5-0.9,0.9-1.8,1.3-2.7c1.9-5.7,3-11.5,3.8-17.5c0.2-1.6,0.1-3.2,0-4.7c-0.1-1.1-0.9-1.7-1.9-1.9
		c-1.6-0.2-3,0.2-3.9,1.5c-0.5,0.7-1.1,1.5-1.3,2.4c-0.8,2.7-1.7,5.3-2.2,8C-295.4-392.2-296.1-388-296.9-383.8z"/>
	<path class="st0" d="M-710.9-385.9c-0.5,7.5-6.6,14.7-14.1,16.4c-5.4,1.3-10.9,1.3-16.2-0.4c-4.2-1.4-6.6-4.5-6.9-8.9
		c-0.7-9.6,1.4-18.6,5.6-27.2c3.4-7,9.4-10.4,17.2-11c3.5-0.2,6.9-0.2,10.2,0.8c4.5,1.3,7.1,4.7,7.6,9.4c0.6,5.4-0.7,10.6-1.7,15.8
		c-0.2,0.8-0.8,0.7-1.3,0.7c-6.7,0-13.4,0-20.1,0c-0.5,0-0.9,0-1.6,0c-0.5,2.9-1,5.7-1.4,8.5c-0.2,1.5,0.2,3,1.8,3.5
		c1.7,0.6,3.4,0.4,4.5-1c1-1.3,1.6-2.8,2.3-4.3c0.3-0.7,0.4-1.5,0.6-2.4C-720-385.9-715.5-385.9-710.9-385.9z M-730.4-398.5
		c2.7,0,5.3,0,7.9,0c0.2,0,0.6-0.3,0.6-0.5c0.3-1.9,0.7-3.8,0.8-5.7c0.1-1.7-0.9-2.7-2.4-2.9c-1.7-0.3-3.2,0.1-4.3,1.5
		C-729.5-404-729.9-401.3-730.4-398.5z"/>
	<path class="st0" d="M-669.2-390.2c-0.5,2.9-1,5.7-1.4,8.5c-0.2,1.5,0.2,2.9,1.8,3.6c1.4,0.6,3.6,0.2,4.6-1.1
		c0.9-1.3,1.5-2.8,2.2-4.2c0.3-0.7,0.4-1.5,0.6-2.4c4.5,0,9.1,0,13.6,0c-0.7,8.1-7.3,15.3-15.4,16.7c-4.8,0.8-9.5,0.9-14.2-0.5
		c-4.6-1.3-7.2-4.6-7.6-9.3c-0.6-5.7,0.6-11.2,1.9-16.7c1.1-4.6,2.6-9,5.3-13c3.3-4.7,7.8-7.3,13.4-8.1c4.1-0.6,8.2-0.7,12.2,0.5
		c4.6,1.3,7.2,4.7,7.7,9.4c0.6,5.4-0.7,10.6-1.7,15.9c-0.2,0.8-0.8,0.7-1.3,0.7c-6.8,0-13.5,0-20.3,0
		C-668.1-390.2-668.6-390.2-669.2-390.2z M-667.3-398.5c2.8,0,5.3,0,7.9,0c0.3,0,0.7-0.3,0.7-0.6c0.3-1.8,0.7-3.7,0.8-5.5
		c0.1-1.8-0.9-2.9-2.6-3.1c-1.8-0.2-3.4,0.4-4.4,2C-666.4-403.6-666.8-401.2-667.3-398.5z"/>
	<path class="st0" d="M-346.3-370.9c4-6.9,0.4-13.9-6.4-15.5c0.4-2.3,0.7-4.6,1.2-6.9c0.9-4.6,2.2-9,4.4-13.2
		c3.7-7.1,9.4-11,17.4-11.4c3-0.1,6-0.2,8.9,0.3c6.1,0.9,9.3,4.8,9.3,11c0,1.3-0.1,2.6-0.2,3.8c-0.1,1.3-0.3,2.5-0.5,3.8
		c-4.6,0-9.1,0-13.6,0c0.2-1.9,0.4-3.8,0.5-5.7c0.1-1.4-0.1-2.7-1.6-3.3c-1.6-0.6-3.3-0.4-4.4,0.9c-0.9,1.1-1.8,2.4-2.1,3.7
		c-1.2,4.5-2.4,9-3.3,13.5c-0.5,2.1-0.6,4.3-0.7,6.5c-0.1,1.5,0.1,3,1.8,3.7c1.5,0.6,3.6,0,4.8-1.4c1.4-1.7,1.9-3.9,2.5-6
		c0.2-0.9,0.4-1.9,0.6-2.9c4.5,0,9.1,0,13.8,0c-1.7,7.8-4,15.1-12.2,18.5c-4.4,1.8-9,2.1-13.6,1.7
		C-342.1-370-344.1-370.5-346.3-370.9z"/>
	<path class="st0" d="M-681.1-430.6c-4.2,20.3-8.4,40.4-12.6,60.7c-5,0-10.1,0-15.3,0c0.5-2.2,0.9-4.4,1.3-6.5
		c2.8-13.3,5.5-26.6,8.3-39.8c0.9-4.4,1.8-8.8,2.7-13.2c0.2-0.9,0.5-1.1,1.4-1.1C-690.7-430.6-686-430.6-681.1-430.6z"/>
	<path class="st0" d="M-552.8-415.8c-0.2,1.2-0.5,2.3-0.7,3.5c-0.2,1.2-0.4,2.3-0.6,3.6c1.6-2.5,3.4-4.8,5.9-6.4
		c2.6-1.7,5.4-2.2,8.6-1.8c-1,4.7-1.9,9.4-2.9,14c-1.9,0-3.8-0.1-5.6,0c-4.4,0.3-7.1,2.4-8.2,6.6c-1.1,4.1-1.8,8.2-2.7,12.4
		c-1,4.7-1.9,9.3-2.9,14.1c-5.1,0-10.1,0-15.3,0c0.7-3.2,1.3-6.4,2-9.6c2.5-11.8,4.9-23.6,7.4-35.4c0.1-0.6,0.1-1.1,1-1.1
		c4.5,0,9,0,13.5,0C-553.1-415.9-553-415.9-552.8-415.8z"/>
	<path class="st0" d="M-354.3-382.9c3.5,0,6.3,2.8,6.3,6.2c0,3.5-2.8,6.3-6.3,6.3c-3.4,0-6.2-2.8-6.3-6.2
		C-360.6-380.1-357.8-382.9-354.3-382.9z"/>
</g>
<g>
	<path class="st0" d="M377.2-339.8c-10.5,0-20.7,0-31,0c0-42.9,0-85.6,0-128.6c10.2,0,20.4,0,30.9,0c0,9.3,0,18.8,0,28.7
		c1-0.8,1.6-1.2,2.2-1.7c9.4-7.6,22.9-8,31.7-0.8c3.8,3.1,6.2,7.1,6.5,12c0.4,6,0.8,12,0.8,18c0.1,23.3,0,46.6,0,70
		c0,0.8,0,1.5,0,2.4c-10.4,0-20.7,0-31.3,0c0-1,0-1.9,0-2.9c0-25.9-0.1-51.7-0.2-77.6c0-1.6-0.2-3.2-0.5-4.8c-0.4-2.2-1.7-3.4-4-3.5
		c-2.2-0.1-3.9,1-4.2,3.1c-0.5,3.7-0.9,7.5-0.9,11.2c-0.1,23.9,0,47.7,0,71.6C377.2-341.8,377.2-340.9,377.2-339.8z"/>
	<path class="st0" d="M428.6-445.3c10.6,0,20.8,0,31.2,0c0,1.1,0,2,0,3c0.1,25.9,0.1,51.9,0.2,77.8c0,1.5,0.1,2.9,0.3,4.4
		c0.4,2.7,1.7,3.7,4.4,3.7c2.7,0,4-1.1,4.2-3.8c0.2-3.1,0.4-6.3,0.4-9.4c0-24.2,0-48.5,0-72.7c0-0.9,0-1.8,0-2.8
		c10.5,0,20.7,0,31.1,0c0,35.1,0,70.1,0,105.4c-10.5,0-20.9,0-31.6,0c0.1-2.6,0.3-5.1,0.4-8c-0.4,0.3-0.7,0.4-0.8,0.6
		c-6.4,9.5-16.9,11.1-26.5,8.3c-7.7-2.2-12.5-9-13-18.1c-0.3-5.5-0.4-10.9-0.5-16.4c0-23.2,0-46.3,0-69.5
		C428.6-443.7,428.6-444.4,428.6-445.3z"/>
	<path class="st0" d="M670-390.7c-14.1,0-27.4,0-40.5,0c-0.2,0.3-0.4,0.4-0.4,0.6c0.1,9.8,0.1,19.5,0.4,29.3
		c0.1,3.1,1.6,4.3,4.3,4.4c2.8,0.1,4.9-1.3,5.3-4.1c0.5-3.6,0.7-7.2,0.8-10.8c0.1-4.1,0-8.1,0-12.3c10,0,19.6,0,29.6,0
		c-0.1,8.2,0.9,16.4-1.7,24.1c-3.7,11-11.1,18.5-23,20.7c-9.3,1.7-18.4,1.4-27.4-1.9c-11.3-4.2-17.4-12.5-18.9-24.3
		c-0.5-3.7-0.7-7.4-0.7-11c0-13.2-0.1-26.3,0.3-39.5c0.1-4.4,1.1-8.9,2.4-13.1c3.1-9.5,10.5-14.8,19.8-17.3
		c8.8-2.4,17.8-2.2,26.5,0.5c12.2,3.8,19.7,12.1,21.2,24.8C669.4-410.8,669.4-400.9,670-390.7z M638.1-408c0-4.1,0.1-8.1,0-12.1
		c-0.1-2-0.3-4-0.7-5.9c-0.4-1.9-1.9-2.7-3.9-2.6c-1.9,0.1-3.7,0.6-3.9,2.8c-0.4,5.9-0.5,11.8-0.8,17.8
		C632.2-408,635.1-408,638.1-408z"/>
	<path class="st0" d="M256.3-411.8c-8.9,0-17.9,0-27.3,0c0-1.1,0-2.1,0-3.2c-0.1-3.2-0.1-6.5-0.4-9.7c-0.1-2-0.9-3.5-3.2-3.8
		c-2.8-0.4-4.6,0.4-5.7,2.5c-2.2,4.3-0.8,13.3,3.2,16.1c4.9,3.4,10.3,6.2,15.4,9.3c3,1.8,6.1,3.6,9.1,5.4
		c6.9,4.3,10.7,10.5,11.3,18.6c0.5,6.7,0.4,13.4-1.1,20c-1.7,7.5-6.1,12.8-13.2,15.6c-13.6,5.3-27.2,4.8-40.4-1.5
		c-6.5-3.1-10.5-8.4-11.5-15.5c-0.8-6-1.2-12-1.7-18.3c9.7,0,18.7,0,28.1,0c0,0.7,0,1.5,0,2.3c0.2,4.3,0.2,8.6,0.5,12.9
		c0.3,3.2,1.8,4.7,4.5,4.9c3.4,0.1,5.5-1.2,5.7-4.6c0.3-3.8,0.2-7.7-0.3-11.5c-0.2-1.4-1.6-3-2.9-3.8c-5.1-3.3-10.4-6.3-15.6-9.5
		c-3.1-1.9-6.1-3.9-9.1-5.9c-6.4-4.3-10.1-10.3-10.9-17.9c-0.8-6.8-0.6-13.5,1-20.2c1.5-6.5,5.5-11,11.5-13.6
		c13.2-5.5,26.6-5.5,39.8,0.2c3.1,1.4,5.9,3.9,8.4,6.3c2.9,2.8,4.6,6.4,4.6,10.5C256.4-421.6,256.3-416.8,256.3-411.8z"/>
	<path class="st0" d="M336.8-405.8c-10,0-19.6,0-29.6,0c0-1.3,0-2.5,0-3.8c-0.1-5-0.2-10-0.5-15c-0.1-2.1-1.2-3.8-3.7-4.1
		c-2.6-0.3-4.2,0.9-4.6,3.4c-0.3,1.7-0.5,3.4-0.5,5c0,17.8-0.1,35.6,0,53.3c0,2.2,0.4,4.5,1,6.6c0.7,2.7,2.7,4,4.9,3.8
		c2.3-0.2,4-1.6,4.3-4.4c0.5-5.4,0.6-10.9,0.8-16.3c0.1-1.8,0-3.7,0-5.7c9.3,0,18.4,0,27.9,0c-0.2,5.3-0.2,10.5-0.8,15.7
		c-0.4,3.8-1.2,7.7-2.7,11.1c-5.1,11.8-14.7,17.6-27.3,18.2c-5.3,0.3-10.9,0-16.1-1c-12.7-2.5-20.2-11.1-22.1-24.4
		c-0.5-3.7-1-7.5-1-11.2c-0.1-14-0.1-28,0.1-42c0-3.3,0.7-6.7,1.4-10c1.6-7.1,6.3-12,12.4-15.3c13.7-7.4,27.7-7.3,41.3,0.1
		c8.8,4.8,12.7,12.9,13.7,22.5C336.2-415,336.5-410.4,336.8-405.8z"/>
	<path class="st0" d="M512.1-468.5c10.6,0,21.1,0,31.7,0c0,42.9,0,85.7,0,128.6c-10.5,0-21,0-31.7,0
		C512.1-382.7,512.1-425.5,512.1-468.5z"/>
	<path class="st0" d="M587.3-339.8c-10.7,0-21.1,0-31.8,0c0-42.9,0-85.7,0-128.6c10.6,0,21.1,0,31.8,0
		C587.3-425.6,587.3-382.8,587.3-339.8z"/>
	<path class="st0" d="M679.9-339.8c0-35.3,0-70.3,0-105.5c10.4,0,20.6,0,31.1,0c-0.4,4.3-0.7,8.4-1.1,12.6
		c4.4-7.6,9.8-13.7,19.5-14.6c0,12.4,0,24.6,0,36.9c-2.5,0.3-5.1,0.5-7.6,0.9c-6.7,1.2-10.1,4.9-10.2,11.7
		c-0.3,18.4-0.4,36.8-0.5,55.1c0,0.9,0,1.8,0,2.8C700.6-339.8,690.3-339.8,679.9-339.8z"/>
	<path class="st0" d="M730.2-339.4c0-15,0-29.6,0-44.5c14.8,0,29.6,0,44.5,0c0,0.9,0.1,1.6,0.1,2.4c0,13.1,0,26.3,0,39.4
		c0,2.1-0.6,2.7-2.7,2.7c-13.1-0.1-26.2,0-39.3,0C732-339.4,731.2-339.4,730.2-339.4z"/>
	<path class="st0" d="M438-473.1c6.7,0,13.1,0,19.8,0c0,6.8,0,13.5,0,20.4c-6.6,0-13.1,0-19.8,0C438-459.6,438-466.3,438-473.1z"/>
	<path class="st0" d="M491.6-452.5c-1,0-1.8,0-2.6,0c-5.7,0-11.4,0-17.3,0c0-6.9,0-13.6,0-20.5c6.5,0,13.1,0,19.8,0
		C491.6-466.3,491.6-459.6,491.6-452.5z"/>
	<path class="st0" d="M774.6-455.6c0,9.7-7.9,17.6-17.7,17.5c-9.6,0-17.5-7.9-17.5-17.5c0-9.7,7.9-17.6,17.6-17.6
		C766.8-473.2,774.6-465.4,774.6-455.6z M756.7-440.1c8.5,0.2,15.7-6.6,15.9-15.2c0.2-8.5-6.7-15.6-15.3-15.9
		c-8.5-0.3-15.7,6.6-15.9,15.2C741.3-447.4,748-440.4,756.7-440.1z"/>
	<path class="st0" d="M751.1-465c2.7,0,5.3-0.2,7.9,0c3.7,0.3,5.4,1.8,5.7,4.6c0.4,3-0.7,4.6-4.4,6.2c1.5,2.5,2.9,5,4.4,7.7
		c-2,0.6-3.6,0.7-4.5-1.5c-0.6-1.5-1.7-2.8-2.3-4.3c-0.8-1.9-2-2.4-4.1-1.7c0,2.4,0,4.9,0,7.7c-1,0.1-1.8,0.1-2.8,0.2
		C751.1-452.5,751.1-458.6,751.1-465z M753.9-457c2.1,0,3.9,0.2,5.7-0.1c0.8-0.2,1.8-1.3,2.1-2.2c0.4-1.3-0.2-2.6-1.7-2.8
		c-2-0.3-4-0.3-6.1-0.5C753.9-460.5,753.9-458.9,753.9-457z"/>
</g>
<g>
	<path class="st0" d="M204-283.2c1.8-0.5,3.6-1,5.6-1.6c0.5,1.8,0.9,3.5,1.4,5.3c0.2-0.2,0.5-0.4,0.7-0.6c3-2.7,6.4-4.6,10.6-4.5
		c5.2,0.2,9,3.7,9.1,8.9c0.1,8.9,0,17.8,0,26.8c0,0.1,0,0.2-0.1,0.4c-1.8,0-3.6,0-5.6,0c0-0.5,0-1,0-1.4c0-7.7,0-15.4,0-23
		c0-0.8-0.1-1.6-0.1-2.4c-0.1-3-2.6-4.6-5.5-4.3c-3.5,0.4-6.5,2.2-9,4.6c-0.3,0.3-0.4,0.9-0.4,1.4c0,7.9,0,15.8,0,23.6
		c0,0.5,0,0.9,0,1.5c-1.8,0-3.5,0-5.4,0c0-0.5,0-0.9,0-1.4c0-8.8,0-17.7,0-26.5c0-2.2-0.1-4.5-1.3-6.5C204-283,204-283.1,204-283.2z
		"/>
	<path class="st0" d="M381.6-238.5c-2.1-0.3-1.9-2-2.2-3.4c1.6,0.1,3.2,0.4,4.7,0.3c4.1-0.2,7.5-1.8,9.7-5.4c1.1-1.9,1.4-3.9,0.9-6
		c-0.6-2.9-3.1-5-6.6-5c-2.6,0-5.3,0.4-8,0.6c0.5-5.6,1.1-11.6,1.7-17.6c5.3,0,10.6,0,15.9,0c-0.2,1.2-0.4,2.3-0.6,3.5
		c-3.8,0-7.6,0-11.4,0c-0.3,3.5-0.6,6.8-0.9,10.1c1.4,0,2.7,0,4.1,0c2.1,0,4.1,0.5,6,1.5c5,2.8,6.4,9.7,3,14.9
		c-2.4,3.7-6,5.5-10.2,6.3c-0.3,0.1-0.5,0.2-0.7,0.3C385.1-238.5,383.3-238.5,381.6-238.5z"/>
	<path class="st0" d="M244.8-265.3c0,4.5,0.3,8.6,4.4,11.2c3.7,2.4,9.4,2.2,13.2-0.5c0.5-0.3,1-0.7,1.6-1.2c0.7,1.2,1.4,2.3,2.2,3.6
		c-1.1,0.7-2.1,1.5-3.2,2.1c-4.1,2.2-8.5,2.8-13,1.7c-5.2-1.2-8.5-4.6-10.2-9.5c-1.8-5.3-2.1-10.7-0.5-16.1
		c1.7-5.7,5.4-9.8,11.6-10.9c8-1.4,14.7,3.6,15.7,11.7c0.3,2.5,0.4,5,0.6,7.7C259.6-265.3,252.3-265.3,244.8-265.3z M261.1-269.6
		c-0.3-1.9-0.4-3.7-0.8-5.4c-0.7-3.1-3-5-6.2-5.3c-3.6-0.4-6.2,0.9-7.7,3.8c-1.1,2.2-1.5,4.5-1.6,7
		C250.2-269.6,255.5-269.6,261.1-269.6z"/>
	<path class="st0" d="M286.4-263.5c-0.9,1.4-1.7,2.7-2.5,3.9c-2.2,3.4-4.3,6.8-6.5,10.2c-0.4,0.6-0.8,0.9-1.5,0.9
		c-1.8-0.1-3.6,0-5.6,0c0.3-0.5,0.5-0.9,0.7-1.2c3.9-5.8,7.9-11.7,11.9-17.5c0.5-0.7,0.5-1.1,0-1.8c-3.2-4.5-6.3-9-9.4-13.5
		c-0.2-0.3-0.4-0.6-0.8-1.2c2.3,0,4.4,0,6.6,0c0.3,0,0.6,0.5,0.8,0.8c1.9,3.1,3.8,6.3,5.7,9.4c0.2,0.4,0.5,0.7,0.8,1.2
		c0.3-0.5,0.6-1,0.9-1.4c1.8-3.1,3.6-6.1,5.3-9.2c0.4-0.6,0.7-0.9,1.5-0.9c1.8,0.1,3.6,0,5.5,0c-0.3,0.5-0.5,0.8-0.7,1.1
		c-3,4.5-6.1,9.1-9.1,13.6c-0.5,0.7-0.4,1.1,0,1.8c4.1,5.8,8.1,11.7,12.2,17.6c0.2,0.3,0.4,0.6,0.8,1.2c-2.2,0-4.3,0-6.4,0
		c-0.3,0-0.8-0.5-1-0.8c-2.7-4.2-5.4-8.4-8.1-12.6C287.1-262.4,286.8-262.8,286.4-263.5z"/>
	<path class="st0" d="M322.4-252.3c0.2,1,0.5,1.9,0.6,2.9c0,0.3-0.3,0.7-0.5,0.9c-3.1,1.3-6.3,1.6-9.6,0.5c-2.4-0.8-3.7-2.6-4-5
		c-0.1-1.1-0.2-2.1-0.2-3.2c0-7.2,0-14.5,0-21.7c0-0.5,0-0.9,0-1.5c-1.6,0-3,0-4.5,0c0-1.5,0-2.9,0-4.4c1.5,0,3,0,4.5,0
		c0.2-2.5,0.4-4.9,0.5-7.2c0.1-1.1,0.4-1.7,1.6-1.8c1.4-0.2,2.8-0.6,4.3-0.9c-0.2,3.3-0.5,6.6-0.7,10c3.1,0,6,0,9.1,0
		c-0.6,1.5-1,2.8-1.6,4c-0.1,0.3-0.7,0.4-1.1,0.4c-2.1,0-4.2,0-6.5,0c0,0.5-0.1,0.9-0.1,1.4c0,7.2,0,14.3,0,21.5c0,4,1.5,5.4,5.5,5
		C320.6-251.8,321.4-252.1,322.4-252.3z"/>
	<path class="st0" d="M355.8-251.9c5.7,0,11,0,16.6,0c-0.3,1.2-0.5,2.2-0.8,3.3c-6.9,0-13.7,0-20.6,0c0-1-0.1-2,0-3
		c0-0.3,0.4-0.7,0.8-1c3.8-3.2,7.6-6.3,11.4-9.5c1.7-1.4,2.8-3.2,2.9-5.5c0.2-2.7-1.3-4.5-3.9-4.9c-2.4-0.4-4.6,0-6.7,1.1
		c-1.2,0.7-2.3,1.4-3.6,2.2c-0.5-0.7-1.1-1.4-1.7-2.1c4.4-4,9.2-6.1,15.2-4.5c4.9,1.4,7.2,5.9,5,10.6c-0.8,1.7-2,3.4-3.5,4.6
		c-3.2,2.7-6.6,5.2-9.9,7.8C356.7-252.6,356.4-252.3,355.8-251.9z"/>
	<path class="st0" d="M340.3-251.9c1.7,0,3.2,0,4.8,0c0,1.2,0,2.2,0,3.4c-4.7,0-9.3,0-14,0c0-1.1,0-2.1,0-3.3c1.6,0,3.2,0,4.8,0
		c0-6.2,0-12.3,0-18.4c-2.4,1.1-4.7,2.1-7,3.2c-0.2-0.2-0.2-0.2-0.3-0.3c-1-2.1-1-2.1,0.9-3.3c1.9-1.3,3.9-2.5,5.7-3.9
		c1.5-1.2,3.2-1.3,5.1-1.1C340.3-267.8,340.3-259.9,340.3-251.9z"/>
</g>
<g>
	<path class="st0" d="M715.1-284.8c2.2-1.7,4.2-3.3,6.3-4.7c4.7-3.1,10.1-4.5,15.6-5.1c9.4-1.1,18.6,0.1,27.5,3.4
		c9.5,3.6,15.4,10.7,18.1,20.2c3.2,11.4,3.3,23.1-0.3,34.5c-3.7,11.7-11.9,18.8-23.7,21.4c-9.6,2.2-19.3,2.1-29,0.1
		c-5.6-1.2-10.4-4-14.9-8.1c0,1.6,0,3.1,0,4.6c0,3-0.7,3.7-3.7,3.7c-12.5,0-25.1,0-37.6,0c-2.3,0-3.2-0.9-3.2-3.2
		c0-32.8,0-65.5,0-98.3c0-2.8,0.8-3.7,3.6-3.8c3-0.1,5.9,0,8.9,0c9.3,0,18.6,0,27.8,0c0.4,0,0.9,0,1.3,0c2.4,0.2,3.2,1.1,3.2,3.6
		c0,10,0,20,0,30C715.1-286,715.1-285.5,715.1-284.8z M713.7-253c0.1,0,0.1,0,0.2,0c0.1,1.2,0.2,2.5,0.3,3.7
		c0.8,7.3,5.2,11.9,12.5,12.5c6.9,0.6,12.3-2.3,14.4-9.3c1.4-4.4,1.3-9,0.2-13.5c-1.2-5.1-4.5-8.3-9.8-9.1c-1.9-0.3-3.8-0.3-5.8-0.2
		c-5.6,0.4-9.3,3.5-10.9,8.9C714.3-257.7,714.1-255.3,713.7-253z"/>
	<path class="st0" d="M1011.9-223c-0.1,0.1-0.2,0.1-0.3,0.2c-5.3,5.4-12,8-19.4,8.7c-7.2,0.7-14.3,0.7-21.5-0.4
		c-14.4-2.3-23.4-10.5-26.9-24.6c-2.6-10.7-2.4-21.6,0.7-32.2c3.4-11.6,11.2-18.9,23.2-21.5c9.9-2.1,19.9-2.2,29.7,0.4
		c5.3,1.4,10.1,3.9,13.8,8c0.2,0.2,0.4,0.3,0.8,0.6c0-0.6,0.1-1,0.1-1.4c0-1.5,0-3,0-4.5c0-2.4,0.9-3.2,3.3-3.2
		c12.7,0,25.4,0,38.1,0c2.4,0,3.3,0.8,3.3,3.2c0,23.9,0,47.8,0,71.6c0,2.5-0.9,3.3-3.3,3.3c-12.7,0-25.3,0-38,0
		c-2.4,0-3.3-0.9-3.3-3.3c0-1.5,0-3.1-0.1-4.6C1012.1-222.8,1012-222.9,1011.9-223z M999.2-268.1c-0.6,0-1.2,0-1.8,0
		c-5.8,0.3-9.8,3.4-11.4,8.9c-0.9,3.1-1,6.2-0.7,9.4c0.9,8.6,6.4,13.5,15,13.1c4.6-0.2,8.4-2.2,10.6-6.3c3.3-6.2,3.3-12.7,0.3-18.9
		C1008.9-266.8,1004.3-268.2,999.2-268.1z"/>
	<path class="st0" d="M483.5-282.6c3.9-4.9,9-7.8,14.7-9.6c6.5-2,13.2-2.3,19.9-2c4.2,0.2,8.5,0.6,12.6,1.6
		c11,2.5,17.5,9.8,19.7,20.6c1,4.5,1.2,9.3,1.3,13.9c0.2,13.2,0.1,26.5,0.1,39.7c0,0.4,0,0.8,0,1.2c-0.2,1.5-1.1,2.4-2.7,2.4
		c-13.2,0-26.5,0-39.7,0c-1.4,0-2.4-0.9-2.6-2.3c-0.1-0.5,0-0.9,0-1.4c0-11.6,0-23.2,0-34.9c0-1.1-0.1-2.1-0.3-3.2
		c-0.7-3.5-2.9-5.8-6.4-6.7c-3.4-0.8-6.8-0.8-10.1,0.5c-3.6,1.4-5.7,4-5.9,8c-0.1,1.1-0.1,2.1-0.1,3.2c0,10.7,0,21.4,0,32
		c0,0.6,0,1.3-0.1,1.9c-0.3,1.6-1.2,2.3-2.8,2.3c-13,0-25.9,0-38.9,0c-2.3,0-3.4-1.1-3.2-3.4c0-0.5,0-1,0-1.5
		c0-23.2-0.1-46.4-0.1-69.6c0-2,0.9-3.1,2.9-3.1c13,0,26,0,39,0c1.7,0,2.7,1,2.8,2.8c0.1,2.1,0,4.1,0,6.2
		C483.5-283.6,483.5-283.1,483.5-282.6z"/>
	<path class="st0" d="M610.8-212.1c-8.5-0.1-16.9-0.5-25.2-2.5c-7.2-1.7-13.8-4.6-19.3-9.8c-6.3-6-9.6-13.5-10.8-22
		c-1.1-7.7-0.6-15.4,1.6-22.9c3-10.2,9.8-17,19.4-21.2c7-3.1,14.4-4.4,22-4.9c8.3-0.6,16.6-0.6,25,0c7.6,0.5,15,1.9,22.1,5
		c8.9,3.9,15.1,10.3,18.2,19.5c3.5,10.4,4,20.9,0.8,31.4c-3.2,10.5-10.2,17.5-20.1,21.9c-6.1,2.7-12.6,4.1-19.3,4.6
		C620.4-212.4,615.6-212.3,610.8-212.1z M596-253c0.5,2.6,0.9,5.5,1.8,8.2c1.3,4,4.1,6.7,8.3,7.6c2.8,0.6,5.7,0.7,8.6,0.2
		c5.2-1,8.5-4.1,9.9-9.1c1.1-4.2,1.2-8.5,0.3-12.7c-1.1-5-4-8.4-9.3-9.5c-3.1-0.6-6.1-0.7-9.2,0c-4.6,0.9-7.7,3.6-8.9,8.1
		C596.8-258.1,596.5-255.7,596-253z"/>
	<path class="st0" d="M841-266.9c0-16.2,0-32.4,0-48.6c0-1.4,0.2-2.7,1.6-3.3c0.5-0.2,1.1-0.3,1.6-0.3c12.6,0,25.3,0,37.9,0
		c2.9,0,3.9,1.1,3.9,4c0,32.2,0,64.5,0,96.7c0,2.8-0.9,3.7-3.7,3.7c-12.8,0-25.7,0-38.5,0c-1.7,0-2.8-1-2.8-2.8c0-2.7,0-5.4,0-8.1
		C841-239.4,841-253.2,841-266.9z"/>
	<path class="st0" d="M938.4-253.8c0,11.8-0.1,23.6,0,35.4c0,2.6-1.4,3.6-3.6,3.6c-12.8-0.1-25.5,0-38.3,0c-2.2,0-3.2-1-3.2-3.2
		c0-24,0-47.9,0-71.9c0-2.1,0.9-3.1,3-3.1c12.9,0,25.9,0,38.8,0c2.5,0,3.3,0.8,3.3,3.3C938.4-277.7,938.4-265.7,938.4-253.8z"/>
	<path class="st0" d="M788.7-253.9c0-12.1,0-24.2,0-36.3c0-1.7,1-2.8,2.8-2.8c13.2,0,26.4,0,39.6,0c1.7,0,2.5,0.8,2.7,2.5
		c0,0.4,0,0.8,0,1.2c0,23.7,0,47.4,0,71.1c0,1,0.1,2.1-1,2.8c-0.6,0.3-1.2,0.7-1.9,0.7c-13.1,0-26.3,0-39.4,0
		c-1.7,0-2.8-1.2-2.8-2.9C788.8-229.8,788.7-241.9,788.7-253.9z"/>
	<path class="st0" d="M915.9-299.1c-5.9,0-11.8,0-17.8,0c-0.8,0-1.6-0.1-2.4-0.3c-1.2-0.3-1.8-1.1-1.8-2.3c0-5,0-9.9,0-14.9
		c0-1.3,1.2-2.4,2.6-2.6c0.4,0,0.8,0,1.2,0c12.1,0,24.1,0,36.2,0c0.4,0,0.8,0,1.2,0c1.9,0.1,3,1.2,3,3.1c0,4.7,0,9.3,0,14
		c0,1.6-0.8,2.6-2.5,2.9c-0.6,0.1-1.3,0.1-1.9,0.1C927.6-299.1,921.8-299.1,915.9-299.1z"/>
	<path class="st0" d="M811.2-319.2c5.8,0,11.6,0,17.4,0c0.8,0,1.6,0,2.4,0.2c1.6,0.3,2.3,1.2,2.3,2.8c0,4.7,0,9.4,0,14.1
		c0,1.6-0.8,2.6-2.4,2.8c-0.6,0.1-1.3,0.1-1.9,0.1c-11.8,0-23.7,0-35.5,0c-0.6,0-1.1,0-1.7-0.1c-1.8-0.3-2.5-1.1-2.6-2.9
		c0-4.7,0-9.3,0-14c0-2,1.1-3.1,3.1-3.1c5.3,0,10.6,0,15.8,0C809.2-319.2,810.2-319.2,811.2-319.2
		C811.2-319.2,811.2-319.2,811.2-319.2z"/>
	<path class="st0" d="M1046.7-320.5c6.1,0,10.5,4.5,10.5,10.5c-0.1,6.1-4.4,10.5-10.5,10.5c-6.1,0-10.2-4.5-10.1-11
		C1036.7-316.4,1040.9-320.5,1046.7-320.5z M1046.7-300.9c5.4,0,9.1-3.7,9.1-9.2c0-5.3-3.7-9-9.1-9c-5.2,0-8.8,3.7-8.8,9
		C1037.9-304.7,1041.5-300.9,1046.7-300.9z"/>
	<path class="st0" d="M1049.2-309.2c0.9,1.6,1.8,3.1,2.6,4.7c-1.9,0.5-2.1,0.4-3-1.1c-0.4-0.6-0.7-1.3-1.1-1.9
		c-0.9-1.6-0.9-1.6-3-1.3c0,0.7,0,1.5,0,2.2c0,0.7,0,1.4,0,2.2c-0.7,0-1.3,0-2,0c0-3.9,0-7.8,0-11.7c1.8,0,3.7-0.1,5.5,0
		c1.5,0.1,2.8,1,3.1,2.6c0.4,1.6-0.4,2.7-1.6,3.7C1049.7-309.6,1049.5-309.4,1049.2-309.2z M1044.9-310.7c1,0,1.9,0.1,2.8,0
		c1.2-0.1,1.9-1.1,1.8-2.2c-0.1-1.2-1-1.4-1.9-1.4c-0.9,0-1.8,0-2.7,0C1044.9-313.1,1044.9-312,1044.9-310.7z"/>
</g>
<g>
	<path class="st0" d="M906.2-371.6c0-18.7,0-37.3,0-56c0.4,0,0.8,0,1.2,0c8.9,0,17.9,0.1,26.8,0c4,0,7.5,1.3,10.6,3.6
		c3.3,2.5,5.6,5.6,6.1,9.8c0.6,5-0.8,9.2-4.4,12.7c-0.6,0.6-1.4,1-2.2,1.5c0.4,0.1,0.8,0.3,1.3,0.4c3.9,0.8,6.2,3.4,7.2,7
		c1.6,5.8,0.9,11.3-3.2,16.1c-2.1,2.5-4.8,3.4-7.9,3.9c-5.7,1-11.5,1-17.3,1c-5.7,0-11.3,0-17,0
		C907.1-371.6,906.7-371.6,906.2-371.6z M920.7-382.3c0.4,0,0.7,0,1,0c3,0,6,0.1,9,0c1.3,0,2.6-0.2,3.9-0.6c3.9-1.2,5.2-6.6,2.4-9.5
		c-1.5-1.5-3.4-1.9-5.4-1.9c-3.4-0.1-6.8,0-10.2-0.1c-0.2,0-0.4,0-0.7,0.1c0,3.8,0,7.5,0,11.2C920.6-382.8,920.7-382.6,920.7-382.3z
		 M920.1-405.1c2.7,0,5.3,0,7.8,0c1.2,0,2.5-0.1,3.7-0.2c2.9-0.4,4.5-2.1,4.7-5c0.2-2.4-0.7-4.5-3.3-5.4c-0.8-0.3-1.6-0.5-2.5-0.5
		c-3.3-0.1-6.7-0.1-10-0.1c-0.1,0-0.3,0.1-0.4,0.1C920.1-412.5,920.1-408.8,920.1-405.1z"/>
	<path class="st0" d="M1117-426.2c5,0,10,0,15,0c0,7,0,13.9,0,20.8c6,0,11.9,0,17.9,0c0-7.1,0-14,0-21c4.9,0,9.9,0,14.9,0
		c0,18.8,0,37.6,0,56.5c-4.9,0-9.9,0-14.9,0c0-7.6,0-15.2,0-22.7c-6,0-11.9,0-17.8,0c0,7.7,0,15.3,0,22.9c-5.1,0-10,0-15,0
		C1117-388.5,1117-407.3,1117-426.2z"/>
	<path class="st0" d="M1010.2-401.2c0,7-0.5,12-2.5,16.7c-3.4,8.1-9.4,13-18.2,14.3c-5.8,0.8-11.5,0.5-17-1.6
		c-5.4-2.1-9.1-6-11.7-11.1c-2.1-4.1-2.9-8.6-3.2-13.1c-0.3-4.6,0-9.2,1.2-13.7c1.7-6.4,5-11.6,10.7-15.1c3.2-2,6.8-3,10.5-3.3
		c5-0.5,9.9-0.2,14.6,1.6c6.8,2.6,11.3,7.5,13.6,14.3C1009.9-407.6,1010.2-404.7,1010.2-401.2z M971.2-399.4
		c0.2,2.4,0.3,4.3,0.6,6.1c0.6,3.8,2.3,7,5.9,8.8c2.9,1.5,5.9,1.6,9,1c4.4-0.8,7.2-3.3,8.4-7.7c1-3.6,1.1-7.3,0.8-10.9
		c-0.1-1.7-0.5-3.4-1.1-5c-1.6-4.7-5.2-6.9-10-7.3c-5.8-0.6-11.1,2-12.7,8.2C971.7-403.8,971.5-401.3,971.2-399.4z"/>
	<path class="st0" d="M845.6-448.9c27.1-0.2,50.5,22.5,49.7,50.9c-0.6,25.5-21.9,48.2-49.7,48.2c-27.7-0.1-49.9-23.1-49.4-50.6
		C796.7-426.9,819-448.8,845.6-448.9z M845.3-356.2c24.1,0.2,43.5-18.4,43.7-42.9c0.2-24.1-18.7-43.4-43.3-43.4
		c-23.7,0-43.3,18.5-43.1,43.4C802.8-374.5,821.9-356.6,845.3-356.2z"/>
	<path class="st0" d="M1056.6-419.8c-3,3.2-5.9,6.3-8.8,9.4c-2.4-3-5.4-5-9.2-5.6c-1.9-0.3-4-0.2-5.9,0.1c-1.9,0.3-3.2,1.7-3.5,3.7
		c-0.4,3,0.7,5,3.6,5.8c3.5,1,7.1,1.9,10.8,2.7c3.4,0.7,6.5,2.1,9.4,4c1.9,1.2,2.7,3.1,3.7,5c4.6,8.8-0.5,20.9-9.4,24
		c-2,0.7-4.3,1-6.4,1.2c-3.9,0.4-7.8,0.3-11.7-0.6c-5.6-1.3-10.3-4.1-14.2-8.4c-0.3-0.3-0.6-0.7-1-1.1c2.6-2.8,5.2-5.6,7.8-8.4
		c3.5,2.6,7.3,4.6,11.5,5.9c2.6,0.8,5.3,0.7,7.9,0.3c1.9-0.3,3.4-2.1,3.5-3.8c0.2-2.5-0.9-4.7-2.9-5.3c-2.5-0.7-5-1.2-7.6-1.9
		c-5.1-1.3-9.9-3.1-13.9-6.6c-3.8-3.3-5.4-7.4-5.1-12.3c0.3-6.3,3.3-10.9,9-13.8c2.6-1.3,5.2-2.5,8.1-2.9c7.1-0.9,13.8,0.1,19.7,4.7
		C1053.5-422.3,1055-421.1,1056.6-419.8z"/>
	<path class="st0" d="M1112-415.8c-3.9,2.6-7.7,5.2-11.6,7.8c-0.9-0.8-1.7-1.6-2.6-2.4c-0.6-0.6-1.3-1.2-1.9-1.8
		c-2.7-2.8-5.9-3-9.3-1.9c-5.3,1.7-8.2,5.5-8.8,11c-0.4,3.4-0.6,6.7,0.2,10c0.7,3.2,2.3,6,4.4,8.4c1.2,1.3,2.7,2,4.5,2.2
		c4.1,0.5,8.1,0.1,11.6-2.5c1.1-0.8,1.9-1.9,2.9-3c3.2,2.5,6.6,5,10.1,7.7c-2.8,5.3-6.8,9.1-12.6,10.6c-5.5,1.5-11,1.7-16.5,0
		c-6.9-2.1-12-6.4-15.5-12.6c-2.3-4.1-3.8-8.5-4.1-13.2c-0.7-10.1,1.4-19.2,9.4-26.3c5.6-4.9,12-7,19.4-6.2
		c3.8,0.4,7.6,1.1,10.8,3.1C1106.1-422.5,1109.4-419.6,1112-415.8z"/>
	<path class="st0" d="M827.5-431.7c0,5.6,0,11.2,0,16.8c11.9,0,23.7,0,35.5,0c0-5.8,0-11.6,0-17.5c25.3,14.5,27.3,49.5,0.1,66.1
		c0-5.2,0-10.4,0-15.6c-11.9,0-23.7,0-35.6,0c0,4.9,0,9.9,0,15.1c-2-1.6-4-2.9-5.7-4.5c-3.4-3.2-6.4-6.8-8.7-10.9
		c-2.3-4.1-3.5-8.6-4-13.3c-0.4-4.3-0.2-8.5,0.8-12.7c0.7-2.8,1.6-5.5,3.1-8c2-3.4,4.2-6.7,7.1-9.5c2.3-2.1,4.7-4,7.1-6
		C827.3-431.8,827.4-431.7,827.5-431.7z M827.5-388.3c11.6,0,23.2,0,34.8,0c0-6.7,0-13.4,0-20.1c-11.6,0-23.2,0-34.8,0
		C827.5-401.7,827.5-395.1,827.5-388.3z M869.3-379.8c10.7-13,8-30,0-39C869.3-405.9,869.3-392.9,869.3-379.8z M821.1-417.5
		c-8.9,11.7-6.8,27.9,0,36.1C821.1-393.4,821.1-405.4,821.1-417.5z"/>
</g>
<g>
	<path class="st0" d="M1242.6-266.2c0,0.6,0,1.3,0,1.9c0,12,0,23.9,0,35.9c0,1.6-0.4,2.2-2,2.1c-2.7-0.1-5.5-0.1-8.2,0
		c-1.1,0-1.6-0.3-1.6-1.5c0-19.3,0-38.5,0-57.8c0-1.3,0.5-1.6,1.7-1.6c6.2,0,12.4,0.1,18.6,0c1.2,0,1.8,0.5,2.2,1.5
		c4.5,11.2,9,22.3,13.5,33.4c0.3,0.8,0.7,1.6,1.2,2.7c0.4-0.9,0.7-1.4,1-1.9c4.8-11.4,9.6-22.7,14.4-34.1c0.5-1.1,1-1.6,2.3-1.6
		c5.8,0.1,11.6,0.1,17.4,0c1.4,0,1.8,0.5,1.8,1.8c0,19.1,0,38.2,0,57.3c0,1.4-0.5,1.8-1.8,1.8c-4.2-0.1-8.4-0.1-12.6,0
		c-1.7,0-2.2-0.4-2.2-2.1c0.1-12,0-23.9,0-35.9c0-0.6-0.1-1.3-0.1-1.9c-0.2,0-0.3-0.1-0.5-0.1c-0.3,0.6-0.6,1.2-0.9,1.8
		c-5.3,12.3-10.6,24.6-15.9,37c-0.6,1.3-1.3,1.9-2.7,1.8c-2.2-0.1-4.4-0.1-6.5,0c-1.4,0.1-2-0.5-2.5-1.7
		c-5.1-12.3-10.1-24.6-15.2-36.9c-0.3-0.7-0.6-1.3-0.9-1.9C1243-266.3,1242.8-266.3,1242.6-266.2z"/>
	<path class="st0" d="M1386.7-265.1c0,0.7-0.1,1.4-0.1,2.1c0,11.5,0,23.1,0,34.6c0,1.7-0.5,2.2-2.2,2.1c-2.6-0.1-5.1-0.1-7.7,0
		c-1.5,0.1-2-0.4-2-2c0.1-13.6,0-27.3,0-40.9c0-5.3,0-10.7,0-16c0-1.5,0.4-2,2-2c5.3,0.1,10.6,0.1,15.9,0c1.3,0,2,0.4,2.6,1.6
		c6.4,11.7,12.8,23.5,19.2,35.2c0.3,0.6,0.7,1.1,1.4,1.6c0-0.6,0.1-1.2,0.1-1.9c0-11.5,0-22.9,0-34.4c0-1.6,0.5-2.1,2.1-2
		c2.7,0.1,5.5,0.1,8.2,0c1.2,0,1.5,0.4,1.5,1.6c0,19.3,0,38.5,0,57.8c0,1.2-0.4,1.6-1.5,1.6c-5.4,0-10.7-0.1-16.1,0
		c-1.4,0-1.8-0.8-2.3-1.7c-6.6-11.9-13.1-23.8-19.7-35.7c-0.3-0.5-0.6-1-0.9-1.5C1387-265.2,1386.8-265.2,1386.7-265.1z"/>
	<path class="st0" d="M1319.4-256.8c0-9.5,0-18.9,0-28.4c0-1.6,0.4-2.1,2-2.1c13.5,0.1,26.9,0.1,40.4,0c1.5,0,2,0.4,1.9,1.9
		c-0.1,2.4-0.1,4.8,0,7.2c0.1,1.4-0.5,1.8-1.8,1.8c-7.6,0-15.2,0-22.8,0c-2.4,0-2.4,0.1-2.5,2.4c0,3.1,0,6.2,0,9.4
		c0,2.5,0,2.5,2.6,2.5c6.4,0,12.8,0,19.3,0c1.5,0,2,0.4,1.9,1.9c-0.1,2.1-0.1,4.1,0,6.2c0.1,1.3-0.4,1.7-1.7,1.7
		c-6.6-0.1-13.3,0-19.9-0.1c-1.7,0-2.1,0.6-2.1,2.1c0.1,3.5,0.1,7,0,10.5c0,1.5,0.4,2.1,2.1,2.1c7.8-0.1,15.6,0,23.5-0.1
		c1.5,0,2.1,0.4,2,2c-0.1,2.6-0.1,5.2,0,7.8c0,1.2-0.4,1.7-1.7,1.6c-13.9,0-27.7,0-41.6,0c-1.5,0-1.6-0.7-1.6-1.9
		C1319.4-237.7,1319.4-247.3,1319.4-256.8z"/>
	<path class="st0" d="M1192.7-252.4c0,4.8,0,9.2,0,13.7c0,0.3,0.6,0.8,1,1c0.6,0.2,1.2,0.1,1.8,0.1c7.6,0,15.2,0,22.8,0
		c1.5,0,1.9,0.4,1.9,1.9c-0.1,2.7-0.1,5.3,0,8c0,1.2-0.4,1.5-1.6,1.5c-13.9,0-27.7,0-41.6,0c-1.1,0-1.6-0.3-1.6-1.5
		c0-19.3,0-38.5,0-57.8c0-1.1,0.3-1.6,1.5-1.6c13.7,0,27.5,0,41.2,0c1.1,0,1.6,0.3,1.6,1.5c-0.1,2.5-0.1,5,0,7.5
		c0.1,1.4-0.5,1.8-1.8,1.8c-7.7,0-15.3,0-23,0c-2.4,0-2.4,0-2.4,2.4c0,3.3,0.1,6.7,0,10c0,1.4,0.4,1.8,1.8,1.8
		c6.5-0.1,13.1,0,19.6-0.1c1.6,0,2.2,0.3,2.1,2c-0.1,2-0.1,4,0,6c0.1,1.4-0.5,1.8-1.8,1.8c-6.5-0.1-13,0-19.4,0
		C1194.2-252.4,1193.6-252.4,1192.7-252.4z"/>
	<path class="st0" d="M1088.6-239.3c3.4,0.8,6.5,1.7,9.7,2.3c4.3,0.8,8.6,1.3,13,0.5c0.9-0.2,1.9-0.4,2.7-0.8c2-0.8,3.2-2.3,3.4-4.4
		c0.2-2.1-0.8-3.8-2.6-4.7c-3-1.5-6.1-2.8-9.1-4.2c-3-1.4-6.2-2.6-9-4.3c-5.6-3.2-9.1-8-9.4-14.7c-0.3-7.3,3.7-13.2,10.9-16.3
		c6.1-2.6,12.5-3,19-2.4c3.4,0.4,6.8,0.9,10.3,1.4c2.5,0.4,2.5,0.4,2.4,2.9c0,2.7,0,5.5,0,8.2c0,0.1-0.1,0.2-0.2,0.5
		c-2.3-0.7-4.6-1.4-7-2c-4.2-1-8.6-1.8-12.9-0.8c-1.6,0.4-3.2,1.2-4.5,2.3c-1.8,1.5-1.8,4,0,5.6c1,0.9,2.2,1.7,3.5,2.3
		c4.2,2.1,8.5,4,12.6,6.1c2.5,1.3,4.9,2.8,7,4.5c9.4,7.4,7.6,21.4-2.2,27.3c-4.3,2.6-9,3.9-13.9,4.2c-7.4,0.4-14.8,0-22.1-1.8
		c-1.2-0.3-1.5-0.8-1.5-1.9C1088.7-232.5,1088.6-235.8,1088.6-239.3z"/>
	<path class="st0" d="M1441.1-239.3c3.4,0.8,6.5,1.7,9.7,2.3c4.3,0.8,8.6,1.3,13,0.5c0.9-0.2,1.9-0.4,2.7-0.8
		c2.1-0.8,3.3-2.3,3.5-4.5c0.2-2.1-0.9-3.6-2.6-4.5c-2.2-1.2-4.6-2.1-6.8-3.2c-4.4-2.1-9-3.8-13-6.4c-7.7-5-10-14.8-5.7-22.3
		c2.4-4.1,6.1-6.6,10.5-8.1c5.7-2,11.6-2.3,17.5-1.7c3.5,0.4,6.9,1,10.4,1.4c1.5,0.2,2.1,0.8,2,2.4c-0.1,3,0,6,0,9.2
		c-2.5-0.7-4.8-1.4-7.1-2c-4.2-1-8.4-1.8-12.7-0.8c-1.5,0.3-3,1-4.2,1.9c-2.4,1.8-2.4,4.4-0.1,6.3c1.1,0.9,2.4,1.6,3.7,2.2
		c5,2.5,10.2,4.8,15.1,7.6c4.6,2.5,8.3,6.1,9.6,11.5c1.6,6.5-0.9,13.5-6.3,17.5c-4.6,3.4-9.9,5-15.4,5.3c-7.4,0.4-14.7,0-21.9-1.7
		c-1.2-0.3-1.8-0.8-1.7-2.1C1441.2-232.5,1441.1-235.8,1441.1-239.3z"/>
	<path class="st0" d="M1143.3-256.9c0-9.5,0-18.9,0-28.4c0-1.5,0.4-2,2-2c4.6,0.1,9.3,0.1,13.9,0c1.3,0,1.7,0.4,1.7,1.7
		c0,19.2,0,38.3,0,57.5c0,1.3-0.4,1.7-1.7,1.7c-4.7-0.1-9.4-0.1-14.1,0c-1.4,0-1.8-0.4-1.8-1.8
		C1143.3-237.7,1143.3-247.3,1143.3-256.9z"/>
</g>
<g>
	<path class="st0" d="M1517.5-403.8c-7.7,0-15.4,0-23.1,0c0.1-0.3,0.1-0.5,0.2-0.7c1.9-4.7,3.9-9.4,5.7-14.2
		c0.3-0.7,0.6-0.9,1.3-0.9c15.8,0,31.5,0,47.3,0c0.3,0,0.7,0,1.1,0.1c0,23.7,0,47.3,0,70.9c-0.3,0.1-0.5,0.2-0.8,0.3
		c-6.9,2.3-13.8,4.2-21,5.5c-6.2,1.1-12.4,1.8-18.7,2c-3.3,0.1-6.6,0.2-9.9,0.1c-9-0.2-17.7-1.8-26.2-5c-5.1-1.9-9.8-4.4-14.3-7.5
		c-4-2.8-7.7-6-11-9.7c-5.3-5.9-9.4-12.7-12.2-20.1c-2.8-7.5-4.4-15.2-4.8-23.2c-0.3-5.9,0-11.7,0.9-17.5c1.3-8.2,3.8-15.9,7.9-23.2
		c4.1-7.3,9.3-13.6,15.8-18.8c5.9-4.7,12.5-8.3,19.6-10.8c5.7-2,11.5-3.3,17.5-3.9c3-0.3,6-0.4,8.9-0.4c13.7,0,27.4,0,41.1,0
		c0.3,0,0.6,0,1,0c0,0.8-5.3,14.8-6.3,16.7c-0.4,0-0.7,0-1.1,0c-10.6,0-21.2,0-31.8,0c-4.5,0-8.9,0.8-13.1,2.5
		c-4.5,1.8-8.3,4.6-11.6,8.2c-3.1,3.5-5.4,7.5-7.2,11.7c-2.4,5.8-3.8,11.8-4.6,18c-0.8,5.9-1,11.9-0.7,17.9
		c0.3,7.2,1.4,14.3,3.7,21.2c1.8,5.5,4.3,10.7,7.9,15.2c3.2,4,7,7.3,11.6,9.6c3.3,1.7,6.9,2.7,10.6,3.3c4,0.6,8,0.6,12.1,0.4
		c1.4-0.1,2.8-0.4,4.1-0.9C1517.5-372.5,1517.5-388.1,1517.5-403.8z"/>
	<path class="st0" d="M1196.5-341.6c-6.1,0-12,0-18.1,0c0.2-0.5,0.3-0.8,0.4-1.2c2-4.9,3.9-9.9,5.9-14.8c2.7-6.8,5.4-13.7,8.2-20.5
		c3.9-9.7,7.7-19.5,11.6-29.2c4.2-10.6,8.4-21.2,12.6-31.8c2.5-6.2,4.9-12.4,7.4-18.6c0.2-0.5,0.2-1,0-1.5c-2.5-6.4-5-12.9-7.5-19.3
		c-0.2-0.5-0.4-1-0.6-1.6c0.5,0,0.8,0,1.2,0c11.7,0,23.5,0,35.2,0c1.2,0,1,0,1.5,1c2.7,6.9,5.4,13.8,8.1,20.7c3,7.7,6,15.5,9.1,23.2
		c2.5,6.4,5.1,12.9,7.6,19.3c2.9,7.3,5.7,14.6,8.6,21.9c2.5,6.5,5.1,12.9,7.6,19.4c2.5,6.3,5,12.7,7.4,19c1.7,4.4,3.4,8.8,5.2,13.1
		c0.1,0.3,0.2,0.6,0.3,1c-12.5,0-24.9,0-37.4,0c-0.1-0.2-0.2-0.4-0.3-0.7c-2.9-7.4-5.7-14.8-8.6-22.2c-1.2-3.1-2.4-6.2-3.6-9.2
		c-0.4-0.9-0.4-0.9-1.3-0.9c-15.4,0-30.7,0-46.1,0c-1,0-1,0-1.3,0.9c-3.9,9.6-7.7,19.2-11.6,28.8
		C1197.5-343.9,1197-342.8,1196.5-341.6z M1216.3-391c1.4,0.2,34.3,0.2,35,0c-0.1-0.9-16.8-43.5-17.3-44.2
		C1228.1-420.5,1222.2-405.8,1216.3-391z"/>
	<path class="st0" d="M1420.9-480.1c-0.1,0.3-0.1,0.5-0.2,0.8c-1.9,5-3.8,10-5.7,15c-0.2,0.5-0.4,0.8-1,0.7c-0.3,0-0.6,0-0.9,0
		c-17.4,0-34.8,0-52.2,0c-0.5,0-1,0-1.5,0c0,14.7,0,29.3,0,44c0.4,0,0.8,0.1,1.2,0.1c8.4,0,16.9,0,25.3,0c7.5,0,14.9,0,22.4,0
		c0.4,0,0.8,0,1.3,0c-2.2,5.3-4.3,10.5-6.4,15.7c-14.6,0-29.2,0-43.8,0c-0.2,0.8-0.3,44.1-0.1,45.5c2.3,0.1,4.6,0,7,0
		c2.3,0,4.7,0,7,0s4.7,0,7,0s4.7,0,7,0c2.3,0,4.6,0,6.9,0c2.3,0,4.7,0,7,0s4.7,0,7,0s4.7,0,7,0c2.3,0,4.7,0,7.2,0
		c-2.3,5.6-4.6,11.1-6.9,16.6c-30.5,0-60.9,0-91.4,0c0-46.2,0-92.3,0-138.4c0-0.1,0.1-0.1,0.1-0.1c0,0,0.1,0,0.1,0
		c0.1,0,0.3-0.1,0.4-0.1c31.8,0,63.6,0,95.4,0c0.1,0,0.3,0,0.4,0C1420.7-480.2,1420.7-480.1,1420.9-480.1z"/>
</g>
<g>
	<path class="st0" d="M1668.8-180.6c-47.5,0-94.8,0-142.2,0c0-47.1,0-94.1,0-141.2c47.4,0,94.7,0,142.2,0
		C1668.8-274.8,1668.8-227.8,1668.8-180.6z M1617.8-311.1c-0.3,2.4-0.2,118.4,0.1,119.6c19.2-5.6,42.4-26,43.3-57.5
		C1662.3-282.1,1639.1-304.9,1617.8-311.1z M1611.1-189.6c0.3-2.4,0-4.8-0.4-7.2c-1.3-8.7-4.7-16.6-9.9-23.7
		c-7-9.7-16.1-16.8-26.9-21.7c-7.2-3.3-14.8-5.3-22.8-5.6c-5.3-0.2-10.5-0.1-15.8-0.1c-0.4,0-0.7,0.1-1,0.2
		C1535.6-208.8,1575-180.7,1611.1-189.6z M1534.3-254.7c0.4,0,0.8,0.1,1.3,0.1c4.4,0,8.8,0,13.2,0c5.3,0,10.5-0.8,15.6-2.3
		c12.8-3.6,23.6-10.3,32.5-20.2c8-9,13-19.4,14.2-31.5c0.1-1.5,0-3,0-4.5C1571.2-321.8,1535.9-290.5,1534.3-254.7z"/>
	<path class="st0" d="M1746.2-259.1c0,3.9,0,7.5,0,11.3c-9.8,0-19.6,0-29.5,0c-0.1,0.6-0.1,1-0.1,1.5c0,2.5,0,5,0,7.6
		c0,0.7,0,1.3,0.1,2c0.8,5.4,4.3,8.5,9.7,8.5c6.8,0.1,13.7,0,20.5,0c0.6,0,1.2,0,1.9,0c0,3.7,0,7.3,0,11c-0.3,0.1-0.7,0.2-1.1,0.2
		c-8.1,0-16.1,0-24.2-0.1c-3.2,0-6.3-0.9-9.2-2.3c-4.5-2.3-7.3-6-8.8-10.8c-0.9-2.9-1.2-5.9-1.2-8.9c0-15.3,0-30.5,0-45.8
		c0-0.5,0-1.1,0-1.6c1.3-0.4,40.9-0.5,43.3-0.2c0.3,1.2,0.4,8.9,0.1,11.1c-10.4,0-20.7,0-31.2,0c0,5.6,0,11,0,16.7
		C1726.6-259.1,1736.3-259.1,1746.2-259.1z"/>
	<path class="st0" d="M1829.5-239.4c-13.1,0-26.3,0-39.6,0c0,2.5,0.6,4.5,1.7,6.4c1.5,2.7,3.7,4.7,6.6,5.7
		c7.1,2.5,13.8,1.8,19.7-3.3c0.4-0.3,0.8-0.6,1.1-0.9c0,0,0.1,0,0.4-0.1c2.3,2.2,4.6,4.4,7,6.8c-2.2,2.3-4.5,4.2-7.2,5.7
		c-3.8,2.1-7.8,3.1-12.1,3.3c-4.4,0.2-8.8-0.2-12.9-1.7c-8-3-13.2-8.6-15.3-16.9c-1.7-6.9-1.4-13.7,1.6-20.2
		c3.7-8,10.2-12.5,18.8-14.1c4.6-0.8,9.3-0.7,13.8,0.8c8.9,3,14.2,9.3,16.3,18.4C1830.2-245.8,1830.2-242.3,1829.5-239.4z
		 M1817.6-247.9c0-0.6,0-1.2-0.1-1.7c-0.4-2-1.3-3.8-2.8-5.3c-4-4-8.9-4.9-14.2-3.6c-3.9,0.9-7,3-9,6.5c-0.7,1.2-1.1,2.5-1.2,4.1
		C1799.4-247.9,1808.4-247.9,1817.6-247.9z"/>
	<path class="st0" d="M2014-242.3c0.1,12-8,22.5-19.7,25.7c-9.5,2.6-18.4,1-26.2-5.2c-5.5-4.4-8.6-10.2-9.5-17.2
		c-1.8-14.8,8.7-27.7,23.4-29.7c7.9-1,15.2,0.6,21.5,5.5C2010.4-258,2013.8-251,2014-242.3z M1986.1-226.4c8.9,0,15.9-6.9,15.9-15.9
		c0-8.9-7-16-15.9-16c-8.8,0-15.6,6.9-15.8,15.7C1970.2-234.2,1976.5-226.4,1986.1-226.4z"/>
	<path class="st0" d="M2043-267.5c4.1,0,8,0,12.2,0c0,0.8,0,1.6,0,2.3c0,8.6,0,17.1,0,25.7c0,1.1,0,2.3,0.1,3.4
		c0.4,4.8,3.4,8.1,8.1,9c2.1,0.4,4.1,0.4,6.2-0.1c4.5-1,7.5-4.5,7.8-9.3c0.1-1,0.1-2,0.1-3c0-8.7,0-17.4,0-26.1c0-0.6,0-1.3,0-2
		c4.1,0,7.9,0,12,0c0,0.5,0.1,0.9,0.1,1.4c0,10,0.2,20,0,30c-0.2,8.6-4.3,15-12.4,18.2c-7.3,2.9-14.7,2.9-21.9,0
		c-7.3-3-11.2-8.6-12-16.4c-0.2-1.4-0.2-2.8-0.2-4.3c0-9,0-18,0-26.9C2043-266.1,2043-266.7,2043-267.5z"/>
	<path class="st0" d="M2095.4-217.1c6.5-9,12.8-17.8,19.3-26.7c-5.8-7.8-11.5-15.6-17.4-23.7c0.7-0.1,1.1-0.2,1.5-0.2
		c3.3,0,6.7,0,10,0c1,0,1.6,0.3,2.2,1.1c2.9,4.1,5.9,8.1,8.9,12.2c0.4,0.6,0.8,1.1,1.4,1.8c0.5-0.6,0.8-1,1.2-1.5
		c3-4.1,6-8.2,9-12.4c0.7-1,1.4-1.3,2.6-1.3c3.3,0.1,6.6,0,9.9,0c0.4,0,0.8,0.1,1.6,0.1c-5.9,8-11.6,15.7-17.5,23.7
		c6.3,8.8,12.7,17.7,19.2,26.7c-0.7,0.1-1.1,0.1-1.5,0.1c-3.3,0-6.7,0-10,0c-0.9,0-1.5-0.3-2-1.1c-3.7-5.2-7.4-10.3-11.2-15.4
		c-0.3-0.4-0.7-0.8-1.1-1.4c-0.5,0.6-0.8,1-1.2,1.5c-3.7,5.1-7.3,10.1-10.9,15.2c-0.6,0.8-1.2,1.2-2.3,1.2c-3.3-0.1-6.6,0-9.9,0
		C2096.6-217,2096.2-217,2095.4-217.1z"/>
	<path class="st0" d="M1877.2-253c-2.1-2-4.3-3.6-6.9-4.5c-5.8-1.8-11.3-1.4-16.2,2.4c-3.1,2.4-4.9,5.6-5.5,9.4
		c-0.8,4.8,0,9.3,3,13.2c3.3,4.2,7.8,6,13.1,5.9c4.5-0.1,8.4-1.7,11.7-4.9c0.2-0.2,0.3-0.3,0.5-0.4c0,0,0.1,0,0.3-0.1
		c2.4,2.4,4.8,4.9,7.2,7.5c-2.1,2.4-4.5,4.3-7.3,5.7c-12.1,6.4-30.2,3.1-37.8-11.1c-5.3-9.8-4-23,4.3-31.3c6.6-6.6,14.7-9,23.9-8.1
		c6,0.6,11.2,3.1,15.7,7.2c0.4,0.4,0.9,0.7,1.4,1.1C1882.1-258.1,1879.7-255.6,1877.2-253z"/>
	<path class="st0" d="M1892.3-286.7c1.4-0.4,10.4-0.4,12,0c0,6.2,0,12.5,0,19c3.7,0.4,7.3,0,10.9,0.2c0,3.6,0,7.1,0,10.8
		c-3.6,0-7.1,0-10.7,0c-0.1,0.6-0.1,1-0.1,1.4c0,5.5,0,11.1,0,16.6c0,1,0.1,2,0.3,2.9c0.9,4.3,4.2,7.2,8.6,7.5
		c0.7,0,1.4,0.1,2.2,0.1c0,3.7,0,7.4,0,11.1c-0.3,0.1-0.6,0.2-0.8,0.1c-2.8-0.1-5.7-0.3-8.4-1.1c-7.5-2.1-11.8-7.1-13.2-14.6
		c-0.4-2.2-0.6-4.5-0.6-6.7c-0.1-15.2,0-30.3,0-45.5C1892.3-285.4,1892.3-286.1,1892.3-286.7z"/>
	<path class="st0" d="M1758-286.9c3.9,0,7.8,0,11.7,0c0,23.3,0,46.5,0,69.8c-4,0-7.8,0-11.7,0C1757.7-218.3,1757.7-285,1758-286.9z"
		/>
	<path class="st0" d="M2021.7-287c3.9-0.1,7.8,0,11.8,0c0,23.4,0,46.6,0,69.9c-4,0-7.8,0-11.7,0
		C2021.5-218.3,2021.4-284.6,2021.7-287z"/>
	<path class="st0" d="M1956.3-256.9c-0.9-0.1-1.7-0.2-2.6-0.3c-2.5-0.3-4.9-0.1-7.3,0.6c-5.1,1.6-8.4,5.9-8.8,11.7c0,0.7,0,1.3,0,2
		c0,8,0,16,0,24c0,0.6,0,1.2,0,1.8c-4,0-7.8,0-11.6,0c-0.3-1.2-0.5-47.9-0.1-50.2c1.2-0.4,9.7-0.5,11.8-0.1c0,2.1,0,4.3,0,6.5
		c4.6-6.8,11.1-8.4,18.7-7.5C1956.3-264.5,1956.3-260.7,1956.3-256.9z"/>
</g>
<g>
	<path class="st0" d="M1563.7-436.7c109.1,0,218.2,0,327.3,0c0,0.3,0,0.6,0,0.9c0,26.2,0,52.4,0,78.6c0,0.3,0,0.6,0,0.9
		c-109.1,0-218.1,0-327.2,0c0-0.3,0-0.6,0-0.8c0-26.2,0-52.4,0-78.6C1563.7-436.1,1563.7-436.4,1563.7-436.7z M1668.9-423.3
		c-0.2,0-0.4,0-0.6,0c-9.8,0-19.6,0-29.4,0c-0.4,0-0.7,0.2-0.9,0.5c-4.6,6.3-9.2,12.7-13.8,19c-0.2,0.2-0.3,0.5-0.5,0.7
		c-0.2-0.3-0.3-0.5-0.5-0.6c-4.6-6.3-9.2-12.7-13.8-19c-0.3-0.4-0.6-0.5-1-0.5c-11.1,0-22.2,0-33.3,0c-0.2,0-0.5,0-0.7,0
		c0,2.9,0,5.7,0,8.6c2,0,4,0,6,0c0,11.6,0,23.2,0,34.8c-2,0-4,0-6,0c0,2.9,0,5.7,0,8.5c7.3,0,14.6,0,21.9,0c0-2.9,0-5.7,0-8.5
		c-2,0-4,0-6,0c0-7.5,0-14.8,0-22.4c7.6,10.4,15.1,20.7,22.6,31c7.5-10.4,15-20.6,22.5-31c0,7.6,0,15,0,22.4c-2,0-4,0-6,0
		c0,2.9,0,5.7,0,8.5c13.2,0,26.4,0,39.7,0c0-2.9,0-5.7,0-8.5c-2,0-4,0-6,0c0-11.6,0-23.1,0-34.8c2,0,4,0,6,0
		C1668.9-417.6,1668.9-420.4,1668.9-423.3z M1774.6-384.9c-0.2,0-0.3,0-0.4,0c-4.8,0-9.6,0-14.3,0c-0.4,0-0.5,0.2-0.6,0.5
		c-1.9,5.1-7.3,7.8-12.5,6.4c-2.5-0.7-4.4-2-4.9-4.7c-0.3-1.7-0.2-3.5-0.3-5.3c0.4,0,0.7,0,0.9,0c6.9,0,13.8,0,20.7,0
		c3.8,0,7.5,0,11.3,0c0.5,0,0.7-0.1,0.7-0.6c0-0.6,0.1-1.3,0.1-1.9c-0.2-6.9-3-12.5-8.9-16.2c-5.7-3.6-12-5.3-18.7-5.7
		c-5.3-0.3-10.5,0.5-15.5,2.2c-2.9,1-5.7,2-8,4c-5.9,4.9-8.4,11.3-7.1,18.9c1.1,6.5,4.7,11.3,10.7,14.1c5.5,2.5,11.3,3.7,17.3,3.8
		c6.5,0.1,12.7-1.3,18.7-3.9c3.5-1.5,6.5-3.7,8.7-6.9C1773.3-381.7,1774.1-383.2,1774.6-384.9z M1879.2-384.9c-0.3,0-0.6,0-0.8,0
		c-4.6,0-9.1,0-13.7,0c-0.6,0-0.8,0.2-1,0.7c-1.9,5-7.4,7.7-12.6,6.2c-3.1-0.9-4.8-2.8-5-5.6c-0.1-1.4,0-2.8,0-4.2
		c0,0,0-0.1,0.1-0.2c11.1,0,22.2,0,33.3,0c0-0.1,0.1-0.2,0.1-0.3c0.7-7.5-2-13.7-8.2-18c-5.7-3.9-12.3-5.7-19.2-6.1
		c-6.2-0.4-12.2,0.8-18.1,3c-9.5,3.5-14.4,12.9-12.7,21.9c1.2,6.2,4.4,11,10.1,13.9c4.9,2.5,10.3,3.6,15.7,4
		c6.5,0.5,12.7-0.6,18.7-2.9c3.1-1.2,6-2.5,8.4-4.8C1876.5-379.5,1878.1-382,1879.2-384.9z M1812.4-380c0-14.5,0-28.9,0-43.3
		c-11.6,0-23.2,0-34.7,0c0,2.9,0,5.7,0,8.6c2,0,4,0,5.9,0c0,11.6,0,23.2,0,34.8c-2,0-4,0-5.9,0c0,2.9,0,5.7,0,8.5c0.2,0,0.4,0,0.6,0
		c13.2,0,26.4,0,39.7,0c0.5,0,0.7-0.1,0.7-0.6c0-2.4,0-4.9,0-7.4c0-0.2,0-0.4-0.1-0.6C1816.5-380,1814.5-380,1812.4-380z M1708-380
		c0-0.4,0-0.6,0-0.9c0-9.6,0-19.3,0-28.9c0-0.5-0.1-0.7-0.7-0.7c-10.8,0-21.6,0-32.4,0c-0.5,0-0.7,0.1-0.7,0.6c0,2.4,0,4.9,0,7.3
		c0,0.2,0,0.4,0,0.6c2.1,0,4,0,6,0c0,7.3,0,14.6,0,21.9c-2,0-4,0-6.1,0c0,0.3,0,0.4,0,0.6c0,2.4,0,4.9,0,7.3c0,0.5,0.2,0.7,0.7,0.7
		c12.8,0,25.6,0,38.4,0c0.5,0,0.7-0.1,0.7-0.7c0-2.4,0-4.8,0-7.2c0-0.2,0-0.4,0-0.7C1712.1-380,1710.1-380,1708-380z M1690.5-411.4
		c4.2-2.2,8.4-4.4,12.5-6.5c-1.3-2.6-2.6-5-4-7.6c-4.2,2.2-8.3,4.3-12.5,6.5C1687.9-416.5,1689.2-414,1690.5-411.4z"/>
	<path class="st0" d="M1750.1-394.8c-0.3,0-0.5,0-0.7,0c-2.4,0-4.8,0-7.2,0c-0.5,0-0.7-0.1-0.7-0.7c0-1.6,0-3.1,0-4.7
		c0-2.2,1.6-4,3.7-4.3c2.1-0.3,4,1,4.6,3c0.1,0.3,0.1,0.5,0.2,0.8c0,0.3,0,0.5,0,0.8C1750.1-398.1,1750.1-396.5,1750.1-394.8z"/>
	<path class="st0" d="M1854.6-394.8c-2.8,0-5.6,0-8.5,0c0-0.8,0-1.6,0-2.3c0-1.3-0.1-2.6,0.1-3.8c0.3-2.2,2.4-3.6,4.6-3.4
		c2.1,0.2,3.8,2,3.8,4.1c0,1.7,0,3.4,0,5C1854.6-395.1,1854.6-394.9,1854.6-394.8z"/>
</g>
</svg>
