<?xml version="1.0" encoding="utf-8"?>
<!-- Generator: Adobe Illustrator 26.2.1, SVG Export Plug-In . SVG Version: 6.00 Build 0)  -->
<svg version="1.1" id="Vrstva_1" xmlns="http://www.w3.org/2000/svg" xmlns:xlink="http://www.w3.org/1999/xlink" x="0px" y="0px"
	 viewBox="0 0 372 84.8" style="enable-background:new 0 0 372 84.8;" xml:space="preserve">
<style type="text/css">
	.st0{fill:#FFFFFF;}
</style>
<g>
	<g>
		<path class="st0" d="M-1026-23.2v-44.2h9.9V-32h17.5v8.8L-1026-23.2L-1026-23.2z"/>
		<path class="st0" d="M-990-59.5v-10.1h9.5v10.1H-990z M-990-23.2v-32.3h9.5v32.3L-990-23.2L-990-23.2z"/>
		<path class="st0" d="M-971.5-45.6c0.1-6.5,3.7-10.5,13.2-10.5c2.1,0,3.9,0.3,5.5,0.7h10.1v4.5l-3.2,1.2c0.5,1.3,0.8,2.7,0.9,4.2
			v3.9c0,6.2-4.3,10.3-13.2,10.3h-1c-0.7,0.4-1.4,0.9-1.4,1.8c0,0.7,0.5,1.3,1.1,1.3c4.3,0.5,5.6,0.6,8,0.8c5.4,0.5,7.8,2.3,7.8,7.9
			c0,7.8-4.8,10.1-14.9,10.1c-3.2,0-8.6-0.5-12.9-1.7l1.4-7c3.8,0.9,7.8,1.3,10.6,1.3c5,0,7-0.2,7-2.3c0-1.3-0.6-1.6-2.5-1.8
			c-3.7-0.3-4.2-0.4-8.2-0.8c-4.4-0.5-6.9-1.4-6.9-5.8c0-2.6,1.2-4.3,2.8-5.9c-2.8-1.7-4.1-4.4-4.1-8.3V-45.6z M-954-42.2v-3
			c0-2.1-1.1-3.4-4.3-3.4s-4.3,1.3-4.3,3.4v3c0,2.2,1.2,3.2,4.3,3.2C-955.2-39-954-40-954-42.2z"/>
		<path class="st0" d="M-915.8-23.2v-21.3c0-1.5-0.7-2.3-2.3-2.3c-1.7,0-4.9,1.3-7,2.4v21.3h-9.5v-45.5l9.4-1.3v16.8
			c3.9-1.8,7.8-3,11.5-3c5.5,0,7.4,4.1,7.4,10.3v22.6H-915.8z"/>
		<path class="st0" d="M-884.2-22.5c-6.2,0-9.8-2.3-9.8-8.3v-17h-4.4v-7.7h4.4v-7.8l9.5-1.3v9.1h7.4l-0.5,7.7h-6.8v15.6
			c0,1.3,0.8,1.8,2,1.8c1.1,0,2.6-0.1,4-0.6l1.1,7.2C-879.5-23-882-22.5-884.2-22.5z"/>
		<path class="st0" d="M-858-22.5c-3.5,0-8.5-0.9-11.7-1.9l1.5-7.1c2.7,0.8,6.2,1.5,9.8,1.5c2.9,0,3.3-0.8,3.3-2.7
			c0-2-0.1-2.3-5.2-3.6c-7.8-1.9-8.5-4-8.5-10.1c0-6.8,2.6-9.7,12.3-9.7c2.4,0,7,0.3,9.8,1.1l-0.9,7.4c-2.8-0.5-6.4-0.9-8.9-0.9
			c-2.8,0-3.4,0.7-3.4,2.2c0,2,0.3,2.2,4.1,3.1c9.2,2.1,9.9,4,9.9,10.5C-846-26.2-848.7-22.5-858-22.5z"/>
		<path class="st0" d="M-825.2-22.5c-6.2,0-9.8-2.3-9.8-8.3v-17h-4.4v-7.7h4.4v-7.8l9.5-1.3v9.1h7.4l-0.5,7.7h-6.8v15.6
			c0,1.3,0.8,1.8,2,1.8c1.1,0,2.6-0.1,4-0.6l1.1,7.2C-820.4-23-823-22.5-825.2-22.5z"/>
		<path class="st0" d="M-802.4-10.2l3.8-13.1h-3l-9.9-32.3h9.7l6.6,22.9l6.6-22.9h9.7l-10.1,32.3l-4.1,13.1L-802.4-10.2z"/>
		<path class="st0" d="M-771.5-23.2v-45.5l9.5-1.3v46.8H-771.5z"/>
		<path class="st0" d="M-743.2-36v0.9c0,3.7,1.5,4.7,5.8,4.7c3,0,7-0.5,9.8-1.4l1.4,7.2c-2.9,1.1-7.6,2-12.1,2
			c-10.5,0-14.5-5.2-14.5-13.1v-7.6c0-7,3.1-12.9,13.9-12.9s13.1,6.4,13.1,13.4v6.8L-743.2-36L-743.2-36z M-734.8-44.5
			c0-2.2-0.7-4.1-4-4.1c-3.3,0-4.4,1.9-4.4,4.1v1.4h8.4L-734.8-44.5L-734.8-44.5z"/>
	</g>
	<g>
		<path class="st0" d="M-686-49.5v-23.6l2-0.3v23.9H-686z M-674-66.2l-6.7,8.3l7,8.5h-2.5l-6.8-8.5l6.6-8.3H-674z"/>
		<path class="st0" d="M-669.7-69.4v-3.7h2v3.7H-669.7z M-669.7-49.5v-16.8h2v16.8C-667.7-49.4-669.7-49.4-669.7-49.5z"/>
		<path class="st0" d="M-653.3-49.8c-1,0.4-2.3,0.7-3.5,0.7c-2.7,0-3.8-1-3.8-3.6v-11.8h-3.2v-1.7h3.2v-4l2-0.3v4.2h5.1l-0.2,1.7
			h-4.9v11.6c0,1.5,0.2,2.1,1.9,2.1c0.9,0,2-0.2,3-0.5L-653.3-49.8z"/>
		<path class="st0" d="M-648.2-54.8c0,3,1.2,3.9,4.3,3.9c1,0,2.2-0.1,3.6-0.3l0.2,1.7c-1.2,0.3-2.7,0.5-3.8,0.5
			c-4.7,0-6.3-2.2-6.3-5.8v-5.9c0-3.6,1.6-5.8,6.3-5.8c1.1,0,2.6,0.2,3.8,0.5l-0.2,1.7c-1.4-0.2-2.6-0.4-3.6-0.4
			c-3.1,0-4.3,0.9-4.3,3.9V-54.8z"/>
		<path class="st0" d="M-625.1-49.5V-63c0-1.2-0.7-1.7-1.8-1.7c-1.4,0-4.3,0.8-6.4,1.9v13.3h-2v-23.6l2-0.3v8.6
			c1.8-0.9,4.7-1.8,6.7-1.8c2.6,0,3.5,1.5,3.5,3.8v13.3C-623.1-49.4-625.1-49.4-625.1-49.5z"/>
		<path class="st0" d="M-611.9-50.9c1.7,0,3.6-0.3,5.3-0.8l0.3,1.6c-1.5,0.5-3.8,0.9-5.8,0.9c-4.7,0-6.2-2.5-6.2-6.1v-5.3
			c0-3.5,1.5-6.1,6.3-6.1c4.7,0,6.1,2.7,6.1,6.1v3.2h-10.4v2.1C-616.3-52.1-615.2-50.9-611.9-50.9z M-616.3-59h8.4v-1.5
			c0-2.8-1-4.3-4.1-4.3s-4.3,1.5-4.3,4.3V-59z"/>
		<path class="st0" d="M-590.7-49.5V-63c0-1.2-0.7-1.7-1.8-1.7c-1.4,0-4.3,0.8-6.4,1.9v13.3h-2v-16.8h1.8l0.1,1.5
			c1.8-0.9,4.8-1.9,6.8-1.9c2.6,0,3.5,1.5,3.5,3.8v13.3L-590.7-49.5L-590.7-49.5z"/>
		<path class="st0" d="M-665.4-13.7v-13.6c0-1.2-0.7-1.7-1.8-1.7c-1.6,0-4.3,0.8-6.4,1.9v13.3h-2v-13.6c0-1.2-0.6-1.7-1.8-1.7
			c-1.4,0-4.3,0.8-6.4,1.9v13.3h-2v-16.8h1.8l0.1,1.5c1.8-0.9,4.8-1.9,6.8-1.9c1.8,0,2.8,0.7,3.2,1.9c1.9-0.9,5-1.9,7-1.9
			c2.6,0,3.5,1.5,3.5,3.8v13.3H-665.4z"/>
		<path class="st0" d="M-646.6-13.7h-1.7l-0.1-1.3c-1.6,1-3.5,1.7-5.7,1.7c-3,0-4.3-1.7-4.3-4.7c0-3.5,1.6-4.7,4.9-4.7h5v-3.3
			c0-2.3-1.2-3.1-4-3.1c-1.7,0-3.4,0.2-5,0.5l-0.3-1.7c1.3-0.4,3.4-0.7,5.2-0.7c4.3,0,6.1,1.7,6.1,4.9L-646.6-13.7L-646.6-13.7z
			 M-648.6-20.9h-4.9c-2.3,0-3,0.7-3,2.9c0,2,0.4,2.9,2.8,2.9c1.6,0,3.6-0.7,5.1-1.7V-20.9z"/>
		<path class="st0" d="M-630.8-13.7v-13.6c0-1.2-0.6-1.7-1.8-1.7c-1.4,0-4.3,0.8-6.4,1.9v13.3h-2v-16.8h1.8l0.1,1.5
			c1.8-0.9,4.8-1.9,6.8-1.9c2.6,0,3.5,1.5,3.5,3.8v13.3H-630.8z"/>
		<path class="st0" d="M-621.3-30.5v13.6c0,1.2,0.7,1.7,1.8,1.7c1.4,0,4.3-0.8,6.4-1.9v-13.3h2v16.8h-1.8l-0.1-1.5
			c-1.8,0.9-4.8,1.9-6.8,1.9c-2.6,0-3.5-1.5-3.5-3.8v-13.3H-621.3z"/>
		<path class="st0" d="M-596.3-36c-1.1-0.2-2.1-0.3-3-0.3c-1.9,0-2.5,0.7-2.5,2.5v3.3h5.2l-0.2,1.7h-5v15h-2v-15h-3.1v-1.7h3.1V-34
			c0-2.8,1.7-4,4.3-4c1,0,2.5,0.2,3.4,0.5L-596.3-36z"/>
		<path class="st0" d="M-581.7-13.7h-1.7l-0.1-1.3c-1.6,1-3.5,1.7-5.7,1.7c-3,0-4.3-1.7-4.3-4.7c0-3.5,1.6-4.7,4.9-4.7h5v-3.3
			c0-2.3-1.2-3.1-4-3.1c-1.7,0-3.4,0.2-5,0.5l-0.3-1.7c1.3-0.4,3.4-0.7,5.2-0.7c4.3,0,6.1,1.7,6.1,4.9L-581.7-13.7L-581.7-13.7z
			 M-583.7-20.9h-4.9c-2.3,0-3,0.7-3,2.9c0,2,0.4,2.9,2.8,2.9c1.6,0,3.6-0.7,5.1-1.7V-20.9z"/>
		<path class="st0" d="M-575.2-19.1c0,3,1.2,3.9,4.3,3.9c1,0,2.2-0.1,3.6-0.3l0.2,1.7c-1.2,0.3-2.7,0.5-3.8,0.5
			c-4.7,0-6.3-2.2-6.3-5.8V-25c0-3.6,1.6-5.8,6.3-5.8c1.1,0,2.7,0.2,3.8,0.5l-0.2,1.7c-1.4-0.2-2.6-0.3-3.6-0.3
			c-3.1,0-4.3,0.9-4.3,3.9V-19.1z"/>
		<path class="st0" d="M-553.8-14c-1,0.4-2.3,0.7-3.5,0.7c-2.7,0-3.8-1-3.8-3.6v-11.8h-3.2v-1.7h3.2v-4l2-0.3v4.2h5.1l-0.2,1.7h-4.9
			v11.6c0,1.5,0.2,2.1,1.9,2.1c0.9,0,2-0.2,3-0.5L-553.8-14z"/>
		<path class="st0" d="M-547.8-30.5v13.6c0,1.2,0.6,1.7,1.8,1.7c1.4,0,4.3-0.8,6.4-1.9v-13.3h2v16.8h-1.8l-0.1-1.5
			c-1.8,0.9-4.8,1.9-6.8,1.9c-2.6,0-3.5-1.5-3.5-3.8v-13.3H-547.8z"/>
		<path class="st0" d="M-524.4-28.8c-1.8,0.8-3.7,2-5.3,3.1v12h-2v-16.8h1.8l0.1,2.5c1.8-1.2,3.6-2.3,5.2-2.9L-524.4-28.8z"/>
		<path class="st0" d="M-515.4-15.1c1.7,0,3.7-0.3,5.3-0.8l0.3,1.6c-1.5,0.6-3.8,0.9-5.8,0.9c-4.7,0-6.2-2.4-6.2-6.1v-5.3
			c0-3.4,1.5-6.1,6.3-6.1c4.7,0,6.1,2.7,6.1,6.1v3.2h-10.4v2.1C-519.8-16.4-518.8-15.1-515.4-15.1z M-519.8-23.3h8.4v-1.5
			c0-2.8-1-4.3-4.1-4.3s-4.3,1.5-4.3,4.3V-23.3L-519.8-23.3z"/>
	</g>
	<rect x="-705.5" y="-83.6" class="st0" width="1.6" height="83.6"/>
</g>
<g>
	<path class="st0" d="M-784.1,195.2c-12.7,0-25.5,0-38.2,0c-2.6,0-5-0.5-7.1-2.1c-3.4-2.6-4.5-6.2-3.7-10.3
		c1.8-8.4,3.7-16.7,5.6-25.1c3.2-14.1,6.4-28.3,9.6-42.4c0.3-1.4,0-1.3,1.6-1.3c25.5,0,51,0,76.5,0c2.8,0,5.5,0.6,7.7,2.5
		c2.5,2.2,3.7,5,3.3,8.2c-0.3,2.9-1.1,5.8-1.7,8.7c-3.4,15.3-6.9,30.7-10.3,46c-1.1,5-2.3,10-3.4,15c-0.2,0.7-0.6,0.8-1.1,0.8
		C-758.2,195.2-771.2,195.2-784.1,195.2z M-792.5,146.7c0.3,0,0.5,0.1,0.6,0.1c3.6,0,7.3,0,10.9,0c0.6,0,0.8-0.3,0.9-0.8
		c0.4-2,0.9-4,1.1-6.1c0.5-5.4-1.5-9.7-7.6-11.1c-3.4-0.8-6.7-0.7-10.1-0.2c-3.4,0.5-6.5,1.9-9.1,4.3c-2.5,2.4-4.2,5.4-5.5,8.6
		c-1.9,4.5-3.1,9.3-4,14.1c-0.9,4.6-1.9,9.1-1.4,13.8c0.4,4.5,2.4,7.5,7,8.8c3,0.8,6.1,0.9,9.1,0.6c7.3-0.7,12.5-4.3,15.5-11
		c1.2-2.7,1.8-5.6,2.4-8.5c0.2-1,0.2-1-0.8-1c-3.1,0-6.1,0-9.2,0c-2.1,0-2.1,0-2.6,2.1c0,0.2-0.1,0.4-0.1,0.5
		c-0.7,2.2-1.3,4.4-2.1,6.5c-0.3,0.8-0.9,1.7-1.7,2.2c-2,1.6-4.5,0.6-4.8-1.9c-0.1-1.1-0.1-2.2,0.1-3.3c1.2-7.3,2.8-14.5,4.9-21.6
		c0.4-1.5,1.1-2.9,1.9-4.2c0.9-1.4,2.3-1.9,3.9-1.6c1.1,0.2,1.7,0.8,1.8,1.9c0.1,0.9,0,1.8-0.1,2.7
		C-791.7,143.3-792.1,145-792.5,146.7z M-783.9,177.9c0.3,0,0.5,0.1,0.7,0.1c9.6,0,19.1,0,28.7,0c0.6,0,0.8-0.2,0.9-0.8
		c0.3-1.4,0.6-2.8,0.9-4.2c0.4-1.8,0.8-3.5,1.2-5.4c-5.2,0-10.2,0-15.5,0c0.3-0.4,0.4-0.6,0.6-0.9c7-9.2,13.9-18.4,20.9-27.6
		c0.3-0.4,0.5-0.9,0.7-1.4c0.5-2,1-4.1,1.4-6.2c0.2-0.7,0.3-1.4,0.4-2.2c-0.5,0-0.8,0-1.1,0c-8.9,0-17.9,0-26.8,0
		c-1.3,0-1.1-0.1-1.4,1.2c-0.2,1-0.5,2.1-0.7,3.1c-0.4,2-0.9,3.9-1.4,6.1c4.7,0,9.4,0,14.2,0c-0.3,0.4-0.4,0.6-0.5,0.8
		c-6.7,9-13.5,18-20.2,27c-0.6,0.9-1.1,1.7-1.3,2.8c-0.2,1.1-0.5,2.2-0.7,3.4C-783.3,175-783.6,176.4-783.9,177.9z"/>
	<path class="st0" d="M-911.5,148.4c0.2-0.2,0.3-0.4,0.5-0.6c2.4-3.1,4.7-6.3,7.1-9.4c0.3-0.4,0.6-0.5,1.1-0.5c4.2,0,8.4,0,12.6,0
		c0.3,0,0.6,0,0.9,0c0.6-3,1.3-6,1.9-9c3.4,0,6.8,0,10.2,0c-0.6,3-1.2,5.9-1.9,8.9c1.3,0,2.6,0,4,0c-0.5,2.3-0.9,4.6-1.4,6.9
		c-1.3,0-2.7,0-4.1,0c-0.5,2.4-1,4.8-1.5,7.2c-0.5,2.4-1,4.8-1.5,7.3c-0.1,0.3-0.1,0.7-0.1,1c0,0.9,0.3,1.4,1.2,1.5
		c0.8,0.1,1.5,0.1,2.4,0.2c-0.3,1.5-0.6,3-0.9,4.5c-0.1,0.5-0.2,0.9-0.3,1.4c-0.1,0.6-0.3,1-1,1c-2.7,0-5.4,0.2-8.1,0
		c-3.9-0.2-4.7-2.4-4.1-5.7c1-5.6,2.2-11.1,3.3-16.6c0.1-0.5,0.2-1.1,0.3-1.7c-1.1,0-2.2,0-3.4,0c0.4-2.2,0.9-4.3,1.3-6.3
		c0,0-0.1-0.1-0.1-0.1c-0.7,0.8-1.5,1.7-2.2,2.5c-2.7,3-5.3,6.1-8,9.1c-0.4,0.5-0.5,0.9-0.3,1.5c1.8,5.5,3.6,11,5.3,16.5
		c0.1,0.2,0.1,0.5,0.2,0.8c-0.3,0-0.6,0-0.8,0c-3.1,0-6.2,0-9.3,0c-0.6,0-0.8-0.1-1-0.7c-0.9-3.1-1.8-6.3-2.7-9.4
		c0-0.1-0.1-0.2-0.1-0.4c-1.4,1.4-2.5,2.7-2.8,4.7c-0.2,1.9-0.7,3.9-1.1,5.8c-3.4,0-6.8,0-10.2,0c2.8-13.5,5.6-27,8.4-40.6
		c3.4,0,6.8,0,10.2,0c-1.4,6.8-2.8,13.5-4.2,20.2C-911.6,148.4-911.6,148.4-911.5,148.4z"/>
	<path class="st0" d="M-658.8,137.2c-0.2,1.2-0.5,2.4-0.7,3.6c0,0,0.1,0,0.1,0.1c0.2-0.2,0.3-0.4,0.5-0.6c2.8-3.7,7.3-4.5,11.1-3.4
		c1.7,0.5,2.7,1.7,3.2,3.4c0.1,0.3,0.1,0.5,0.2,0.8c0.7-0.7,1.3-1.6,2.1-2.2c2.9-2.4,6.2-2.9,9.8-2c2.7,0.7,3.9,3.1,3.4,6.1
		c-0.7,4.1-1.5,8.1-2.4,12.2c-0.8,4-1.7,8.1-2.5,12.1c-0.1,0.3-0.1,0.5-0.2,0.8c-3.4,0-6.7,0-10.2,0c0.4-1.9,0.7-3.7,1.1-5.5
		c1-5,2.1-10,3.1-14.9c0.1-0.7,0.2-1.6,0-2.3c-0.1-0.4-0.6-0.9-1-1.1c-1.5-0.5-2.9,0.1-3.5,1.6c-0.5,1.3-0.8,2.6-1,3.9
		c-1.3,6.1-2.5,12.2-3.8,18.3c-3.4,0-6.8,0-10.2,0c0.3-1.7,0.7-3.4,1-5.1c1.1-5.2,2.2-10.5,3.3-15.7c0-0.2,0-0.5,0.1-0.7
		c0-1.5-0.2-2.1-1.1-2.3c-1.2-0.4-2.7,0-3.2,1c-0.5,1.1-0.9,2.4-1.2,3.6c-1.3,6.2-2.6,12.5-3.9,18.7c0,0.2-0.3,0.5-0.5,0.5
		c-3.2,0-6.5,0-9.8,0c2.1-10.3,4.3-20.6,6.4-30.8C-665.4,137.2-662.1,137.2-658.8,137.2z"/>
	<path class="st0" d="M-847.2,169.5c-2,0-4.1-0.2-6.1-1c-2.7-1.1-4.2-3.3-4.3-6.1c-0.3-6,1-11.9,3.5-17.3c2.4-5,6.6-7.5,12.1-7.9
		c2.2-0.2,4.4-0.1,6.6,0.5c3.8,1,5.8,3.5,5.8,7.5c0,5.3-1,10.5-3.1,15.3C-835.4,166.8-840.4,169.6-847.2,169.5z M-847.8,160.1
		c0.1,0,0.1,0,0.2,0c0,0.4,0,0.8,0,1.2c0.1,0.7,0.4,1.3,1.2,1.6c1.2,0.3,2.4-0.1,3-1.1c0.4-0.7,0.9-1.5,1.1-2.3
		c0.8-3.4,1.6-6.7,2.3-10.1c0.2-1.2,0.3-2.4,0.3-3.6c0-1.7-1-2.3-2.6-2c-1.2,0.3-1.8,1.1-2.1,2.1c-0.7,1.9-1.3,3.9-1.7,5.9
		C-846.8,154.5-847.3,157.3-847.8,160.1z"/>
	<path class="st0" d="M-691.3,168.9c-2.1,0-4.2-0.2-6.1-1c-2.8-1.1-4.3-3.2-4.4-6.1c-0.3-6,0.9-11.7,3.4-17.2
		c2.3-4.9,6.3-7.6,11.7-8.1c2.2-0.2,4.4-0.2,6.6,0.3c4,0.9,6.2,3.4,6.2,7.5c0,5.9-1.1,11.6-3.8,16.9c-2.3,4.5-6.1,6.9-11.2,7.4
		C-689.7,168.8-690.5,168.8-691.3,168.9z M-692,159.4c0.1,0,0.1,0,0.2,0c0,0.4,0,0.9,0,1.3c0.1,0.9,0.7,1.5,1.5,1.6
		c1.2,0.1,2.2-0.2,2.8-1.3c0.3-0.6,0.6-1.2,0.8-1.8c1.2-3.8,2-7.7,2.6-11.7c0.1-1,0.1-2.1,0-3.2c0-0.7-0.6-1.1-1.3-1.2
		c-1-0.2-2,0.1-2.6,1c-0.4,0.5-0.7,1-0.9,1.6c-0.6,1.8-1.1,3.6-1.5,5.4C-691,153.8-691.5,156.6-692,159.4z"/>
	<path class="st0" d="M-969.1,158c-0.3,5-4.4,9.8-9.5,11c-3.6,0.8-7.3,0.9-10.8-0.3c-2.8-0.9-4.4-3-4.6-6
		c-0.4-6.4,0.9-12.5,3.7-18.2c2.3-4.7,6.3-7,11.5-7.3c2.3-0.2,4.6-0.1,6.8,0.5c3,0.9,4.8,3.2,5.1,6.3c0.4,3.6-0.5,7.1-1.2,10.6
		c-0.1,0.5-0.5,0.4-0.9,0.4c-4.5,0-9,0-13.5,0c-0.3,0-0.6,0-1.1,0c-0.3,1.9-0.7,3.8-0.9,5.7c-0.1,1,0.1,2,1.2,2.4
		c1.1,0.4,2.3,0.2,3-0.7c0.7-0.8,1.1-1.9,1.5-2.9c0.2-0.5,0.3-1,0.4-1.6C-975.2,158-972.2,158-969.1,158z M-982.2,149.5
		c1.8,0,3.6,0,5.3,0c0.1,0,0.4-0.2,0.4-0.4c0.2-1.3,0.5-2.5,0.5-3.8c0-1.1-0.6-1.8-1.6-2c-1.1-0.2-2.2,0.1-2.9,1
		C-981.6,145.8-981.8,147.6-982.2,149.5z"/>
	<path class="st0" d="M-941.2,155c-0.3,1.9-0.7,3.8-0.9,5.7c-0.1,1,0.1,1.9,1.2,2.4c1,0.4,2.4,0.1,3.1-0.8c0.6-0.8,1-1.8,1.5-2.8
		c0.2-0.5,0.3-1,0.4-1.6c3,0,6.1,0,9.1,0c-0.4,5.4-4.9,10.2-10.3,11.2c-3.2,0.5-6.4,0.6-9.5-0.3c-3.1-0.9-4.8-3.1-5.1-6.3
		c-0.4-3.8,0.4-7.5,1.3-11.2c0.7-3.1,1.7-6,3.6-8.7c2.2-3.1,5.2-4.9,9-5.4c2.7-0.4,5.5-0.4,8.2,0.3c3.1,0.9,4.8,3.1,5.2,6.3
		c0.4,3.6-0.5,7.1-1.2,10.6c-0.1,0.6-0.5,0.4-0.9,0.4c-4.5,0-9,0-13.6,0C-940.5,155-940.8,155-941.2,155z M-939.9,149.5
		c1.8,0,3.6,0,5.3,0c0.2,0,0.5-0.2,0.5-0.4c0.2-1.2,0.5-2.5,0.5-3.7c0.1-1.2-0.6-1.9-1.8-2.1c-1.2-0.1-2.3,0.2-3,1.3
		C-939.4,146.1-939.6,147.7-939.9,149.5z"/>
	<path class="st0" d="M-725.1,168c2.7-4.6,0.2-9.3-4.3-10.4c0.3-1.5,0.5-3.1,0.8-4.6c0.6-3.1,1.5-6,2.9-8.8
		c2.5-4.7,6.3-7.4,11.6-7.6c2-0.1,4-0.1,6,0.2c4.1,0.6,6.2,3.2,6.2,7.3c0,0.9-0.1,1.7-0.1,2.6c-0.1,0.8-0.2,1.7-0.3,2.6
		c-3.1,0-6.1,0-9.1,0c0.1-1.3,0.2-2.6,0.3-3.8c0-0.9-0.1-1.8-1.1-2.2c-1.1-0.4-2.2-0.3-2.9,0.6c-0.6,0.7-1.2,1.6-1.4,2.5
		c-0.8,3-1.6,6-2.2,9.1c-0.3,1.4-0.4,2.9-0.5,4.4c0,1,0.1,2,1.2,2.5c1,0.4,2.4,0,3.2-0.9c1-1.2,1.3-2.6,1.6-4
		c0.2-0.6,0.3-1.3,0.4-1.9c3,0,6.1,0,9.2,0c-1.1,5.2-2.7,10.1-8.1,12.4c-2.9,1.2-6,1.4-9.1,1.1C-722.3,168.6-723.6,168.3-725.1,168z
		"/>
	<path class="st0" d="M-949.2,128.1c-2.8,13.6-5.6,27.1-8.4,40.6c-3.4,0-6.8,0-10.2,0c0.3-1.5,0.6-2.9,0.9-4.4
		c1.8-8.9,3.7-17.8,5.5-26.7c0.6-2.9,1.2-5.9,1.8-8.8c0.1-0.6,0.3-0.7,0.9-0.7C-955.6,128.1-952.4,128.1-949.2,128.1z"/>
	<path class="st0" d="M-863.3,137.9c-0.2,0.8-0.3,1.6-0.5,2.3c-0.2,0.8-0.3,1.6-0.4,2.4c1.1-1.7,2.3-3.2,4-4.3
		c1.7-1.1,3.6-1.4,5.8-1.2c-0.7,3.2-1.3,6.3-1.9,9.4c-1.3,0-2.5-0.1-3.7,0c-2.9,0.2-4.7,1.6-5.5,4.4c-0.7,2.7-1.2,5.5-1.8,8.3
		c-0.7,3.1-1.3,6.3-2,9.4c-3.4,0-6.8,0-10.2,0c0.4-2.2,0.9-4.3,1.3-6.4c1.6-7.9,3.3-15.8,4.9-23.7c0.1-0.4,0.1-0.7,0.6-0.7
		c3,0,6,0,9.1,0C-863.5,137.9-863.4,137.9-863.3,137.9z"/>
	<path class="st0" d="M-730.4,160c2.3,0,4.2,1.9,4.2,4.1c0,2.3-1.9,4.2-4.2,4.2c-2.3,0-4.2-1.8-4.2-4.2
		C-734.7,161.8-732.8,160-730.4,160z"/>
</g>
<g>
	<path class="st0" d="M127,81.5c-6.4,0-12.5,0-18.7,0c0-25.8,0-51.6,0-77.5c6.1,0,12.3,0,18.6,0c0,5.6,0,11.3,0,17.3
		c0.6-0.5,1-0.7,1.3-1c5.7-4.6,13.8-4.8,19.1-0.5c2.3,1.9,3.7,4.3,3.9,7.2c0.2,3.6,0.5,7.2,0.5,10.8c0.1,14,0,28.1,0,42.1
		c0,0.5,0,0.9,0,1.4c-6.3,0-12.5,0-18.8,0c0-0.6,0-1.2,0-1.7c0-15.6,0-31.2-0.1-46.7c0-1-0.1-1.9-0.3-2.9c-0.2-1.3-1-2-2.4-2.1
		c-1.3-0.1-2.4,0.6-2.6,1.9c-0.3,2.2-0.6,4.5-0.6,6.8c0,14.4,0,28.7,0,43.1C127,80.3,127,80.8,127,81.5z"/>
	<path class="st0" d="M158,17.9c6.4,0,12.5,0,18.8,0c0,0.6,0,1.2,0,1.8c0,15.6,0.1,31.2,0.1,46.9c0,0.9,0.1,1.8,0.2,2.6
		c0.2,1.6,1,2.3,2.6,2.2c1.6,0,2.4-0.7,2.5-2.3c0.1-1.9,0.2-3.8,0.3-5.7c0-14.6,0-29.2,0-43.8c0-0.5,0-1.1,0-1.7
		c6.3,0,12.5,0,18.7,0c0,21.1,0,42.3,0,63.5c-6.3,0-12.6,0-19,0c0.1-1.5,0.2-3.1,0.3-4.8c-0.3,0.2-0.4,0.3-0.5,0.3
		c-3.8,5.7-10.2,6.7-16,5c-4.6-1.3-7.5-5.4-7.8-10.9c-0.2-3.3-0.3-6.6-0.3-9.9c0-14,0-27.9,0-41.9C158,18.9,158,18.5,158,17.9z"/>
	<path class="st0" d="M303.4,50.8c-8.5,0-16.5,0-24.4,0c-0.1,0.2-0.2,0.3-0.2,0.3c0.1,5.9,0.1,11.8,0.2,17.6c0.1,1.9,1,2.6,2.6,2.7
		c1.7,0.1,2.9-0.8,3.2-2.5c0.3-2.1,0.4-4.3,0.5-6.5c0.1-2.4,0-4.9,0-7.4c6,0,11.8,0,17.8,0c-0.1,4.9,0.6,9.9-1,14.5
		c-2.2,6.6-6.7,11.1-13.9,12.5c-5.6,1-11.1,0.9-16.5-1.1c-6.8-2.5-10.5-7.6-11.4-14.6c-0.3-2.2-0.4-4.4-0.4-6.7
		c0-7.9-0.1-15.8,0.2-23.8c0.1-2.6,0.6-5.4,1.5-7.9c1.9-5.7,6.3-8.9,12-10.4c5.3-1.4,10.7-1.3,16,0.3c7.3,2.3,11.9,7.3,12.8,14.9
		C303.1,38.7,303.1,44.7,303.4,50.8z M284.2,40.4c0-2.5,0-4.9,0-7.3c0-1.2-0.2-2.4-0.4-3.6c-0.3-1.2-1.2-1.6-2.3-1.5
		c-1.1,0.1-2.3,0.4-2.3,1.7c-0.2,3.5-0.3,7.1-0.5,10.7C280.7,40.4,282.4,40.4,284.2,40.4z"/>
	<path class="st0" d="M54.2,38.1c-5.4,0-10.8,0-16.4,0c0-0.6,0-1.3,0-1.9c-0.1-1.9-0.1-3.9-0.2-5.8c-0.1-1.2-0.5-2.1-2-2.3
		c-1.7-0.2-2.8,0.2-3.4,1.5c-1.3,2.6-0.5,8,1.9,9.7c2.9,2.1,6.2,3.7,9.3,5.6c1.8,1.1,3.7,2.1,5.5,3.3c4.2,2.6,6.4,6.3,6.8,11.2
		c0.3,4,0.2,8-0.7,12c-1,4.5-3.7,7.7-7.9,9.4c-8.2,3.2-16.4,2.9-24.3-0.9c-3.9-1.9-6.3-5-6.9-9.3c-0.5-3.6-0.7-7.3-1-11
		c5.8,0,11.3,0,16.9,0c0,0.4,0,0.9,0,1.4c0.1,2.6,0.1,5.2,0.3,7.8c0.2,2,1.1,2.9,2.7,2.9c2.1,0.1,3.3-0.7,3.5-2.8
		c0.2-2.3,0.1-4.6-0.2-6.9c-0.1-0.8-1-1.8-1.8-2.3c-3.1-2-6.3-3.8-9.4-5.7c-1.9-1.1-3.7-2.3-5.5-3.5c-3.8-2.6-6.1-6.2-6.6-10.8
		c-0.5-4.1-0.3-8.1,0.6-12.2c0.9-3.9,3.3-6.7,6.9-8.2c8-3.3,16-3.3,24,0.1c1.9,0.8,3.6,2.3,5.1,3.8c1.7,1.7,2.7,3.9,2.8,6.3
		C54.3,32.2,54.2,35.1,54.2,38.1z"/>
	<path class="st0" d="M102.7,41.7c-6,0-11.8,0-17.9,0c0-0.8,0-1.5,0-2.3c-0.1-3-0.1-6-0.3-9c-0.1-1.3-0.7-2.3-2.2-2.5
		c-1.5-0.2-2.5,0.5-2.8,2.1c-0.2,1-0.3,2-0.3,3c0,10.7,0,21.4,0,32.1c0,1.3,0.2,2.7,0.6,4c0.4,1.6,1.6,2.4,2.9,2.3
		c1.4-0.1,2.4-1,2.6-2.7c0.3-3.3,0.4-6.6,0.5-9.8c0-1.1,0-2.2,0-3.4c5.6,0,11.1,0,16.8,0c-0.1,3.2-0.1,6.3-0.5,9.4
		c-0.3,2.3-0.7,4.6-1.6,6.7c-3.1,7.1-8.8,10.6-16.4,10.9c-3.2,0.2-6.5,0-9.7-0.6c-7.6-1.5-12.2-6.7-13.3-14.7
		c-0.3-2.2-0.6-4.5-0.6-6.8c-0.1-8.4,0-16.9,0.1-25.3c0-2,0.4-4.1,0.9-6c0.9-4.3,3.8-7.2,7.5-9.2c8.3-4.5,16.7-4.4,24.9,0.1
		c5.3,2.9,7.7,7.8,8.2,13.6C102.4,36.2,102.5,38.9,102.7,41.7z"/>
	<path class="st0" d="M208.3,3.9c6.4,0,12.7,0,19.1,0c0,25.8,0,51.6,0,77.5c-6.3,0-12.7,0-19.1,0C208.3,55.7,208.3,29.9,208.3,3.9z"
		/>
	<path class="st0" d="M253.6,81.5c-6.4,0-12.7,0-19.1,0c0-25.8,0-51.6,0-77.5c6.4,0,12.7,0,19.1,0C253.6,29.8,253.6,55.6,253.6,81.5
		z"/>
	<path class="st0" d="M309.4,81.5c0-21.2,0-42.3,0-63.5c6.2,0,12.4,0,18.7,0c-0.2,2.6-0.4,5.1-0.6,7.6c2.6-4.6,5.9-8.3,11.7-8.8
		c0,7.4,0,14.8,0,22.2c-1.5,0.2-3.1,0.3-4.6,0.5c-4,0.7-6.1,3-6.2,7c-0.2,11.1-0.2,22.1-0.3,33.2c0,0.5,0,1.1,0,1.7
		C321.8,81.5,315.7,81.5,309.4,81.5z"/>
	<path class="st0" d="M339.7,81.7c0-9,0-17.8,0-26.8c8.9,0,17.8,0,26.8,0c0,0.5,0.1,1,0.1,1.4c0,7.9,0,15.8,0,23.8
		c0,1.3-0.4,1.6-1.6,1.6c-7.9-0.1-15.8,0-23.7,0C340.8,81.7,340.3,81.7,339.7,81.7z"/>
	<path class="st0" d="M163.7,1.2c4,0,7.9,0,11.9,0c0,4.1,0,8.1,0,12.3c-4,0-7.9,0-11.9,0C163.7,9.3,163.7,5.3,163.7,1.2z"/>
	<path class="st0" d="M196,13.6c-0.6,0-1.1,0-1.5,0c-3.4,0-6.9,0-10.4,0c0-4.1,0-8.2,0-12.3c3.9,0,7.9,0,11.9,0
		C196,5.3,196,9.3,196,13.6z"/>
	<path class="st0" d="M366.4,11.7c0,5.9-4.8,10.6-10.7,10.6c-5.8,0-10.5-4.8-10.6-10.5c0-5.9,4.7-10.6,10.6-10.6
		C361.8,1.1,366.5,5.8,366.4,11.7z M355.7,21c5.1,0.1,9.5-4,9.6-9.2c0.1-5.1-4-9.4-9.2-9.6c-5.1-0.2-9.4,4-9.6,9.2
		C346.4,16.7,350.4,20.9,355.7,21z"/>
	<path class="st0" d="M352.3,6c1.6,0,3.2-0.1,4.8,0c2.2,0.2,3.2,1.1,3.5,2.8c0.2,1.8-0.4,2.8-2.6,3.7c0.9,1.5,1.7,3,2.7,4.7
		c-1.2,0.4-2.1,0.4-2.7-0.9c-0.4-0.9-1-1.7-1.4-2.6c-0.5-1.1-1.2-1.4-2.5-1c0,1.5,0,3,0,4.6c-0.6,0-1.1,0.1-1.7,0.1
		C352.3,13.6,352.3,9.9,352.3,6z M354,10.9c1.2,0,2.4,0.1,3.4-0.1c0.5-0.1,1.1-0.8,1.2-1.4c0.3-0.8-0.1-1.5-1-1.7
		c-1.2-0.2-2.4-0.2-3.7-0.3C354,8.8,354,9.7,354,10.9z"/>
</g>
<g>
	<path class="st0" d="M166.6-283.2c1.8-0.5,3.6-1,5.6-1.6c0.5,1.8,0.9,3.5,1.4,5.3c0.2-0.2,0.5-0.4,0.7-0.6c3-2.7,6.4-4.6,10.6-4.5
		c5.2,0.2,9,3.7,9.1,8.9c0.1,8.9,0,17.8,0,26.8c0,0.1,0,0.2-0.1,0.4c-1.8,0-3.6,0-5.6,0c0-0.5,0-1,0-1.4c0-7.7,0-15.4,0-23
		c0-0.8-0.1-1.6-0.1-2.4c-0.1-3-2.6-4.6-5.5-4.3c-3.5,0.4-6.5,2.2-9,4.6c-0.3,0.3-0.4,0.9-0.4,1.4c0,7.9,0,15.8,0,23.6
		c0,0.5,0,0.9,0,1.5c-1.8,0-3.5,0-5.4,0c0-0.5,0-0.9,0-1.4c0-8.8,0-17.7,0-26.5c0-2.2-0.1-4.5-1.3-6.5
		C166.6-283,166.6-283.1,166.6-283.2z"/>
	<path class="st0" d="M344.3-238.5c-2.1-0.3-1.9-2-2.2-3.4c1.6,0.1,3.2,0.4,4.7,0.3c4.1-0.2,7.5-1.8,9.7-5.4c1.1-1.9,1.4-3.9,0.9-6
		c-0.6-2.9-3.1-5-6.6-5c-2.6,0-5.3,0.4-8,0.6c0.5-5.6,1.1-11.6,1.7-17.6c5.3,0,10.6,0,15.9,0c-0.2,1.2-0.4,2.3-0.6,3.5
		c-3.8,0-7.6,0-11.4,0c-0.3,3.5-0.6,6.8-0.9,10.1c1.4,0,2.7,0,4.1,0c2.1,0,4.1,0.5,6,1.5c5,2.8,6.4,9.7,3,14.9
		c-2.4,3.7-6,5.5-10.2,6.3c-0.3,0.1-0.5,0.2-0.7,0.3C347.8-238.5,346-238.5,344.3-238.5z"/>
	<path class="st0" d="M207.5-265.3c0,4.5,0.3,8.6,4.4,11.2c3.7,2.4,9.4,2.2,13.2-0.5c0.5-0.3,1-0.7,1.6-1.2c0.7,1.2,1.4,2.3,2.2,3.6
		c-1.1,0.7-2.1,1.5-3.2,2.1c-4.1,2.2-8.5,2.8-13,1.7c-5.2-1.2-8.5-4.6-10.2-9.5c-1.8-5.3-2.1-10.7-0.5-16.1
		c1.7-5.7,5.4-9.8,11.6-10.9c8-1.4,14.7,3.6,15.7,11.7c0.3,2.5,0.4,5,0.6,7.7C222.2-265.3,214.9-265.3,207.5-265.3z M223.8-269.6
		c-0.3-1.9-0.4-3.7-0.8-5.4c-0.7-3.1-3-5-6.2-5.3c-3.6-0.4-6.2,0.9-7.7,3.8c-1.1,2.2-1.5,4.5-1.6,7
		C212.9-269.6,218.2-269.6,223.8-269.6z"/>
	<path class="st0" d="M249.1-263.5c-0.9,1.4-1.7,2.7-2.5,3.9c-2.2,3.4-4.3,6.8-6.5,10.2c-0.4,0.6-0.8,0.9-1.5,0.9
		c-1.8-0.1-3.6,0-5.6,0c0.3-0.5,0.5-0.9,0.7-1.2c3.9-5.8,7.9-11.7,11.9-17.5c0.5-0.7,0.5-1.1,0-1.8c-3.2-4.5-6.3-9-9.4-13.5
		c-0.2-0.3-0.4-0.6-0.8-1.2c2.3,0,4.4,0,6.6,0c0.3,0,0.6,0.5,0.8,0.8c1.9,3.1,3.8,6.3,5.7,9.4c0.2,0.4,0.5,0.7,0.8,1.2
		c0.3-0.5,0.6-1,0.9-1.4c1.8-3.1,3.6-6.1,5.3-9.2c0.4-0.6,0.7-0.9,1.5-0.9c1.8,0.1,3.6,0,5.5,0c-0.3,0.5-0.5,0.8-0.7,1.1
		c-3,4.5-6.1,9.1-9.1,13.6c-0.5,0.7-0.4,1.1,0,1.8c4.1,5.8,8.1,11.7,12.2,17.6c0.2,0.3,0.4,0.6,0.8,1.2c-2.2,0-4.3,0-6.4,0
		c-0.3,0-0.8-0.5-1-0.8c-2.7-4.2-5.4-8.4-8.1-12.6C249.8-262.4,249.5-262.8,249.1-263.5z"/>
	<path class="st0" d="M285.1-252.3c0.2,1,0.5,1.9,0.6,2.9c0,0.3-0.3,0.7-0.5,0.9c-3.1,1.3-6.3,1.6-9.6,0.5c-2.4-0.8-3.7-2.6-4-5
		c-0.1-1.1-0.2-2.1-0.2-3.2c0-7.2,0-14.5,0-21.7c0-0.5,0-0.9,0-1.5c-1.6,0-3,0-4.5,0c0-1.5,0-2.9,0-4.4c1.5,0,3,0,4.5,0
		c0.2-2.5,0.4-4.9,0.5-7.2c0.1-1.1,0.4-1.7,1.6-1.8c1.4-0.2,2.8-0.6,4.3-0.9c-0.2,3.3-0.5,6.6-0.7,10c3.1,0,6,0,9.1,0
		c-0.6,1.5-1,2.8-1.6,4c-0.1,0.3-0.7,0.4-1.1,0.4c-2.1,0-4.2,0-6.5,0c0,0.5-0.1,0.9-0.1,1.4c0,7.2,0,14.3,0,21.5c0,4,1.5,5.4,5.5,5
		C283.3-251.8,284.1-252.1,285.1-252.3z"/>
	<path class="st0" d="M318.5-251.9c5.7,0,11,0,16.6,0c-0.3,1.2-0.5,2.2-0.8,3.3c-6.9,0-13.7,0-20.6,0c0-1-0.1-2,0-3
		c0-0.3,0.4-0.7,0.8-1c3.8-3.2,7.6-6.3,11.4-9.5c1.7-1.4,2.8-3.2,2.9-5.5c0.2-2.7-1.3-4.5-3.9-4.9c-2.4-0.4-4.6,0-6.7,1.1
		c-1.2,0.7-2.3,1.4-3.6,2.2c-0.5-0.7-1.1-1.4-1.7-2.1c4.4-4,9.2-6.1,15.2-4.5c4.9,1.4,7.2,5.9,5,10.6c-0.8,1.7-2,3.4-3.5,4.6
		c-3.2,2.7-6.6,5.2-9.9,7.8C319.4-252.6,319.1-252.3,318.5-251.9z"/>
	<path class="st0" d="M303-251.9c1.7,0,3.2,0,4.8,0c0,1.2,0,2.2,0,3.4c-4.7,0-9.3,0-14,0c0-1.1,0-2.1,0-3.3c1.6,0,3.2,0,4.8,0
		c0-6.2,0-12.3,0-18.4c-2.4,1.1-4.7,2.1-7,3.2c-0.2-0.2-0.2-0.2-0.3-0.3c-1-2.1-1-2.1,0.9-3.3c1.9-1.3,3.9-2.5,5.7-3.9
		c1.5-1.2,3.2-1.3,5.1-1.1C303-267.8,303-259.9,303-251.9z"/>
</g>
<g>
	<path class="st0" d="M677.8-284.8c2.2-1.7,4.2-3.3,6.3-4.7c4.7-3.1,10.1-4.5,15.6-5.1c9.4-1.1,18.6,0.1,27.5,3.4
		c9.5,3.6,15.4,10.7,18.1,20.2c3.2,11.4,3.3,23.1-0.3,34.5c-3.7,11.7-11.9,18.8-23.7,21.4c-9.6,2.2-19.3,2.1-29,0.1
		c-5.6-1.2-10.4-4-14.9-8.1c0,1.6,0,3.1,0,4.6c0,3-0.7,3.7-3.7,3.7c-12.5,0-25.1,0-37.6,0c-2.3,0-3.2-0.9-3.2-3.2
		c0-32.8,0-65.5,0-98.3c0-2.8,0.8-3.7,3.6-3.8c3-0.1,5.9,0,8.9,0c9.3,0,18.6,0,27.8,0c0.4,0,0.9,0,1.3,0c2.4,0.2,3.2,1.1,3.2,3.6
		c0,10,0,20,0,30C677.8-286,677.8-285.5,677.8-284.8z M676.4-253c0.1,0,0.1,0,0.2,0c0.1,1.2,0.2,2.5,0.3,3.7
		c0.8,7.3,5.2,11.9,12.5,12.5c6.9,0.6,12.3-2.3,14.4-9.3c1.4-4.4,1.3-9,0.2-13.5c-1.2-5.1-4.5-8.3-9.8-9.1c-1.9-0.3-3.8-0.3-5.8-0.2
		c-5.6,0.4-9.3,3.5-10.9,8.9C677-257.7,676.8-255.3,676.4-253z"/>
	<path class="st0" d="M974.6-223c-0.1,0.1-0.2,0.1-0.3,0.2c-5.3,5.4-12,8-19.4,8.7c-7.2,0.7-14.3,0.7-21.5-0.4
		c-14.4-2.3-23.4-10.5-26.9-24.6c-2.6-10.7-2.4-21.6,0.7-32.2c3.4-11.6,11.2-18.9,23.2-21.5c9.9-2.1,19.9-2.2,29.7,0.4
		c5.3,1.4,10.1,3.9,13.8,8c0.2,0.2,0.4,0.3,0.8,0.6c0-0.6,0.1-1,0.1-1.4c0-1.5,0-3,0-4.5c0-2.4,0.9-3.2,3.3-3.2
		c12.7,0,25.4,0,38.1,0c2.4,0,3.3,0.8,3.3,3.2c0,23.9,0,47.8,0,71.6c0,2.5-0.9,3.3-3.3,3.3c-12.7,0-25.3,0-38,0
		c-2.4,0-3.3-0.9-3.3-3.3c0-1.5,0-3.1-0.1-4.6C974.7-222.8,974.6-222.9,974.6-223z M961.9-268.1c-0.6,0-1.2,0-1.8,0
		c-5.8,0.3-9.8,3.4-11.4,8.9c-0.9,3.1-1,6.2-0.7,9.4c0.9,8.6,6.4,13.5,15,13.1c4.6-0.2,8.4-2.2,10.6-6.3c3.3-6.2,3.3-12.7,0.3-18.9
		C971.6-266.8,967-268.2,961.9-268.1z"/>
	<path class="st0" d="M446.2-282.6c3.9-4.9,9-7.8,14.7-9.6c6.5-2,13.2-2.3,19.9-2c4.2,0.2,8.5,0.6,12.6,1.6
		c11,2.5,17.5,9.8,19.7,20.6c1,4.5,1.2,9.3,1.3,13.9c0.2,13.2,0.1,26.5,0.1,39.7c0,0.4,0,0.8,0,1.2c-0.2,1.5-1.1,2.4-2.7,2.4
		c-13.2,0-26.5,0-39.7,0c-1.4,0-2.4-0.9-2.6-2.3c-0.1-0.5,0-0.9,0-1.4c0-11.6,0-23.2,0-34.9c0-1.1-0.1-2.1-0.3-3.2
		c-0.7-3.5-2.9-5.8-6.4-6.7c-3.4-0.8-6.8-0.8-10.1,0.5c-3.6,1.4-5.7,4-5.9,8c-0.1,1.1-0.1,2.1-0.1,3.2c0,10.7,0,21.4,0,32
		c0,0.6,0,1.3-0.1,1.9c-0.3,1.6-1.2,2.3-2.8,2.3c-13,0-25.9,0-38.9,0c-2.3,0-3.4-1.1-3.2-3.4c0-0.5,0-1,0-1.5
		c0-23.2-0.1-46.4-0.1-69.6c0-2,0.9-3.1,2.9-3.1c13,0,26,0,39,0c1.7,0,2.7,1,2.8,2.8c0.1,2.1,0,4.1,0,6.2
		C446.2-283.6,446.2-283.1,446.2-282.6z"/>
	<path class="st0" d="M573.5-212.1c-8.5-0.1-16.9-0.5-25.2-2.5c-7.2-1.7-13.8-4.6-19.3-9.8c-6.3-6-9.6-13.5-10.8-22
		c-1.1-7.7-0.6-15.4,1.6-22.9c3-10.2,9.8-17,19.4-21.2c7-3.1,14.4-4.4,22-4.9c8.3-0.6,16.6-0.6,25,0c7.6,0.5,15,1.9,22.1,5
		c8.9,3.9,15.1,10.3,18.2,19.5c3.5,10.4,4,20.9,0.8,31.4c-3.2,10.5-10.2,17.5-20.1,21.9c-6.1,2.7-12.6,4.1-19.3,4.6
		C583.1-212.4,578.3-212.3,573.5-212.1z M558.7-253c0.5,2.6,0.9,5.5,1.8,8.2c1.3,4,4.1,6.7,8.3,7.6c2.8,0.6,5.7,0.7,8.6,0.2
		c5.2-1,8.5-4.1,9.9-9.1c1.1-4.2,1.2-8.5,0.3-12.7c-1.1-5-4-8.4-9.3-9.5c-3.1-0.6-6.1-0.7-9.2,0c-4.6,0.9-7.7,3.6-8.9,8.1
		C559.5-258.1,559.2-255.7,558.7-253z"/>
	<path class="st0" d="M803.7-266.9c0-16.2,0-32.4,0-48.6c0-1.4,0.2-2.7,1.6-3.3c0.5-0.2,1.1-0.3,1.6-0.3c12.6,0,25.3,0,37.9,0
		c2.9,0,3.9,1.1,3.9,4c0,32.2,0,64.5,0,96.7c0,2.8-0.9,3.7-3.7,3.7c-12.8,0-25.7,0-38.5,0c-1.7,0-2.8-1-2.8-2.8c0-2.7,0-5.4,0-8.1
		C803.7-239.4,803.7-253.2,803.7-266.9z"/>
	<path class="st0" d="M901.1-253.8c0,11.8-0.1,23.6,0,35.4c0,2.6-1.4,3.6-3.6,3.6c-12.8-0.1-25.5,0-38.3,0c-2.2,0-3.2-1-3.2-3.2
		c0-24,0-47.9,0-71.9c0-2.1,0.9-3.1,3-3.1c12.9,0,25.9,0,38.8,0c2.5,0,3.3,0.8,3.3,3.3C901.1-277.7,901.1-265.7,901.1-253.8z"/>
	<path class="st0" d="M751.4-253.9c0-12.1,0-24.2,0-36.3c0-1.7,1-2.8,2.8-2.8c13.2,0,26.4,0,39.6,0c1.7,0,2.5,0.8,2.7,2.5
		c0,0.4,0,0.8,0,1.2c0,23.7,0,47.4,0,71.1c0,1,0.1,2.1-1,2.8c-0.6,0.3-1.2,0.7-1.9,0.7c-13.1,0-26.3,0-39.4,0
		c-1.7,0-2.8-1.2-2.8-2.9C751.4-229.8,751.4-241.9,751.4-253.9z"/>
	<path class="st0" d="M878.6-299.1c-5.9,0-11.8,0-17.8,0c-0.8,0-1.6-0.1-2.4-0.3c-1.2-0.3-1.8-1.1-1.8-2.3c0-5,0-9.9,0-14.9
		c0-1.3,1.2-2.4,2.6-2.6c0.4,0,0.8,0,1.2,0c12.1,0,24.1,0,36.2,0c0.4,0,0.8,0,1.2,0c1.9,0.1,3,1.2,3,3.1c0,4.7,0,9.3,0,14
		c0,1.6-0.8,2.6-2.5,2.9c-0.6,0.1-1.3,0.1-1.9,0.1C890.3-299.1,884.4-299.1,878.6-299.1z"/>
	<path class="st0" d="M773.8-319.2c5.8,0,11.6,0,17.4,0c0.8,0,1.6,0,2.4,0.2c1.6,0.3,2.3,1.2,2.3,2.8c0,4.7,0,9.4,0,14.1
		c0,1.6-0.8,2.6-2.4,2.8c-0.6,0.1-1.3,0.1-1.9,0.1c-11.8,0-23.7,0-35.5,0c-0.6,0-1.1,0-1.7-0.1c-1.8-0.3-2.5-1.1-2.6-2.9
		c0-4.7,0-9.3,0-14c0-2,1.1-3.1,3.1-3.1c5.3,0,10.6,0,15.8,0C771.9-319.2,772.9-319.2,773.8-319.2
		C773.8-319.2,773.8-319.2,773.8-319.2z"/>
	<path class="st0" d="M1009.4-320.5c6.1,0,10.5,4.5,10.5,10.5c-0.1,6.1-4.5,10.5-10.5,10.5c-6.1,0-10.2-4.5-10.1-11
		C999.3-316.4,1003.6-320.5,1009.4-320.5z M1009.4-300.9c5.4,0,9.1-3.7,9.1-9.2c0-5.3-3.7-9-9.1-9c-5.2,0-8.8,3.7-8.8,9
		C1000.6-304.7,1004.2-300.9,1009.4-300.9z"/>
	<path class="st0" d="M1011.9-309.2c0.9,1.6,1.8,3.1,2.6,4.7c-1.9,0.5-2.1,0.4-3-1.1c-0.4-0.6-0.7-1.3-1.1-1.9
		c-0.9-1.6-0.9-1.6-3-1.3c0,0.7,0,1.5,0,2.2c0,0.7,0,1.4,0,2.2c-0.7,0-1.3,0-2,0c0-3.9,0-7.8,0-11.7c1.8,0,3.7-0.1,5.5,0
		c1.5,0.1,2.8,1,3.1,2.6c0.4,1.6-0.4,2.7-1.6,3.7C1012.4-309.6,1012.2-309.4,1011.9-309.2z M1007.5-310.7c1,0,1.9,0.1,2.8,0
		c1.2-0.1,1.9-1.1,1.8-2.2c-0.1-1.2-1-1.4-1.9-1.4c-0.9,0-1.8,0-2.7,0C1007.5-313.1,1007.5-312,1007.5-310.7z"/>
</g>
<g>
	<path class="st0" d="M868.9-371.6c0-18.7,0-37.3,0-56c0.4,0,0.8,0,1.2,0c8.9,0,17.9,0.1,26.8,0c4,0,7.5,1.3,10.6,3.6
		c3.3,2.5,5.6,5.6,6.1,9.8c0.6,5-0.8,9.2-4.4,12.7c-0.6,0.6-1.4,1-2.2,1.5c0.4,0.1,0.8,0.3,1.3,0.4c3.9,0.8,6.2,3.4,7.2,7
		c1.6,5.8,0.9,11.3-3.2,16.1c-2.1,2.5-4.8,3.4-7.9,3.9c-5.7,1-11.5,1-17.3,1c-5.7,0-11.3,0-17,0
		C869.8-371.6,869.4-371.6,868.9-371.6z M883.4-382.3c0.4,0,0.7,0,1,0c3,0,6,0.1,9,0c1.3,0,2.6-0.2,3.9-0.6c3.9-1.2,5.2-6.6,2.4-9.5
		c-1.5-1.5-3.4-1.9-5.4-1.9c-3.4-0.1-6.8,0-10.2-0.1c-0.2,0-0.4,0-0.7,0.1c0,3.8,0,7.5,0,11.2C883.3-382.8,883.3-382.6,883.4-382.3z
		 M882.8-405.1c2.7,0,5.3,0,7.8,0c1.2,0,2.5-0.1,3.7-0.2c2.9-0.4,4.5-2.1,4.7-5c0.2-2.4-0.7-4.5-3.3-5.4c-0.8-0.3-1.6-0.5-2.5-0.5
		c-3.3-0.1-6.7-0.1-10-0.1c-0.1,0-0.3,0.1-0.4,0.1C882.8-412.5,882.8-408.8,882.8-405.1z"/>
	<path class="st0" d="M1079.6-426.2c5,0,10,0,15,0c0,7,0,13.9,0,20.8c6,0,11.9,0,17.9,0c0-7.1,0-14,0-21c4.9,0,9.9,0,14.9,0
		c0,18.8,0,37.6,0,56.5c-4.9,0-9.9,0-14.9,0c0-7.6,0-15.2,0-22.7c-6,0-11.9,0-17.8,0c0,7.7,0,15.3,0,22.9c-5.1,0-10,0-15,0
		C1079.6-388.5,1079.6-407.3,1079.6-426.2z"/>
	<path class="st0" d="M972.9-401.2c0,7-0.5,12-2.5,16.7c-3.4,8.1-9.4,13-18.2,14.3c-5.8,0.8-11.5,0.5-17-1.6
		c-5.4-2.1-9.1-6-11.7-11.1c-2.1-4.1-2.9-8.6-3.2-13.1c-0.3-4.6,0-9.2,1.2-13.7c1.7-6.4,5-11.6,10.7-15.1c3.2-2,6.8-3,10.5-3.3
		c5-0.5,9.9-0.2,14.6,1.6c6.8,2.6,11.3,7.5,13.6,14.3C972.6-407.6,972.9-404.7,972.9-401.2z M933.9-399.4c0.2,2.4,0.3,4.3,0.6,6.1
		c0.6,3.8,2.3,7,5.9,8.8c2.9,1.5,5.9,1.6,9,1c4.4-0.8,7.2-3.3,8.4-7.7c1-3.6,1.1-7.3,0.8-10.9c-0.1-1.7-0.5-3.4-1.1-5
		c-1.6-4.7-5.2-6.9-10-7.3c-5.8-0.6-11.1,2-12.7,8.2C934.4-403.8,934.2-401.3,933.9-399.4z"/>
	<path class="st0" d="M808.3-448.9c27.1-0.2,50.5,22.5,49.7,50.9c-0.6,25.5-21.9,48.2-49.7,48.2c-27.7-0.1-49.9-23.1-49.4-50.6
		C759.4-426.9,781.7-448.8,808.3-448.9z M808-356.2c24.1,0.2,43.5-18.4,43.7-42.9c0.2-24.1-18.7-43.4-43.3-43.4
		c-23.7,0-43.3,18.5-43.1,43.4C765.5-374.5,784.6-356.6,808-356.2z"/>
	<path class="st0" d="M1019.3-419.8c-3,3.2-5.9,6.3-8.8,9.4c-2.4-3-5.4-5-9.2-5.6c-1.9-0.3-4-0.2-5.9,0.1c-1.9,0.3-3.2,1.7-3.5,3.7
		c-0.4,3,0.7,5,3.6,5.8c3.5,1,7.1,1.9,10.8,2.7c3.4,0.7,6.5,2.1,9.4,4c1.9,1.2,2.7,3.1,3.7,5c4.6,8.8-0.5,20.9-9.4,24
		c-2,0.7-4.3,1-6.4,1.2c-3.9,0.4-7.8,0.3-11.7-0.6c-5.6-1.3-10.3-4.1-14.2-8.4c-0.3-0.3-0.6-0.7-1-1.1c2.6-2.8,5.2-5.6,7.8-8.4
		c3.5,2.6,7.3,4.6,11.5,5.9c2.6,0.8,5.3,0.7,7.9,0.3c1.9-0.3,3.4-2.1,3.5-3.8c0.2-2.5-0.9-4.7-2.9-5.3c-2.5-0.7-5-1.2-7.6-1.9
		c-5.1-1.3-9.9-3.1-13.9-6.6c-3.8-3.3-5.4-7.4-5.1-12.3c0.3-6.3,3.3-10.9,9-13.8c2.6-1.3,5.2-2.5,8.1-2.9c7.1-0.9,13.8,0.1,19.7,4.7
		C1016.2-422.3,1017.7-421.1,1019.3-419.8z"/>
	<path class="st0" d="M1074.7-415.8c-3.9,2.6-7.7,5.2-11.6,7.8c-0.9-0.8-1.7-1.6-2.6-2.4c-0.6-0.6-1.3-1.2-1.9-1.8
		c-2.7-2.8-5.9-3-9.3-1.9c-5.3,1.7-8.2,5.5-8.8,11c-0.4,3.4-0.6,6.7,0.2,10c0.7,3.2,2.3,6,4.4,8.4c1.2,1.3,2.7,2,4.5,2.2
		c4.1,0.5,8.1,0.1,11.6-2.5c1.1-0.8,1.9-1.9,2.9-3c3.2,2.5,6.6,5,10.1,7.7c-2.8,5.3-6.8,9.1-12.6,10.6c-5.5,1.5-11,1.7-16.5,0
		c-6.9-2.1-12-6.4-15.5-12.6c-2.3-4.1-3.8-8.5-4.1-13.2c-0.7-10.1,1.4-19.2,9.4-26.3c5.6-4.9,12-7,19.4-6.2
		c3.8,0.4,7.6,1.1,10.8,3.1C1068.8-422.5,1072.1-419.6,1074.7-415.8z"/>
	<path class="st0" d="M790.1-431.7c0,5.6,0,11.2,0,16.8c11.9,0,23.7,0,35.5,0c0-5.8,0-11.6,0-17.5c25.3,14.5,27.3,49.5,0.1,66.1
		c0-5.2,0-10.4,0-15.6c-11.9,0-23.7,0-35.6,0c0,4.9,0,9.9,0,15.1c-2-1.6-4-2.9-5.7-4.5c-3.4-3.2-6.4-6.8-8.7-10.9
		c-2.3-4.1-3.5-8.6-4-13.3c-0.4-4.3-0.2-8.5,0.8-12.7c0.7-2.8,1.6-5.5,3.1-8c2-3.4,4.2-6.7,7.1-9.5c2.3-2.1,4.7-4,7.1-6
		C790-431.8,790-431.7,790.1-431.7z M790.2-388.3c11.6,0,23.2,0,34.8,0c0-6.7,0-13.4,0-20.1c-11.6,0-23.2,0-34.8,0
		C790.2-401.7,790.2-395.1,790.2-388.3z M832-379.8c10.7-13,8-30,0-39C832-405.9,832-392.9,832-379.8z M783.8-417.5
		c-8.9,11.7-6.8,27.9,0,36.1C783.8-393.4,783.8-405.4,783.8-417.5z"/>
</g>
<g>
	<path class="st0" d="M1205.3-266.2c0,0.6,0,1.3,0,1.9c0,12,0,23.9,0,35.9c0,1.6-0.4,2.2-2,2.1c-2.7-0.1-5.5-0.1-8.2,0
		c-1.1,0-1.6-0.3-1.6-1.5c0-19.3,0-38.5,0-57.8c0-1.3,0.5-1.6,1.7-1.6c6.2,0,12.4,0.1,18.6,0c1.2,0,1.8,0.5,2.2,1.5
		c4.5,11.2,9,22.3,13.5,33.4c0.3,0.8,0.7,1.6,1.2,2.7c0.4-0.9,0.7-1.4,1-1.9c4.8-11.4,9.6-22.7,14.4-34.1c0.5-1.1,1-1.6,2.3-1.6
		c5.8,0.1,11.6,0.1,17.4,0c1.4,0,1.8,0.5,1.8,1.8c0,19.1,0,38.2,0,57.3c0,1.4-0.5,1.8-1.8,1.8c-4.2-0.1-8.4-0.1-12.6,0
		c-1.7,0-2.2-0.4-2.2-2.1c0.1-12,0-23.9,0-35.9c0-0.6-0.1-1.3-0.1-1.9c-0.2,0-0.3-0.1-0.5-0.1c-0.3,0.6-0.6,1.2-0.9,1.8
		c-5.3,12.3-10.6,24.6-15.9,37c-0.6,1.3-1.3,1.9-2.7,1.8c-2.2-0.1-4.4-0.1-6.5,0c-1.4,0.1-2-0.5-2.5-1.7
		c-5.1-12.3-10.1-24.6-15.2-36.9c-0.3-0.7-0.6-1.3-0.9-1.9C1205.7-266.3,1205.5-266.3,1205.3-266.2z"/>
	<path class="st0" d="M1349.3-265.1c0,0.7-0.1,1.4-0.1,2.1c0,11.5,0,23.1,0,34.6c0,1.7-0.5,2.2-2.2,2.1c-2.6-0.1-5.1-0.1-7.7,0
		c-1.5,0.1-2-0.4-2-2c0.1-13.6,0-27.3,0-40.9c0-5.3,0-10.7,0-16c0-1.5,0.4-2,2-2c5.3,0.1,10.6,0.1,15.9,0c1.3,0,2,0.4,2.6,1.6
		c6.4,11.7,12.8,23.5,19.2,35.2c0.3,0.6,0.7,1.1,1.4,1.6c0-0.6,0.1-1.2,0.1-1.9c0-11.5,0-22.9,0-34.4c0-1.6,0.5-2.1,2.1-2
		c2.7,0.1,5.5,0.1,8.2,0c1.2,0,1.5,0.4,1.5,1.6c0,19.3,0,38.5,0,57.8c0,1.2-0.4,1.6-1.5,1.6c-5.4,0-10.7-0.1-16.1,0
		c-1.4,0-1.8-0.8-2.3-1.7c-6.6-11.9-13.1-23.8-19.7-35.7c-0.3-0.5-0.6-1-0.9-1.5C1349.7-265.2,1349.5-265.2,1349.3-265.1z"/>
	<path class="st0" d="M1282.1-256.8c0-9.5,0-18.9,0-28.4c0-1.6,0.4-2.1,2-2.1c13.5,0.1,26.9,0.1,40.4,0c1.5,0,2,0.4,1.9,1.9
		c-0.1,2.4-0.1,4.8,0,7.2c0.1,1.4-0.5,1.8-1.8,1.8c-7.6,0-15.2,0-22.8,0c-2.4,0-2.4,0.1-2.5,2.4c0,3.1,0,6.2,0,9.4
		c0,2.5,0,2.5,2.6,2.5c6.4,0,12.8,0,19.3,0c1.5,0,2,0.4,1.9,1.9c-0.1,2.1-0.1,4.1,0,6.2c0.1,1.3-0.4,1.7-1.7,1.7
		c-6.6-0.1-13.3,0-19.9-0.1c-1.7,0-2.1,0.6-2.1,2.1c0.1,3.5,0.1,7,0,10.5c0,1.5,0.4,2.1,2.1,2.1c7.8-0.1,15.6,0,23.5-0.1
		c1.5,0,2.1,0.4,2,2c-0.1,2.6-0.1,5.2,0,7.8c0,1.2-0.4,1.7-1.7,1.6c-13.9,0-27.7,0-41.6,0c-1.5,0-1.6-0.7-1.6-1.9
		C1282.1-237.7,1282.1-247.3,1282.1-256.8z"/>
	<path class="st0" d="M1155.4-252.4c0,4.8,0,9.2,0,13.7c0,0.3,0.6,0.8,1,1c0.6,0.2,1.2,0.1,1.8,0.1c7.6,0,15.2,0,22.8,0
		c1.5,0,1.9,0.4,1.9,1.9c-0.1,2.7-0.1,5.3,0,8c0,1.2-0.4,1.5-1.6,1.5c-13.9,0-27.7,0-41.6,0c-1.1,0-1.6-0.3-1.6-1.5
		c0-19.3,0-38.5,0-57.8c0-1.1,0.3-1.6,1.5-1.6c13.7,0,27.5,0,41.2,0c1.1,0,1.6,0.3,1.6,1.5c-0.1,2.5-0.1,5,0,7.5
		c0.1,1.4-0.5,1.8-1.8,1.8c-7.7,0-15.3,0-23,0c-2.4,0-2.4,0-2.4,2.4c0,3.3,0.1,6.7,0,10c0,1.4,0.4,1.8,1.8,1.8
		c6.5-0.1,13.1,0,19.6-0.1c1.6,0,2.2,0.3,2.1,2c-0.1,2-0.1,4,0,6c0.1,1.4-0.5,1.8-1.8,1.8c-6.5-0.1-13,0-19.4,0
		C1156.9-252.4,1156.2-252.4,1155.4-252.4z"/>
	<path class="st0" d="M1051.3-239.3c3.4,0.8,6.5,1.7,9.7,2.3c4.3,0.8,8.6,1.3,13,0.5c0.9-0.2,1.9-0.4,2.7-0.8c2-0.8,3.2-2.3,3.4-4.4
		c0.2-2.1-0.8-3.8-2.6-4.7c-3-1.5-6.1-2.8-9.1-4.2c-3-1.4-6.2-2.6-9-4.3c-5.6-3.2-9.1-8-9.4-14.7c-0.3-7.3,3.7-13.2,10.9-16.3
		c6.1-2.6,12.5-3,19-2.4c3.4,0.4,6.8,0.9,10.3,1.4c2.5,0.4,2.5,0.4,2.4,2.9c0,2.7,0,5.5,0,8.2c0,0.1-0.1,0.2-0.2,0.5
		c-2.3-0.7-4.6-1.4-7-2c-4.2-1-8.6-1.8-12.9-0.8c-1.6,0.4-3.2,1.2-4.5,2.3c-1.8,1.5-1.8,4,0,5.6c1,0.9,2.2,1.7,3.5,2.3
		c4.2,2.1,8.5,4,12.6,6.1c2.5,1.3,4.9,2.8,7,4.5c9.4,7.4,7.6,21.4-2.2,27.3c-4.3,2.6-9,3.9-13.9,4.2c-7.4,0.4-14.8,0-22.1-1.8
		c-1.2-0.3-1.5-0.8-1.5-1.9C1051.4-232.5,1051.3-235.8,1051.3-239.3z"/>
	<path class="st0" d="M1403.8-239.3c3.4,0.8,6.5,1.7,9.7,2.3c4.3,0.8,8.6,1.3,13,0.5c0.9-0.2,1.9-0.4,2.7-0.8
		c2.1-0.8,3.3-2.3,3.5-4.5c0.2-2.1-0.9-3.6-2.6-4.5c-2.2-1.2-4.6-2.1-6.8-3.2c-4.4-2.1-9-3.8-13-6.4c-7.7-5-10-14.8-5.7-22.3
		c2.4-4.1,6.1-6.6,10.5-8.1c5.7-2,11.6-2.3,17.5-1.7c3.5,0.4,6.9,1,10.4,1.4c1.5,0.2,2.1,0.8,2,2.4c-0.1,3,0,6,0,9.2
		c-2.5-0.7-4.8-1.4-7.1-2c-4.2-1-8.4-1.8-12.7-0.8c-1.5,0.3-3,1-4.2,1.9c-2.4,1.8-2.4,4.4-0.1,6.3c1.1,0.9,2.4,1.6,3.7,2.2
		c5,2.5,10.2,4.8,15.1,7.6c4.6,2.5,8.3,6.1,9.6,11.5c1.6,6.5-0.9,13.5-6.3,17.5c-4.6,3.4-9.9,5-15.4,5.3c-7.4,0.4-14.7,0-21.9-1.7
		c-1.2-0.3-1.8-0.8-1.7-2.1C1403.8-232.5,1403.8-235.8,1403.8-239.3z"/>
	<path class="st0" d="M1106-256.9c0-9.5,0-18.9,0-28.4c0-1.5,0.4-2,2-2c4.6,0.1,9.3,0.1,13.9,0c1.3,0,1.7,0.4,1.7,1.7
		c0,19.2,0,38.3,0,57.5c0,1.3-0.4,1.7-1.7,1.7c-4.7-0.1-9.4-0.1-14.1,0c-1.4,0-1.8-0.4-1.8-1.8C1106-237.7,1106-247.3,1106-256.9z"
		/>
</g>
<g>
	<path class="st0" d="M1480.1-403.8c-7.7,0-15.4,0-23.1,0c0.1-0.3,0.1-0.5,0.2-0.7c1.9-4.7,3.9-9.4,5.7-14.2
		c0.3-0.7,0.6-0.9,1.3-0.9c15.8,0,31.5,0,47.3,0c0.3,0,0.7,0,1.1,0.1c0,23.7,0,47.3,0,70.9c-0.3,0.1-0.5,0.2-0.8,0.3
		c-6.9,2.3-13.8,4.2-21,5.5c-6.2,1.1-12.4,1.8-18.7,2c-3.3,0.1-6.6,0.2-9.9,0.1c-9-0.2-17.7-1.8-26.2-5c-5.1-1.9-9.8-4.4-14.3-7.5
		c-4-2.8-7.7-6-11-9.7c-5.3-5.9-9.4-12.7-12.2-20.1c-2.8-7.5-4.4-15.2-4.8-23.2c-0.3-5.9,0-11.7,0.9-17.5c1.3-8.2,3.8-15.9,7.9-23.2
		c4.1-7.3,9.3-13.6,15.8-18.8c5.9-4.7,12.5-8.3,19.6-10.8c5.7-2,11.5-3.3,17.5-3.9c3-0.3,6-0.4,8.9-0.4c13.7,0,27.4,0,41.1,0
		c0.3,0,0.6,0,1,0c0,0.8-5.3,14.8-6.3,16.7c-0.4,0-0.7,0-1.1,0c-10.6,0-21.2,0-31.8,0c-4.5,0-8.9,0.8-13.1,2.5
		c-4.5,1.8-8.3,4.6-11.6,8.2c-3.1,3.5-5.4,7.5-7.2,11.7c-2.4,5.8-3.8,11.8-4.6,18c-0.8,5.9-1,11.9-0.7,17.9
		c0.3,7.2,1.4,14.3,3.7,21.2c1.8,5.5,4.3,10.7,7.9,15.2c3.2,4,7,7.3,11.6,9.6c3.3,1.7,6.9,2.7,10.6,3.3c4,0.6,8,0.6,12.1,0.4
		c1.4-0.1,2.8-0.4,4.1-0.9C1480.1-372.5,1480.1-388.1,1480.1-403.8z"/>
	<path class="st0" d="M1159.2-341.6c-6.1,0-12,0-18.1,0c0.2-0.5,0.3-0.8,0.4-1.2c2-4.9,3.9-9.9,5.9-14.8c2.7-6.8,5.4-13.7,8.2-20.5
		c3.9-9.7,7.7-19.5,11.6-29.2c4.2-10.6,8.4-21.2,12.6-31.8c2.5-6.2,4.9-12.4,7.4-18.6c0.2-0.5,0.2-1,0-1.5c-2.5-6.4-5-12.9-7.5-19.3
		c-0.2-0.5-0.4-1-0.6-1.6c0.5,0,0.8,0,1.2,0c11.7,0,23.5,0,35.2,0c1.2,0,1,0,1.5,1c2.7,6.9,5.4,13.8,8.1,20.7c3,7.7,6,15.5,9.1,23.2
		c2.5,6.4,5.1,12.9,7.6,19.3c2.9,7.3,5.7,14.6,8.6,21.9c2.5,6.5,5.1,12.9,7.6,19.4c2.5,6.3,5,12.7,7.4,19c1.7,4.4,3.4,8.8,5.2,13.1
		c0.1,0.3,0.2,0.6,0.3,1c-12.5,0-24.9,0-37.4,0c-0.1-0.2-0.2-0.4-0.3-0.7c-2.9-7.4-5.7-14.8-8.6-22.2c-1.2-3.1-2.4-6.2-3.6-9.2
		c-0.4-0.9-0.4-0.9-1.3-0.9c-15.4,0-30.7,0-46.1,0c-1,0-1,0-1.3,0.9c-3.9,9.6-7.7,19.2-11.6,28.8
		C1160.2-343.9,1159.7-342.8,1159.2-341.6z M1179-391c1.4,0.2,34.3,0.2,35,0c-0.1-0.9-16.8-43.5-17.3-44.2
		C1190.8-420.5,1184.9-405.8,1179-391z"/>
	<path class="st0" d="M1383.5-480.1c-0.1,0.3-0.1,0.5-0.2,0.8c-1.9,5-3.8,10-5.7,15c-0.2,0.5-0.4,0.8-1,0.7c-0.3,0-0.6,0-0.9,0
		c-17.4,0-34.8,0-52.2,0c-0.5,0-1,0-1.5,0c0,14.7,0,29.3,0,44c0.4,0,0.8,0.1,1.2,0.1c8.4,0,16.9,0,25.3,0c7.5,0,14.9,0,22.4,0
		c0.4,0,0.8,0,1.3,0c-2.2,5.3-4.3,10.5-6.4,15.7c-14.6,0-29.2,0-43.8,0c-0.2,0.8-0.3,44.1-0.1,45.5c2.3,0.1,4.6,0,7,0
		c2.3,0,4.7,0,7,0s4.7,0,7,0s4.7,0,7,0c2.3,0,4.6,0,6.9,0c2.3,0,4.7,0,7,0c2.3,0,4.7,0,7,0c2.3,0,4.7,0,7,0c2.3,0,4.7,0,7.2,0
		c-2.3,5.6-4.6,11.1-6.9,16.6c-30.5,0-60.9,0-91.4,0c0-46.2,0-92.3,0-138.4c0-0.1,0.1-0.1,0.1-0.1c0,0,0.1,0,0.1,0
		c0.1,0,0.3-0.1,0.4-0.1c31.8,0,63.6,0,95.4,0c0.1,0,0.3,0,0.4,0C1383.4-480.2,1383.4-480.1,1383.5-480.1z"/>
</g>
<g>
	<path class="st0" d="M1631.5-180.6c-47.5,0-94.8,0-142.2,0c0-47.1,0-94.1,0-141.2c47.4,0,94.7,0,142.2,0
		C1631.5-274.8,1631.5-227.8,1631.5-180.6z M1580.5-311.1c-0.3,2.4-0.2,118.4,0.1,119.6c19.2-5.6,42.4-26,43.3-57.5
		C1625-282.1,1601.8-304.9,1580.5-311.1z M1573.7-189.6c0.3-2.4,0-4.8-0.4-7.2c-1.3-8.7-4.7-16.6-9.9-23.7
		c-7-9.7-16.1-16.8-26.9-21.7c-7.2-3.3-14.8-5.3-22.8-5.6c-5.3-0.2-10.5-0.1-15.8-0.1c-0.4,0-0.7,0.1-1,0.2
		C1498.3-208.8,1537.7-180.7,1573.7-189.6z M1497-254.7c0.4,0,0.8,0.1,1.3,0.1c4.4,0,8.8,0,13.2,0c5.3,0,10.5-0.8,15.6-2.3
		c12.8-3.6,23.6-10.3,32.5-20.2c8-9,13-19.4,14.2-31.5c0.1-1.5,0-3,0-4.5C1533.9-321.8,1498.6-290.5,1497-254.7z"/>
	<path class="st0" d="M1708.9-259.1c0,3.9,0,7.5,0,11.3c-9.8,0-19.6,0-29.5,0c-0.1,0.6-0.1,1-0.1,1.5c0,2.5,0,5,0,7.6
		c0,0.7,0,1.3,0.1,2c0.8,5.4,4.3,8.5,9.7,8.5c6.8,0.1,13.7,0,20.5,0c0.6,0,1.2,0,1.9,0c0,3.7,0,7.3,0,11c-0.3,0.1-0.7,0.2-1.1,0.2
		c-8.1,0-16.1,0-24.2-0.1c-3.2,0-6.3-0.9-9.2-2.3c-4.5-2.3-7.3-6-8.8-10.8c-0.9-2.9-1.2-5.9-1.2-8.9c0-15.3,0-30.5,0-45.8
		c0-0.5,0-1.1,0-1.6c1.3-0.4,40.9-0.5,43.3-0.2c0.3,1.2,0.4,8.9,0.1,11.1c-10.4,0-20.7,0-31.2,0c0,5.6,0,11,0,16.7
		C1689.2-259.1,1699-259.1,1708.9-259.1z"/>
	<path class="st0" d="M1792.2-239.4c-13.1,0-26.3,0-39.6,0c0,2.5,0.6,4.5,1.7,6.4c1.5,2.7,3.7,4.7,6.6,5.7
		c7.1,2.5,13.8,1.8,19.7-3.3c0.4-0.3,0.8-0.6,1.1-0.9c0,0,0.1,0,0.4-0.1c2.3,2.2,4.6,4.4,7,6.8c-2.2,2.3-4.5,4.2-7.2,5.7
		c-3.8,2.1-7.8,3.1-12.1,3.3c-4.4,0.2-8.8-0.2-12.9-1.7c-8-3-13.2-8.6-15.3-16.9c-1.7-6.9-1.4-13.7,1.6-20.2
		c3.7-8,10.2-12.5,18.8-14.1c4.6-0.8,9.3-0.7,13.8,0.8c8.9,3,14.2,9.3,16.3,18.4C1792.9-245.8,1792.9-242.3,1792.2-239.4z
		 M1780.3-247.9c0-0.6,0-1.2-0.1-1.7c-0.4-2-1.3-3.8-2.8-5.3c-4-4-8.9-4.9-14.2-3.6c-3.9,0.9-7,3-9,6.5c-0.7,1.2-1.1,2.5-1.2,4.1
		C1762.1-247.9,1771.1-247.9,1780.3-247.9z"/>
	<path class="st0" d="M1976.7-242.3c0.1,12-8,22.5-19.7,25.7c-9.5,2.6-18.4,1-26.2-5.2c-5.5-4.4-8.6-10.2-9.5-17.2
		c-1.8-14.8,8.7-27.7,23.4-29.7c7.9-1,15.2,0.6,21.5,5.5C1973.1-258,1976.5-251,1976.7-242.3z M1948.8-226.4
		c8.9,0,15.9-6.9,15.9-15.9c0-8.9-7-16-15.9-16c-8.8,0-15.6,6.9-15.8,15.7C1932.9-234.2,1939.2-226.4,1948.8-226.4z"/>
	<path class="st0" d="M2005.7-267.5c4.1,0,8,0,12.2,0c0,0.8,0,1.6,0,2.3c0,8.6,0,17.1,0,25.7c0,1.1,0,2.3,0.1,3.4
		c0.4,4.8,3.4,8.1,8.1,9c2.1,0.4,4.1,0.4,6.2-0.1c4.5-1,7.5-4.5,7.8-9.3c0.1-1,0.1-2,0.1-3c0-8.7,0-17.4,0-26.1c0-0.6,0-1.3,0-2
		c4.1,0,7.9,0,12,0c0,0.5,0.1,0.9,0.1,1.4c0,10,0.2,20,0,30c-0.2,8.6-4.3,15-12.4,18.2c-7.3,2.9-14.7,2.9-21.9,0
		c-7.3-3-11.2-8.6-12-16.4c-0.2-1.4-0.2-2.8-0.2-4.3c0-9,0-18,0-26.9C2005.7-266.1,2005.7-266.7,2005.7-267.5z"/>
	<path class="st0" d="M2058.1-217.1c6.5-9,12.8-17.8,19.3-26.7c-5.8-7.8-11.5-15.6-17.4-23.7c0.7-0.1,1.1-0.2,1.5-0.2
		c3.3,0,6.7,0,10,0c1,0,1.6,0.3,2.2,1.1c2.9,4.1,5.9,8.1,8.9,12.2c0.4,0.6,0.8,1.1,1.4,1.8c0.5-0.6,0.8-1,1.2-1.5
		c3-4.1,6-8.2,9-12.4c0.7-1,1.4-1.3,2.6-1.3c3.3,0.1,6.6,0,9.9,0c0.4,0,0.8,0.1,1.6,0.1c-5.9,8-11.6,15.7-17.5,23.7
		c6.3,8.8,12.7,17.7,19.2,26.7c-0.7,0.1-1.1,0.1-1.5,0.1c-3.3,0-6.7,0-10,0c-0.9,0-1.5-0.3-2-1.1c-3.7-5.2-7.4-10.3-11.2-15.4
		c-0.3-0.4-0.7-0.8-1.1-1.4c-0.5,0.6-0.8,1-1.2,1.5c-3.7,5.1-7.3,10.1-10.9,15.2c-0.6,0.8-1.2,1.2-2.3,1.2c-3.3-0.1-6.6,0-9.9,0
		C2059.3-217,2058.9-217,2058.1-217.1z"/>
	<path class="st0" d="M1839.9-253c-2.1-2-4.3-3.6-6.9-4.5c-5.8-1.8-11.3-1.4-16.2,2.4c-3.1,2.4-4.9,5.6-5.5,9.4
		c-0.8,4.8,0,9.3,3,13.2c3.3,4.2,7.8,6,13.1,5.9c4.5-0.1,8.4-1.7,11.7-4.9c0.2-0.2,0.3-0.3,0.5-0.4c0,0,0.1,0,0.3-0.1
		c2.4,2.4,4.8,4.9,7.2,7.5c-2.1,2.4-4.5,4.3-7.3,5.7c-12.1,6.4-30.2,3.1-37.8-11.1c-5.3-9.8-4-23,4.3-31.3c6.6-6.6,14.7-9,23.9-8.1
		c6,0.6,11.2,3.1,15.7,7.2c0.4,0.4,0.9,0.7,1.4,1.1C1844.8-258.1,1842.4-255.6,1839.9-253z"/>
	<path class="st0" d="M1855-286.7c1.4-0.4,10.4-0.4,12,0c0,6.2,0,12.5,0,19c3.7,0.4,7.3,0,10.9,0.2c0,3.6,0,7.1,0,10.8
		c-3.6,0-7.1,0-10.7,0c-0.1,0.6-0.1,1-0.1,1.4c0,5.5,0,11.1,0,16.6c0,1,0.1,2,0.3,2.9c0.9,4.3,4.2,7.2,8.6,7.5
		c0.7,0,1.4,0.1,2.2,0.1c0,3.7,0,7.4,0,11.1c-0.3,0.1-0.6,0.2-0.8,0.1c-2.8-0.1-5.7-0.3-8.4-1.1c-7.5-2.1-11.8-7.1-13.2-14.6
		c-0.4-2.2-0.6-4.5-0.6-6.7c-0.1-15.2,0-30.3,0-45.5C1855-285.4,1855-286.1,1855-286.7z"/>
	<path class="st0" d="M1720.7-286.9c3.9,0,7.8,0,11.7,0c0,23.3,0,46.5,0,69.8c-4,0-7.8,0-11.7,0
		C1720.4-218.3,1720.3-285,1720.7-286.9z"/>
	<path class="st0" d="M1984.4-287c3.9-0.1,7.8,0,11.8,0c0,23.4,0,46.6,0,69.9c-4,0-7.8,0-11.7,0C1984.2-218.3,1984-284.6,1984.4-287
		z"/>
	<path class="st0" d="M1919-256.9c-0.9-0.1-1.7-0.2-2.6-0.3c-2.5-0.3-4.9-0.1-7.3,0.6c-5.1,1.6-8.4,5.9-8.8,11.7c0,0.7,0,1.3,0,2
		c0,8,0,16,0,24c0,0.6,0,1.2,0,1.8c-4,0-7.8,0-11.6,0c-0.3-1.2-0.5-47.9-0.1-50.2c1.2-0.4,9.7-0.5,11.8-0.1c0,2.1,0,4.3,0,6.5
		c4.6-6.8,11.1-8.4,18.7-7.5C1919-264.5,1919-260.7,1919-256.9z"/>
</g>
<g>
	<path class="st0" d="M1526.3-436.7c109.1,0,218.2,0,327.3,0c0,0.3,0,0.6,0,0.9c0,26.2,0,52.4,0,78.6c0,0.3,0,0.6,0,0.9
		c-109.1,0-218.1,0-327.2,0c0-0.3,0-0.6,0-0.8c0-26.2,0-52.4,0-78.6C1526.4-436.1,1526.4-436.4,1526.3-436.7z M1631.6-423.3
		c-0.2,0-0.4,0-0.6,0c-9.8,0-19.6,0-29.4,0c-0.4,0-0.7,0.2-0.9,0.5c-4.6,6.3-9.2,12.7-13.8,19c-0.2,0.2-0.3,0.5-0.5,0.7
		c-0.2-0.3-0.3-0.5-0.5-0.6c-4.6-6.3-9.2-12.7-13.8-19c-0.3-0.4-0.6-0.5-1-0.5c-11.1,0-22.2,0-33.3,0c-0.2,0-0.5,0-0.7,0
		c0,2.9,0,5.7,0,8.6c2,0,4,0,6,0c0,11.6,0,23.2,0,34.8c-2,0-4,0-6,0c0,2.9,0,5.7,0,8.5c7.3,0,14.6,0,21.9,0c0-2.9,0-5.7,0-8.5
		c-2,0-4,0-6,0c0-7.5,0-14.8,0-22.4c7.6,10.4,15.1,20.7,22.6,31c7.5-10.4,15-20.6,22.5-31c0,7.6,0,15,0,22.4c-2,0-4,0-6,0
		c0,2.9,0,5.7,0,8.5c13.2,0,26.4,0,39.7,0c0-2.9,0-5.7,0-8.5c-2,0-4,0-6,0c0-11.6,0-23.1,0-34.8c2,0,4,0,6,0
		C1631.6-417.6,1631.6-420.4,1631.6-423.3z M1737.3-384.9c-0.2,0-0.3,0-0.4,0c-4.8,0-9.6,0-14.3,0c-0.4,0-0.5,0.2-0.6,0.5
		c-1.9,5.1-7.3,7.8-12.5,6.4c-2.5-0.7-4.4-2-4.9-4.7c-0.3-1.7-0.2-3.5-0.3-5.3c0.4,0,0.7,0,0.9,0c6.9,0,13.8,0,20.7,0
		c3.8,0,7.5,0,11.3,0c0.5,0,0.7-0.1,0.7-0.6c0-0.6,0.1-1.3,0.1-1.9c-0.2-6.9-3-12.5-8.9-16.2c-5.7-3.6-12-5.3-18.7-5.7
		c-5.3-0.3-10.5,0.5-15.5,2.2c-2.9,1-5.7,2-8,4c-5.9,4.9-8.4,11.3-7.1,18.9c1.1,6.5,4.7,11.3,10.7,14.1c5.5,2.5,11.3,3.7,17.3,3.8
		c6.5,0.1,12.7-1.3,18.7-3.9c3.5-1.5,6.5-3.7,8.7-6.9C1736-381.7,1736.8-383.2,1737.3-384.9z M1841.8-384.9c-0.3,0-0.6,0-0.8,0
		c-4.6,0-9.1,0-13.7,0c-0.6,0-0.8,0.2-1,0.7c-1.9,5-7.4,7.7-12.6,6.2c-3.1-0.9-4.8-2.8-5-5.6c-0.1-1.4,0-2.8,0-4.2
		c0,0,0-0.1,0.1-0.2c11.1,0,22.2,0,33.3,0c0-0.1,0.1-0.2,0.1-0.3c0.7-7.5-2-13.7-8.2-18c-5.7-3.9-12.3-5.7-19.2-6.1
		c-6.2-0.4-12.2,0.8-18.1,3c-9.5,3.5-14.4,12.9-12.7,21.9c1.2,6.2,4.4,11,10.1,13.9c4.9,2.5,10.3,3.6,15.7,4
		c6.5,0.5,12.7-0.6,18.7-2.9c3.1-1.2,6-2.5,8.4-4.8C1839.2-379.5,1840.8-382,1841.8-384.9z M1775.1-380c0-14.5,0-28.9,0-43.3
		c-11.6,0-23.2,0-34.7,0c0,2.9,0,5.7,0,8.6c2,0,4,0,5.9,0c0,11.6,0,23.2,0,34.8c-2,0-4,0-5.9,0c0,2.9,0,5.7,0,8.5c0.2,0,0.4,0,0.6,0
		c13.2,0,26.4,0,39.7,0c0.5,0,0.7-0.1,0.7-0.6c0-2.4,0-4.9,0-7.4c0-0.2,0-0.4-0.1-0.6C1779.2-380,1777.2-380,1775.1-380z
		 M1670.7-380c0-0.4,0-0.6,0-0.9c0-9.6,0-19.3,0-28.9c0-0.5-0.1-0.7-0.7-0.7c-10.8,0-21.6,0-32.4,0c-0.5,0-0.7,0.1-0.7,0.6
		c0,2.4,0,4.9,0,7.3c0,0.2,0,0.4,0,0.6c2.1,0,4,0,6,0c0,7.3,0,14.6,0,21.9c-2,0-4,0-6.1,0c0,0.3,0,0.4,0,0.6c0,2.4,0,4.9,0,7.3
		c0,0.5,0.2,0.7,0.7,0.7c12.8,0,25.6,0,38.4,0c0.5,0,0.7-0.1,0.7-0.7c0-2.4,0-4.8,0-7.2c0-0.2,0-0.4,0-0.7
		C1674.8-380,1672.8-380,1670.7-380z M1653.2-411.4c4.2-2.2,8.4-4.4,12.5-6.5c-1.3-2.6-2.6-5-4-7.6c-4.2,2.2-8.3,4.3-12.5,6.5
		C1650.6-416.5,1651.9-414,1653.2-411.4z"/>
	<path class="st0" d="M1712.8-394.8c-0.3,0-0.5,0-0.7,0c-2.4,0-4.8,0-7.2,0c-0.5,0-0.7-0.1-0.7-0.7c0-1.6,0-3.1,0-4.7
		c0-2.2,1.6-4,3.7-4.3c2.1-0.3,4,1,4.6,3c0.1,0.3,0.1,0.5,0.2,0.8c0,0.3,0,0.5,0,0.8C1712.8-398.1,1712.8-396.5,1712.8-394.8z"/>
	<path class="st0" d="M1817.2-394.8c-2.8,0-5.6,0-8.5,0c0-0.8,0-1.6,0-2.3c0-1.3-0.1-2.6,0.1-3.8c0.3-2.2,2.4-3.6,4.6-3.4
		c2.1,0.2,3.8,2,3.8,4.1c0,1.7,0,3.4,0,5C1817.3-395.1,1817.3-394.9,1817.2-394.8z"/>
</g>
</svg>
