<?xml version="1.0" encoding="utf-8"?>
<!-- Generator: Adobe Illustrator 25.0.1, SVG Export Plug-In . SVG Version: 6.00 Build 0)  -->
<svg version="1.1" id="Vrstva_1" xmlns="http://www.w3.org/2000/svg" xmlns:xlink="http://www.w3.org/1999/xlink" x="0px" y="0px"
	 viewBox="0 0 350 133.68" style="enable-background:new 0 0 350 133.68;" xml:space="preserve">
<style type="text/css">
	.st0{fill:#CF1630;}
</style>
<g>
	<path class="st0" d="M35.71-0.05l7.95,20.32l-43.8,110.36h17.38l12.43-31.31H74.6l12.25,31.31h35.35L71.06-0.05H35.71z M35.63,84.3
		L52.3,42.32L68.72,84.3H35.63z"/>
	<polygon class="st0" points="170.38,72.2 211.71,72.2 217.77,56.93 170.38,56.93 170.38,15.68 222.21,15.68 228.46,-0.05 
		137.29,-0.05 137.29,130.63 223.56,130.63 229.81,114.9 170.38,114.9 	"/>
	<path class="st0" d="M297.22,72.2h21.81v44.22c-2.61,0.72-5.6,1.14-8.76,1.14c-29.4,0-38-27.25-38-51.36
		c0-23.13,7.38-50.51,35.81-50.51h30.29l6.24-15.73h-40.1c-38.93,0-66.41,26.9-66.41,66.25c0,38.86,26.39,66.25,67.32,66.25
		c20.39,0,33.6-3.89,44.48-7.68V56.93h-46.62L297.22,72.2z"/>
</g>
</svg>
