<?xml version="1.0" encoding="utf-8"?>
<!-- Generator: Adobe Illustrator 25.0.1, SVG Export Plug-In . SVG Version: 6.00 Build 0)  -->
<svg version="1.1" id="Vrstva_1" xmlns="http://www.w3.org/2000/svg" xmlns:xlink="http://www.w3.org/1999/xlink" x="0px" y="0px"
	 viewBox="0 0 427 96.53" style="enable-background:new 0 0 427 96.53;" xml:space="preserve">
<style type="text/css">
	.st0{fill-rule:evenodd;clip-rule:evenodd;fill:#FFFFFF;}
	.st1{fill-rule:evenodd;clip-rule:evenodd;fill:#E30613;}
	.st2{fill:#FFFFFF;stroke:#000000;stroke-width:0.25;stroke-miterlimit:10;}
</style>
<g>
	<g>
		<path class="st0" d="M143.02,17.78c0,0.41,0,61.75,0,62.16c0.41,0,31.78,0,31.78,0c9.29,0,19.32-6.6,19.32-17.26
			c0-10.15-7.7-13.73-11.02-14.79c-0.25-0.08-0.35-0.11-0.35-0.27c0-0.09,0.06-0.17,0.14-0.2c0.08-0.03,8.48-3.03,8.48-12.65
			c0-10.64-7.19-16.98-19.22-16.98C172.14,17.78,143.43,17.78,143.02,17.78z M158,42.26V30.61c0-0.12,0.09-0.21,0.21-0.21h11.46
			c3.69,0,6.17,2.46,6.17,6.13c0,2.88-2.26,5.94-6.44,5.94h-11.18C158.09,42.46,158,42.37,158,42.26z M158,67.12V54.83
			c0-0.12,0.09-0.21,0.21-0.21h11.18c5.38,0,8.46,2.3,8.46,6.31c0,4.19-2.83,6.4-8.18,6.4h-11.46C158.09,67.33,158,67.24,158,67.12z
			"/>
		<path class="st0" d="M199.6,48.82c0,19.5,11.48,32.61,28.57,32.61s28.57-13.1,28.57-32.61c0-19.5-11.48-32.61-28.57-32.61
			C211.09,16.21,199.6,29.32,199.6,48.82z M214.68,48.82c0-10.91,5.3-17.96,13.5-17.96c8.26,0,13.59,7.05,13.59,17.96
			c0,10.96-5.33,18.05-13.59,18.05C219.85,66.87,214.68,59.95,214.68,48.82z"/>
		<path class="st0" d="M262.98,35.69c0,9.62,6.32,16.24,17.8,18.65l2.2,0.46c7.89,1.66,11.35,2.84,11.35,7.14
			c0,3.83-3.47,6.4-8.64,6.4c-6.23,0-11.71-2.75-15.87-7.95c-0.3,0.3-9.42,9.24-9.69,9.51c5.06,6,11.71,11.52,25.74,11.52
			c11.92,0,23.99-6.95,23.99-20.22c0-14.73-11.76-17.2-19.54-18.84l-2.2-0.46c-4.91-1.03-9.7-2.38-9.7-6.49
			c0-4.17,3.92-6.03,7.81-6.03c4.68,0,9.34,2.1,12.83,5.75c0.26-0.26,9.15-9.06,9.43-9.33c-3.94-4.41-11-9.59-22.53-9.59
			C272.21,16.21,262.98,24.04,262.98,35.69z"/>
		<path class="st0" d="M315.44,48.45c0,19.42,11.83,32.98,28.76,32.98c12.69,0,18.42-4.69,24.45-13.33
			c-0.35-0.23-12.04-8.13-12.38-8.36c-2.69,4.4-5.56,7.13-11.33,7.13c-6.9,0-14.32-5.76-14.32-18.42c0-11.55,6.97-17.59,13.86-17.59
			c5.07,0,8.6,2.15,11.43,6.94c0.34-0.23,11.94-7.94,12.29-8.17c-6.18-9.21-13.53-13.33-23.81-13.33
			C324.39,16.3,315.44,32.45,315.44,48.45z"/>
		<path class="st0" d="M410.71,17.78c0,0.41,0,22.81,0,22.81c0,0.12-0.09,0.21-0.21,0.21h-18.97c-0.12,0-0.21-0.09-0.21-0.21
			c0,0,0-22.4,0-22.81c-0.4,0-15.59,0-15.99,0c0,0.41,0,61.75,0,62.16c0.4,0,15.59,0,15.99,0c0-0.41,0-24.47,0-24.47
			c0-0.12,0.09-0.21,0.21-0.21h18.97c0.12,0,0.21,0.09,0.21,0.21c0,0,0,24.06,0,24.47c0.4,0,15.68,0,16.08,0c0-0.41,0-61.75,0-62.16
			C426.39,17.78,411.11,17.78,410.71,17.78z"/>
	</g>
	<g>
		<path class="st1" d="M177.64,60.93c0-3.6-2.66-6.1-8.25-6.1h-11.18v12.3h11.46C174.34,67.12,177.64,65.46,177.64,60.93z
			 M175.62,36.53c0-3.51-2.38-5.92-5.96-5.92H158.2v11.65h11.18C173.42,42.26,175.62,39.3,175.62,36.53z M194.32,62.68
			c0,10.54-9.72,17.47-19.53,17.47H142.8V17.57h29.33c11.27,0,19.43,5.64,19.43,17.19c0,9.89-8.62,12.85-8.62,12.85
			C182.95,47.71,194.32,50.3,194.32,62.68z"/>
		<path class="st1" d="M241.56,48.82c0-9.8-4.49-17.75-13.38-17.75s-13.29,7.95-13.29,17.75c0,9.89,4.4,17.84,13.29,17.84
			C237.07,66.66,241.56,58.71,241.56,48.82z M256.96,48.82c0,18.4-10.54,32.81-28.78,32.81c-18.15,0-28.78-14.42-28.78-32.81
			c0-18.3,10.63-32.82,28.78-32.82C246.42,16,256.96,30.52,256.96,48.82z"/>
		<path class="st1" d="M310.06,61.2c0,13.77-12.46,20.43-24.2,20.43c-13.57,0-20.53-5.18-26.03-11.74l9.99-9.8
			c4.22,5.36,9.72,8.04,15.86,8.04c5.04,0,8.43-2.5,8.43-6.19c0-3.97-3-5.21-11.18-6.93l-2.2-0.46
			c-9.86-2.07-17.97-7.67-17.97-18.86c0-12.3,9.99-19.69,23.19-19.69c11.18,0,18.42,4.81,22.82,9.8l-9.71,9.61
			c-3.03-3.24-7.61-5.82-12.84-5.82c-3.57,0-7.61,1.66-7.61,5.82c0,3.79,4.2,5.16,9.53,6.29l2.2,0.46
			C299.28,44.04,310.06,46.79,310.06,61.2z"/>
		<path class="st1" d="M368.94,68.05c-6.41,9.24-12.37,13.59-24.74,13.59c-17.6,0-28.97-14.61-28.97-33.19
			c0-17.66,10.27-32.35,29.15-32.35c10.36,0,17.78,4.07,24.11,13.59l-12.65,8.41c-2.57-4.44-5.87-7.03-11.37-7.03
			c-6.96,0-13.66,6.23-13.66,17.38c0,12.5,7.24,18.21,14.12,18.21c5.96,0,8.71-2.96,11.27-7.21L368.94,68.05z"/>
		<polygon class="st1" points="427,80.16 410.5,80.16 410.5,55.47 391.53,55.47 391.53,80.16 375.12,80.16 375.12,17.57 
			391.53,17.57 391.53,40.59 410.5,40.59 410.5,17.57 427,17.57 		"/>
	</g>
	<path class="st2" d="M0.71,49.02c0,12.65,4.95,24.53,13.93,33.43c8.97,8.88,20.89,13.78,33.59,13.78
		c26.03,0,47.21-21.18,47.21-47.21c0-12.69-4.89-24.62-13.78-33.59C72.76,6.45,60.89,1.5,48.23,1.5C22.03,1.5,0.71,22.82,0.71,49.02
		z M19.14,77.96C11.3,70.2,6.98,59.92,6.98,49.02c0-22.75,18.5-41.25,41.25-41.25c10.9,0,21.17,4.32,28.94,12.16
		c7.74,7.82,12,18.15,12,29.09c0,22.57-18.37,40.94-40.94,40.94C37.3,89.96,26.96,85.7,19.14,77.96z M63.71,20.1c0,0,0,14.4,0,14.48
		c-0.08,0-31.18,0-31.26,0c0-0.08,0-14.48,0-14.48c0-1.22-0.7-2.05-1.73-2.05c-0.37,0-0.74,0.1-1.06,0.3
		c-10.82,6.57-17.27,18.03-17.27,30.67c0,12.63,6.29,23.69,17.27,30.36c0.32,0.19,0.69,0.3,1.06,0.3c0.85,0,1.73-0.65,1.73-1.73
		c0,0,0-14.71,0-14.79c0.08,0,31.18,0,31.26,0c0,0.08,0,14.48,0,14.48c0,1.13,0.92,2.05,2.05,2.05c0.3,0,0.63-0.09,0.9-0.25
		c10.72-6.46,17.12-17.83,17.12-30.4c0-12.75-6.34-24.22-16.96-30.67c-0.32-0.2-0.69-0.3-1.06-0.3
		C64.62,18.06,63.71,18.97,63.71,20.1z M70.86,65.48l0.06-2.11V34.46c0,0-0.07-2.33-0.08-2.92c0.11,0.17,0.45,0.66,0.45,0.66
		c3.34,4.99,5.25,11.12,5.25,16.81c0,5.8-1.77,11.39-5.25,16.6c0,0-0.33,0.5-0.45,0.67C70.85,66.09,70.86,65.48,70.86,65.48z
		 M19.62,49.02c0-5.8,1.86-11.71,5.24-16.63c0,0,0.3-0.45,0.45-0.67c-0.01,0.25-0.09,3.48-0.09,3.48v27.93c0,0,0.07,2.33,0.09,2.92
		c-0.11-0.16-0.45-0.66-0.45-0.66l0,0C21.23,59.97,19.62,54.92,19.62,49.02z M63.71,41.82c0,0.08,0,14.02,0,14.1
		c-0.08,0-31.18,0-31.26,0c0-0.06,0-14.02,0-14.1C32.53,41.82,63.63,41.82,63.71,41.82z"/>
</g>
</svg>
