<?xml version="1.0" encoding="utf-8"?>
<!-- Generator: Adobe Illustrator 25.0.1, SVG Export Plug-In . SVG Version: 6.00 Build 0)  -->
<svg version="1.1" id="Layer_1" xmlns="http://www.w3.org/2000/svg" xmlns:xlink="http://www.w3.org/1999/xlink" x="0px" y="0px"
	 viewBox="0 0 175 39.99" style="enable-background:new 0 0 175 39.99;" xml:space="preserve">
<style type="text/css">
	.st0{fill:#081D3F;}
</style>
<g>
	<g>
		<path class="st0" d="M0,39.99h40.12V0H0V39.99z M25.72,3.06c7.09,2.32,12.22,9.02,12.24,16.93c0.02,7.79-5,14.47-12.24,16.94V3.06
			z M20.05,2.15c1.28,0,2.65,0.17,3.78,0.4c0,9.06-8.79,16.52-17.86,16.52l-3.79-0.01C2.8,9.77,10.51,2.15,20.05,2.15z M5.97,20.95
			c9.07,0,17.86,7.45,17.86,16.5c-1.14,0.23-2.57,0.4-3.78,0.4c-9.55-0.01-17.52-7.66-17.88-16.9C2.18,20.95,5.97,20.95,5.97,20.95z
			 M53.55,23.51v-2.52h8.35v-3.21h-8.35V13.1h8.88V9.89h-12.3v13.47c0,3.41,1.46,5.74,4.87,6.21c0.07,0.02,0.13,0.03,0.2,0.03h0.06
			c0.35,0.04,0.71,0.07,1.08,0.07h6.32v-3.2h-6.29C55.29,26.47,53.55,25.94,53.55,23.51z M65.1,29.68h3.42V9.89H65.1V29.68z
			 M78.55,14.91c-4.32,0-7.56,2.97-7.56,7.59v0.11c0,4.51,3.12,7.42,7.64,7.42c2.18,0,4.21-0.6,6.07-2.57l-2.06-2
			c-1.09,1.08-2.15,1.66-3.89,1.66c-2.55,0-4.24-1.48-4.35-3.77h11.22c0.06-0.57,0.06-1.2,0.06-1.2
			C85.68,18.14,82.85,14.91,78.55,14.91z M74.49,20.96c0.14-1.74,1.92-3.14,4.06-3.14c2,0,3.63,1.43,3.63,3.14H74.49z M95.29,17.97
			c1.55,0,2.69,0.57,3.66,1.57l2.12-2.2c-1.66-1.77-3.63-2.48-5.78-2.48c-4.35,0-7.84,3.22-7.84,7.62c0,4.39,3.49,7.62,7.84,7.62
			c2.15,0,4.12-0.71,5.78-2.48l-2.12-2.2c-0.97,1-2.12,1.57-3.66,1.57c-2.52,0-4.44-1.91-4.44-4.51
			C90.85,19.88,92.77,17.97,95.29,17.97z M106.61,23.52L106.61,23.52l0-5.05h3.11v-3.1h-3.11V9.89h-3.42v13.83l0.01,0
			c0.1,3.22,1.56,5.41,4.86,5.87c0.07,0.02,0.14,0.03,0.2,0.03h0.06c0.35,0.04,0.71,0.07,1.08,0.07h0.36l0.01-3.2h-0.35
			C108.35,26.48,106.61,25.94,106.61,23.52z M115.99,17.5v-2.13h-3.39v14.31h3.39v-7.53c0-2.36,1.51-3.83,3.87-3.83
			c0.54,0,1.03,0.06,1.43,0.14v-3.29c-0.14-0.03-0.65-0.08-1.03-0.08C118.21,15.08,116.67,16.02,115.99,17.5z M129.65,14.94
			c-4.36,0-7.84,3.29-7.84,7.58c0,4.29,3.48,7.58,7.84,7.58c4.33,0,7.84-3.3,7.84-7.58C137.48,18.24,133.98,14.94,129.65,14.94z
			 M129.65,27.01c-2.54,0-4.44-1.96-4.44-4.49c0-2.53,1.91-4.49,4.44-4.49c2.51,0,4.44,1.96,4.44,4.49
			C134.09,25.05,132.15,27.01,129.65,27.01z M139.58,29.68H143V9.89h-3.42V29.68z M155.33,23.69c0,2.27-1.34,3.24-3.13,3.24
			c-1.79,0-3.13-0.97-3.13-3.21v-8.35h-3.45V24c0,4.09,2.99,6.05,6.55,6.05c3.59,0,6.61-1.99,6.61-6.14v-8.55h-3.45V23.69z
			 M171.72,25.1l-2.16-3.01l2.67-3.63l2.29-3.1h-3.73l-3.11,4.29l-3.13-4.29h-3.7l2.12,2.9l2.83,3.86l-2.97,4.12l-2.47,3.43h3.68
			l3.65-5.06l3.65,5.06H175L171.72,25.1z"/>
	</g>
</g>
</svg>
