<?xml version="1.0" encoding="utf-8"?>
<!-- Generator: Adobe Illustrator 25.0.1, SVG Export Plug-In . SVG Version: 6.00 Build 0)  -->
<svg version="1.1" id="Vrstva_1" xmlns="http://www.w3.org/2000/svg" xmlns:xlink="http://www.w3.org/1999/xlink" x="0px" y="0px"
	 viewBox="0 0 546 121" style="enable-background:new 0 0 546 121;" xml:space="preserve">
<style type="text/css">
	.st0{fill:#EE731C;}
	.st1{fill:#141313;}
</style>
<path class="st0" d="M264.2-0.41c39.12,0,78.23-0.01,117.35,0c2.92,0.04,5.84,0.75,8.39,2.21c2.25,1.29,4.15,3.2,5.39,5.48
	c1.4,2.53,1.98,5.47,1.82,8.35c-0.07,1.75-0.5,3.45-0.88,5.15c-7.52,33.39-15.04,66.79-22.55,100.18c-38.97,0-77.95,0-116.92,0
	c-2.78,0-5.57-0.55-8.06-1.81c-2.48-1.24-4.61-3.21-5.99-5.62c-1.45-2.5-2.09-5.43-1.98-8.31c0.03-1.49,0.32-2.95,0.65-4.39
	C249,67.09,256.6,33.33,264.2-0.41 M295.02,21.69c-4.2,0.74-8.3,2.38-11.63,5.08c-3.86,3.09-6.62,7.32-8.7,11.75
	c-2.67,5.72-4.4,11.83-5.87,17.96c-1.51,6.57-2.94,13.19-3.38,19.93c-0.19,3.32-0.13,6.72,0.79,9.94c0.65,2.3,1.85,4.48,3.66,6.08
	c1.88,1.69,4.27,2.71,6.7,3.31c2.81,0.69,5.71,0.91,8.59,0.94c3.14,0.04,6.3-0.23,9.35-0.98c3.9-0.94,7.62-2.71,10.69-5.32
	c3.38-2.88,5.97-6.63,7.66-10.73c1.93-4.37,2.74-9.1,3.8-13.72c-6.11,0-12.23,0-18.35,0.01c-0.76,3.25-1.53,6.5-2.52,9.7
	c-0.61,1.89-1.28,3.79-2.35,5.47c-0.74,1.16-1.81,2.18-3.18,2.53c-1.18,0.29-2.45,0.29-3.6-0.11c-0.94-0.32-1.6-1.16-1.87-2.08
	c-0.5-1.6-0.39-3.3-0.26-4.94c0.31-3.36,0.98-6.68,1.65-9.98c1.28-6.06,2.61-12.13,4.13-18.13c0.77-2.96,1.56-5.91,2.73-8.74
	c0.7-1.63,1.53-3.27,2.89-4.44c1.36-1.18,3.27-1.5,5.01-1.23c0.87,0.13,1.7,0.64,2.09,1.45c0.57,1.15,0.56,2.48,0.49,3.73
	c-0.26,3.22-1.14,6.33-1.77,9.48l18.35,0c0.7-3.45,1.65-6.86,1.87-10.39c0.15-2.36,0.06-4.76-0.62-7.05
	c-0.58-2.02-1.63-3.92-3.14-5.4c-1.56-1.56-3.54-2.65-5.62-3.35c-2.57-0.88-5.29-1.24-7.99-1.36
	C301.41,21,298.18,21.13,295.02,21.69 M332.36,22.55c-1.17,5.16-2.34,10.32-3.51,15.48c7.1,0.01,14.19,0,21.28,0
	c-10.82,14.46-21.63,28.91-32.46,43.37c-0.21,0.29-0.23,0.66-0.31,1c-0.92,4.28-1.87,8.55-2.79,12.83l44.93,0l3.42-15.48
	c-7.75,0-15.48,0-23.23,0c7.66-10.11,15.32-20.22,22.97-30.32c3.33-4.42,6.7-8.8,10.01-13.24c1.07-4.53,2.05-9.09,3.1-13.64
	C361.3,22.54,346.83,22.54,332.36,22.55 M393.39,68.4c2.67-0.52,5.55,0.93,6.75,3.37c1.25,2.39,0.73,5.55-1.24,7.4
	c-1.92,1.92-5.1,2.34-7.46,1c-2.31-1.23-3.65-4-3.18-6.58C388.64,71,390.81,68.82,393.39,68.4"/>
<path class="st1" d="M52.2,20.62c5.13-0.01,10.26,0,15.39,0c-4.22,20.31-8.43,40.61-12.65,60.91c-5.13,0-10.26,0-15.39,0
	C43.77,61.22,47.98,40.92,52.2,20.62 M114.64,20.62c5.13,0,10.26,0,15.38,0c-2.12,10.22-4.3,20.44-6.4,30.66
	c0.37-0.25,0.58-0.65,0.85-0.99c3.73-4.99,7.45-9.98,11.19-14.96c7.07,0.01,14.14,0,21.22,0l2.82-13.53h15.39
	c-0.94,4.51-1.88,9.02-2.82,13.53h6.06c-0.71,3.45-1.43,6.9-2.14,10.34h-6.06c-1.49,7.07-2.97,14.15-4.45,21.22
	c-0.2,1-0.53,2.07-0.15,3.07c0.3,0.78,1.16,1.13,1.94,1.21c1.11,0.12,2.23,0.04,3.35,0.06c-0.68,3.42-1.37,6.82-2.05,10.23
	c-3.2,0.37-6.44,0.56-9.67,0.5c-1.8-0.03-3.62-0.11-5.37-0.52c-1.27-0.3-2.56-0.84-3.42-1.87c-0.88-1.05-1.19-2.45-1.25-3.79
	c-0.11-2.58,0.47-5.11,1-7.62c1.57-7.5,3.13-15,4.69-22.5c-1.71-0.01-3.41,0-5.12-0.01c0.68-3.29,1.36-6.58,2.03-9.87
	c-5.44,6.17-10.9,12.34-16.34,18.51c2.94,9.07,5.87,18.14,8.8,27.22c-5.46,0.01-10.94-0.01-16.4,0.01
	c-1.53-5.3-3.02-10.61-4.53-15.92c-1.07,1.25-2.12,2.5-3.19,3.75c-0.3,0.3-0.31,0.75-0.4,1.14c-0.73,3.67-1.48,7.35-2.21,11.02
	c-5.13,0.01-10.25,0-15.39,0C106.21,61.23,110.42,40.93,114.64,20.62 M415.59,33.8c2.93-0.6,5.95-0.72,8.93-0.62
	c2.98,0.15,6.1,0.66,8.61,2.38c1.93,1.3,3.22,3.4,3.75,5.64c0.87,3.69,0.34,7.54-0.36,11.21c-4.62,0.01-9.23,0.01-13.84,0.01
	c0.4-2.09,0.8-4.21,0.67-6.34c-0.08-0.87-0.21-1.87-0.95-2.43c-0.9-0.67-2.11-0.71-3.17-0.52c-1.53,0.3-2.56,1.63-3.24,2.94
	c-1.21,2.41-1.84,5.05-2.48,7.66c-0.69,3.1-1.38,6.2-1.9,9.34c-0.28,1.92-0.57,3.86-0.36,5.8c0.11,0.95,0.43,2.03,1.32,2.53
	c0.9,0.48,1.98,0.43,2.94,0.22c1.38-0.32,2.42-1.43,3.06-2.65c1.27-2.4,1.68-5.12,2.22-7.75c4.62,0,9.23,0,13.85,0
	c-0.57,2.8-1.27,5.58-2.36,8.23c-0.82,1.99-1.87,3.91-3.25,5.57c-1.6,1.92-3.63,3.49-5.9,4.53c-2.61,1.21-5.47,1.81-8.33,2.02
	c-2.6,0.17-5.22,0.12-7.8-0.22c-1.56-0.21-3.09-0.58-4.53-1.19c1.73-2.47,2.21-5.76,1.24-8.62c-1.08-3.35-4.13-5.95-7.6-6.51
	c0.3-3.46,0.97-6.87,1.82-10.23c1.14-4.4,2.68-8.77,5.22-12.58c1.49-2.22,3.37-4.22,5.62-5.69C410.83,35.18,413.18,34.3,415.59,33.8
	 M460.2,33.26c2.99-0.23,6.02-0.15,8.97,0.43c2.56,0.52,5.11,1.54,6.94,3.46c1.7,1.77,2.55,4.18,2.83,6.58
	c0.4,3.45-0.06,6.92-0.63,10.32c-1.03,5.63-2.25,11.33-5.01,16.41c-1.98,3.68-4.96,6.88-8.73,8.76c-2.74,1.39-5.8,2.11-8.85,2.36
	c-2.8,0.2-5.63,0.14-8.39-0.34c-2.61-0.46-5.25-1.38-7.19-3.25c-1.78-1.69-2.73-4.07-3.05-6.47c-0.44-3.31-0.04-6.68,0.49-9.96
	c1.01-5.7,2.19-11.49,4.88-16.69c1.92-3.75,4.84-7.07,8.59-9.05C453.85,34.3,457.02,33.53,460.2,33.26 M460.2,43.1
	c-0.94,0.14-1.78,0.7-2.36,1.44c-0.9,1.13-1.42,2.49-1.88,3.85c-1.11,3.38-1.77,6.89-2.49,10.37c-0.57,2.87-1.17,5.75-1.33,8.67
	c-0.02,1.18-0.05,2.47,0.65,3.48c0.63,0.85,1.81,0.94,2.78,0.85c1.06-0.07,2.05-0.66,2.67-1.52c0.96-1.29,1.47-2.86,1.96-4.38
	c0.87-2.87,1.51-5.81,2.13-8.75c0.62-3.32,1.34-6.63,1.52-10.01c0.01-1.16,0.04-2.49-0.78-3.4C462.32,42.98,461.16,42.99,460.2,43.1
	 M507.4,34.21c2.59-1.05,5.46-1.23,8.21-0.94c1.68,0.2,3.4,0.66,4.73,1.74c1.58,1.27,2.33,3.27,2.71,5.2
	c1.37-2.08,3.18-3.91,5.35-5.12c2.52-1.45,5.48-2.03,8.37-1.94c2.14,0.08,4.37,0.39,6.19,1.58c1.38,0.9,2.33,2.36,2.71,3.94
	c0.6,2.43,0.26,4.97-0.24,7.39c-2.36,11.48-4.73,22.97-7.1,34.45c-5.13,0.01-10.25,0-15.39,0c2.1-10.14,4.21-20.3,6.32-30.44
	c0.23-1.3,0.49-2.67,0.09-3.95c-0.23-0.77-0.94-1.3-1.71-1.43c-1.4-0.26-3.02-0.04-4.05,1.04c-1.03,1.1-1.45,2.6-1.77,4.02
	c-2.13,10.25-4.25,20.51-6.38,30.76h-15.39c2.1-10.11,4.2-20.22,6.29-30.33c0.26-1.41,0.58-2.94,0.03-4.32
	c-0.37-0.88-1.38-1.26-2.28-1.28c-1.26-0.09-2.63,0.25-3.48,1.24c-0.99,1.13-1.39,2.62-1.7,4.05c-2.12,10.21-4.24,20.42-6.35,30.64
	c-5.13,0.01-10.26,0-15.39,0c3.19-15.4,6.37-30.8,9.57-46.2c4.95,0,9.91-0.01,14.87,0c-0.39,1.92-0.84,3.81-1.18,5.73
	c0.4-0.35,0.64-0.83,0.98-1.23C502.97,36.8,505.02,35.15,507.4,34.21 M16.25,35.8c2.66-1.03,5.51-1.47,8.35-1.6
	c2.58-0.1,5.17-0.03,7.69,0.52c2.39,0.51,4.76,1.58,6.37,3.48c1.78,2.09,2.47,4.88,2.63,7.57c0.31,5.18-0.92,10.27-2.03,15.3
	c-7.6,0.01-15.21-0.01-22.81,0.01c-0.44,2.26-0.9,4.51-1.34,6.77c-0.21,1.2-0.31,2.47,0.11,3.63c0.28,0.78,0.92,1.43,1.74,1.66
	c1.67,0.48,3.63-0.07,4.69-1.48c1.41-1.83,1.96-4.13,2.48-6.33c4.62,0,9.23,0,13.84,0.01c-0.99,4.47-2.81,8.96-6.2,12.16
	c-1.92,1.83-4.29,3.16-6.8,3.96c-3.11,1-6.39,1.28-9.64,1.22c-2.77-0.08-5.58-0.35-8.19-1.34c-1.93-0.74-3.71-1.97-4.86-3.71
	c-1.47-2.18-1.93-4.85-1.98-7.43c-0.06-3.99,0.56-7.96,1.39-11.85c0.88-4.25,2.05-8.47,3.99-12.38c1.15-2.3,2.61-4.47,4.47-6.27
	C11.89,38.01,13.98,36.68,16.25,35.8 M23.1,43.67c-1.33,0.28-2.37,1.3-2.96,2.48c-1.05,2.03-1.41,4.32-1.88,6.54h8.45
	c0.39-2.04,0.97-4.08,0.88-6.17c-0.04-0.94-0.35-1.99-1.21-2.51C25.39,43.45,24.18,43.47,23.1,43.67 M80.44,35.43
	c2.82-0.92,5.81-1.24,8.76-1.26c2.94-0.01,5.93,0.22,8.68,1.31c2.01,0.79,3.8,2.22,4.86,4.11c1.42,2.49,1.74,5.43,1.7,8.25
	c-0.06,4.49-1.11,8.87-2.07,13.24c-7.61,0.02-15.21-0.01-22.82,0.02c-0.42,2.21-0.87,4.42-1.3,6.62c-0.23,1.24-0.36,2.56,0.08,3.77
	c0.27,0.78,0.92,1.43,1.73,1.67c1.67,0.48,3.65-0.07,4.71-1.49c1.4-1.82,1.95-4.12,2.47-6.32c4.62,0,9.23,0,13.85,0.01
	c-0.92,4.14-2.54,8.27-5.47,11.42c-1.77,1.92-4,3.37-6.43,4.31c-2.89,1.12-6.02,1.55-9.12,1.61c-2.97,0.03-5.98-0.14-8.84-1.01
	c-2.19-0.67-4.29-1.88-5.64-3.77c-1.56-2.14-2.08-4.83-2.16-7.43c-0.08-3.36,0.34-6.72,0.96-10.03c1-5.2,2.27-10.45,4.76-15.16
	c1.29-2.41,2.94-4.66,5.04-6.44C76.02,37.32,78.17,36.16,80.44,35.43 M86.32,43.65c-1.3,0.23-2.35,1.18-2.96,2.32
	c-1.14,2.07-1.49,4.44-1.98,6.72c2.82,0,5.63,0,8.45,0c0.39-1.99,0.94-3.99,0.89-6.04c-0.03-0.95-0.29-2.03-1.13-2.58
	C88.62,43.46,87.41,43.48,86.32,43.65 M200.21,36.29c1.88-1.28,4.11-2.1,6.4-2.13c0.87-0.01,1.76,0,2.65,0
	c-0.99,4.78-2,9.56-2.98,14.34c-1.92-0.39-3.91-0.41-5.84-0.22c-2.2,0.23-4.42,1.09-5.88,2.8c-1.57,1.79-2.19,4.15-2.61,6.44
	c-1.65,8-3.31,16.01-4.97,24.01c-5.13,0-10.25,0-15.39,0c3.19-15.4,6.38-30.8,9.57-46.2h14.87c-0.5,2.47-1.06,4.94-1.53,7.42
	c0.13-0.1,0.23-0.22,0.32-0.36C196.14,40,197.94,37.84,200.21,36.29 M227.43,34.28c2.98-0.22,6-0.15,8.93,0.42
	c2.57,0.52,5.15,1.54,6.99,3.47c1.69,1.77,2.55,4.18,2.82,6.58c0.4,3.49-0.07,6.99-0.65,10.43c-1,5.49-2.2,11.03-4.82,15.99
	c-1.91,3.65-4.77,6.87-8.43,8.82c-2.77,1.5-5.88,2.29-9.01,2.58c-2.78,0.23-5.59,0.17-8.34-0.25c-2.7-0.43-5.44-1.34-7.48-3.24
	c-1.79-1.65-2.77-4.02-3.11-6.39c-0.47-3.28-0.09-6.6,0.42-9.85c0.98-5.59,2.12-11.25,4.62-16.37c1.86-3.82,4.69-7.25,8.41-9.36
	C220.72,35.42,224.08,34.56,227.43,34.28 M227.43,44.13c-0.94,0.14-1.77,0.7-2.36,1.43c-0.9,1.13-1.41,2.5-1.88,3.85
	c-1.14,3.49-1.8,7.12-2.56,10.72c-0.55,2.8-1.13,5.6-1.26,8.45c-0.01,1.13-0.02,2.38,0.65,3.34c0.63,0.86,1.81,0.94,2.78,0.86
	c1.1-0.08,2.11-0.71,2.74-1.61c1.03-1.45,1.55-3.16,2.06-4.84c1.25-4.43,2.16-8.94,2.94-13.48c0.3-1.95,0.63-3.91,0.54-5.89
	c-0.06-0.88-0.23-1.89-0.99-2.45C229.31,44,228.32,44.01,227.43,44.13"/>
</svg>
