<?xml version="1.0" encoding="iso-8859-1"?>
<!-- Generator: Adobe Illustrator 19.0.0, SVG Export Plug-In . SVG Version: 6.00 Build 0)  -->
<svg version="1.1" id="Ebene_1" xmlns="http://www.w3.org/2000/svg" xmlns:xlink="http://www.w3.org/1999/xlink" x="0px" y="0px"
	 viewBox="0 0 56.692 18.31" style="enable-background:new 0 0 56.692 18.31;" xml:space="preserve">
<g>
	<g>
		<rect style="fill:#DC281E;" width="18.88" height="18.31"/>
		<rect x="19.373" style="fill:#DC281E;" width="18.22" height="18.31"/>
		<rect x="38.087" style="fill:#DC281E;" width="18.605" height="18.31"/>
		<polygon style="fill:#FFFFFF;" points="1.299,5.401 8.477,5.401 8.477,7.782 6.848,7.782 6.848,7.03 5.128,7.03 5.128,8.313 
			6.574,8.313 6.574,9.979 5.128,9.979 5.128,11.535 6.007,11.535 6.007,13.164 1.299,13.164 1.299,11.572 2.031,11.572 
			2.031,7.177 1.299,7.177 		"/>
		<path style="fill:#FFFFFF;" d="M17.615,11.553l-1.133-2.252c0,0,1.305-0.735,1.224-1.703c-0.164-1.996-2.855-2.197-2.855-2.197
			H9.21v1.758h0.862v4.394H9.338v1.611h4.58v-1.629h-0.751V9.941h0.842l1.372,3.223h3.041v-1.611H17.615z M13.184,8.771v-1.74
			c0,0,1.446-0.055,1.446,0.879C14.63,8.842,13.184,8.771,13.184,8.771"/>
		<path style="fill:#FFFFFF;" d="M27.248,11.554L25.911,7.03h0.879V5.401h-5.86V7.05h0.805l-1.487,4.483l-0.344,0.002v1.629H23
			v-1.61h-0.77l0.163-0.862h2.016l0.167,0.862h-0.733v1.61h4.247v-1.61H27.248z M22.708,9.355l0.805-2.178l0.788,2.178H22.708z"/>
		<polygon style="fill:#FFFFFF;" points="28.694,5.401 31.754,5.401 34.792,9.208 34.792,7.05 34.097,7.05 34.097,5.401 
			37.173,5.401 37.173,7.013 36.622,7.013 36.622,13.164 34.078,13.164 31.22,9.081 31.22,11.535 31.917,11.535 31.917,13.164 
			28.676,13.164 28.676,11.554 29.29,11.554 29.296,7.017 28.694,7.022 		"/>
		<polygon style="fill:#FFFFFF;" points="38.509,5.401 43.051,5.401 43.051,6.886 42.317,6.886 42.317,8.787 44.187,6.892 
			43.638,6.886 43.638,5.401 47.3,5.401 47.3,6.866 46.751,6.866 44.681,9.081 47.043,11.407 47.884,11.407 47.884,13.164 
			43.599,13.164 43.599,11.535 44.333,11.535 42.391,9.484 42.391,11.535 43.033,11.535 43.033,13.164 38.491,13.164 38.491,11.535 
			39.37,11.535 39.37,7.013 38.509,7.022 		"/>
		<polygon style="fill:#FFFFFF;" points="48.306,5.401 55.503,5.401 55.503,7.763 53.726,7.763 53.726,6.866 52.132,6.866 
			52.132,8.478 53.47,8.478 53.47,9.941 52.115,9.941 52.115,11.426 53.745,11.426 53.745,10.51 55.503,10.51 55.503,13.164 
			48.306,13.164 48.306,11.407 49.203,11.407 49.203,6.866 48.306,6.866 		"/>
	</g>
</g>
</svg>
