<?xml version="1.0" encoding="utf-8"?>
<!-- Generator: Adobe Illustrator 25.0.1, SVG Export Plug-In . SVG Version: 6.00 Build 0)  -->
<svg version="1.1" id="Vrstva_1" xmlns="http://www.w3.org/2000/svg" xmlns:xlink="http://www.w3.org/1999/xlink" x="0px" y="0px"
	 viewBox="0 0 517 83" style="enable-background:new 0 0 517 83;" xml:space="preserve">
<g>
	<g>
		<path d="M0.44,60.18V16.03h9.94v35.34h17.5v8.82H0.44z"/>
		<path d="M36.41,23.85V13.71h9.55v10.14H36.41z M36.41,60.18V27.9h9.55v32.29H36.41z"/>
		<path d="M54.98,37.78c0.13-6.5,3.71-10.54,13.19-10.54c2.12,0,3.91,0.26,5.5,0.66h10.08v4.51L80.5,33.6
			c0.53,1.26,0.8,2.72,0.86,4.18v3.91c0,6.17-4.31,10.28-13.19,10.28h-0.99c-0.66,0.4-1.39,0.86-1.39,1.79
			c0,0.73,0.46,1.26,1.06,1.33c4.31,0.46,5.64,0.6,8.02,0.8c5.44,0.46,7.82,2.32,7.82,7.89c0,7.76-4.84,10.14-14.85,10.14
			c-3.18,0-8.62-0.53-12.86-1.66l1.39-6.96c3.85,0.93,7.76,1.33,10.61,1.33c4.97,0,6.96-0.2,6.96-2.32c0-1.26-0.6-1.59-2.52-1.79
			c-3.65-0.33-4.24-0.4-8.22-0.8c-4.38-0.46-6.89-1.39-6.89-5.83c0-2.59,1.19-4.31,2.78-5.9c-2.78-1.66-4.11-4.44-4.11-8.29V37.78z
			 M72.48,41.22v-3.05c0-2.12-1.13-3.38-4.31-3.38c-3.18,0-4.31,1.26-4.31,3.38v3.05c0,2.19,1.19,3.18,4.31,3.18
			C71.29,44.41,72.48,43.41,72.48,41.22z"/>
		<path d="M110.65,60.18V38.84c0-1.46-0.66-2.32-2.32-2.32c-1.72,0-4.91,1.33-6.96,2.39v21.28h-9.55V14.7l9.41-1.33v16.84
			c3.91-1.79,7.82-2.98,11.54-2.98c5.5,0,7.43,4.11,7.43,10.34v22.61H110.65z"/>
		<path d="M142.23,60.85c-6.17,0-9.75-2.32-9.75-8.29V35.59h-4.38V27.9h4.38v-7.76l9.55-1.33v9.08h7.36l-0.53,7.69h-6.83v15.65
			c0,1.33,0.8,1.79,1.99,1.79c1.06,0,2.59-0.13,3.98-0.6l1.13,7.23C147,60.38,144.41,60.85,142.23,60.85z"/>
		<path d="M168.5,60.85c-3.51,0-8.55-0.86-11.73-1.92l1.52-7.09c2.65,0.79,6.17,1.46,9.75,1.46c2.85,0,3.31-0.79,3.31-2.72
			c0-2.05-0.07-2.32-5.24-3.58c-7.82-1.92-8.55-4.04-8.55-10.08c0-6.83,2.65-9.68,12.33-9.68c2.45,0,6.96,0.33,9.81,1.06l-0.86,7.43
			c-2.85-0.53-6.36-0.93-8.88-0.93c-2.78,0-3.45,0.73-3.45,2.19c0,1.99,0.26,2.25,4.11,3.12c9.22,2.06,9.88,4.04,9.88,10.48
			C180.5,57.2,177.72,60.85,168.5,60.85z"/>
		<path d="M201.29,60.85c-6.17,0-9.75-2.32-9.75-8.29V35.59h-4.38V27.9h4.38v-7.76l9.55-1.33v9.08h7.36l-0.53,7.69h-6.83v15.65
			c0,1.33,0.8,1.79,1.99,1.79c1.06,0,2.59-0.13,3.98-0.6l1.13,7.23C206.07,60.38,203.48,60.85,201.29,60.85z"/>
		<path d="M224.09,73.24l3.78-13.06h-3.05l-9.94-32.29h9.68l6.56,22.87l6.56-22.87h9.68l-10.14,32.29l-4.11,13.06H224.09z"/>
		<path d="M254.95,60.18V14.7l9.55-1.33v46.81H254.95z"/>
		<path d="M283.26,47.39v0.93c0,3.71,1.46,4.71,5.83,4.71c2.98,0,6.96-0.53,9.81-1.39l1.39,7.16c-2.92,1.06-7.62,2.05-12.13,2.05
			c-10.48,0-14.45-5.17-14.45-13.13v-7.56c0-6.96,3.12-12.93,13.86-12.93s13.06,6.36,13.06,13.39v6.76H283.26z M291.61,38.84
			c0-2.25-0.66-4.11-3.98-4.11c-3.31,0-4.38,1.86-4.38,4.11v1.39h8.35V38.84z"/>
	</g>
	<g>
		<path d="M340.49,33.94V10.32l2-0.28v23.9H340.49z M352.47,17.17l-6.68,8.27l6.96,8.51h-2.55l-6.82-8.51l6.61-8.27H352.47z"/>
		<path d="M356.71,14v-3.68h2V14H356.71z M356.71,33.94V17.17h2v16.77H356.71z"/>
		<path d="M373.2,33.63c-0.96,0.38-2.31,0.65-3.51,0.65c-2.65,0-3.79-0.96-3.79-3.62V18.89h-3.24v-1.72h3.24v-3.96l2-0.28v4.24h5.13
			l-0.21,1.72h-4.93v11.57c0,1.48,0.21,2.1,1.93,2.1c0.93,0,2-0.17,3-0.48L373.2,33.63z"/>
		<path d="M378.3,28.57c0,3,1.21,3.93,4.34,3.93c1,0,2.17-0.1,3.58-0.35l0.24,1.65c-1.17,0.31-2.69,0.48-3.82,0.48
			c-4.72,0-6.34-2.17-6.34-5.79v-5.89c0-3.62,1.62-5.79,6.34-5.79c1.14,0,2.65,0.17,3.82,0.48l-0.24,1.65
			c-1.41-0.24-2.58-0.35-3.58-0.35c-3.13,0-4.34,0.93-4.34,3.93V28.57z"/>
		<path d="M401.37,33.94V20.37c0-1.24-0.65-1.69-1.83-1.69c-1.38,0-4.34,0.83-6.44,1.93v13.33h-2V10.32l2-0.28v8.61
			c1.79-0.86,4.72-1.83,6.72-1.83c2.62,0,3.55,1.48,3.55,3.79v13.33H401.37z"/>
		<path d="M414.56,32.53c1.72,0,3.65-0.34,5.3-0.79l0.34,1.62c-1.55,0.55-3.75,0.93-5.79,0.93c-4.72,0-6.23-2.45-6.23-6.1v-5.27
			c0-3.45,1.55-6.1,6.27-6.1c4.72,0,6.1,2.65,6.1,6.1v3.24h-10.37v2.1C410.18,31.26,411.22,32.53,414.56,32.53z M410.18,24.37h8.4
			v-1.52c0-2.82-1-4.31-4.13-4.31c-3.13,0-4.27,1.48-4.27,4.31V24.37z"/>
		<path d="M435.8,33.94V20.37c0-1.24-0.65-1.69-1.83-1.69c-1.38,0-4.34,0.83-6.44,1.93v13.33h-2V17.17h1.76l0.14,1.52
			c1.79-0.86,4.79-1.86,6.82-1.86c2.62,0,3.55,1.48,3.55,3.79v13.33H435.8z"/>
		<path d="M361.01,69.71V56.14c0-1.24-0.65-1.69-1.83-1.69c-1.58,0-4.34,0.83-6.44,1.93v13.33h-2V56.14c0-1.24-0.65-1.69-1.83-1.69
			c-1.38,0-4.34,0.83-6.44,1.93v13.33h-2V52.93h1.76l0.14,1.52c1.79-0.86,4.79-1.86,6.82-1.86c1.79,0,2.79,0.69,3.24,1.86
			c1.93-0.9,4.99-1.86,7.03-1.86c2.62,0,3.55,1.48,3.55,3.79v13.33H361.01z"/>
		<path d="M379.88,69.71h-1.72l-0.14-1.31c-1.62,1-3.48,1.65-5.68,1.65c-2.96,0-4.34-1.69-4.34-4.68c0-3.55,1.62-4.65,4.93-4.65
			h4.96v-3.27c0-2.31-1.21-3.06-3.96-3.06c-1.65,0-3.41,0.24-4.96,0.55l-0.31-1.69c1.34-0.38,3.44-0.66,5.17-0.66
			c4.34,0,6.06,1.72,6.06,4.86V69.71z M377.88,62.51h-4.89c-2.31,0-3,0.69-3,2.89c0,1.96,0.41,2.86,2.76,2.86
			c1.65,0,3.62-0.65,5.13-1.72V62.51z"/>
		<path d="M395.65,69.71V56.14c0-1.24-0.65-1.69-1.83-1.69c-1.38,0-4.34,0.83-6.44,1.93v13.33h-2V52.93h1.76l0.14,1.52
			c1.79-0.86,4.79-1.86,6.82-1.86c2.62,0,3.55,1.48,3.55,3.79v13.33H395.65z"/>
		<path d="M405.15,52.93V66.5c0,1.24,0.65,1.69,1.83,1.69c1.38,0,4.34-0.83,6.44-1.93V52.93h2v16.77h-1.76l-0.14-1.52
			c-1.79,0.86-4.79,1.86-6.82,1.86c-2.62,0-3.55-1.48-3.55-3.79V52.93H405.15z"/>
		<path d="M430.19,47.42c-1.1-0.21-2.1-0.31-3.03-0.31c-1.89,0-2.48,0.72-2.48,2.55v3.27h5.17l-0.21,1.72h-4.96v15.05h-2V54.66
			h-3.13v-1.72h3.13v-3.51c0-2.75,1.69-4.03,4.34-4.03c0.96,0,2.45,0.17,3.44,0.48L430.19,47.42z"/>
		<path d="M444.76,69.71h-1.72l-0.14-1.31c-1.62,1-3.48,1.65-5.68,1.65c-2.96,0-4.34-1.69-4.34-4.68c0-3.55,1.62-4.65,4.93-4.65
			h4.96v-3.27c0-2.31-1.21-3.06-3.96-3.06c-1.65,0-3.41,0.24-4.96,0.55l-0.31-1.69c1.34-0.38,3.44-0.66,5.17-0.66
			c4.34,0,6.06,1.72,6.06,4.86V69.71z M442.76,62.51h-4.89c-2.31,0-3,0.69-3,2.89c0,1.96,0.41,2.86,2.76,2.86
			c1.65,0,3.62-0.65,5.13-1.72V62.51z"/>
		<path d="M451.23,64.33c0,3,1.21,3.93,4.34,3.93c1,0,2.17-0.1,3.58-0.34l0.24,1.65c-1.17,0.31-2.69,0.48-3.82,0.48
			c-4.72,0-6.34-2.17-6.34-5.79v-5.89c0-3.62,1.62-5.79,6.34-5.79c1.14,0,2.65,0.17,3.82,0.48l-0.24,1.65
			c-1.41-0.24-2.58-0.34-3.58-0.34c-3.13,0-4.34,0.93-4.34,3.93V64.33z"/>
		<path d="M472.68,69.4c-0.96,0.38-2.31,0.66-3.51,0.66c-2.65,0-3.79-0.96-3.79-3.62V54.66h-3.24v-1.72h3.24v-3.96l2-0.27v4.24h5.13
			l-0.21,1.72h-4.93v11.57c0,1.48,0.21,2.1,1.93,2.1c0.93,0,2-0.17,3-0.48L472.68,69.4z"/>
		<path d="M478.64,52.93V66.5c0,1.24,0.65,1.69,1.83,1.69c1.38,0,4.34-0.83,6.44-1.93V52.93h2v16.77h-1.76l-0.14-1.52
			c-1.79,0.86-4.79,1.86-6.82,1.86c-2.62,0-3.55-1.48-3.55-3.79V52.93H478.64z"/>
		<path d="M502.05,54.55c-1.76,0.76-3.69,2.03-5.3,3.1v12.05h-2V52.93h1.79l0.1,2.55c1.79-1.17,3.58-2.31,5.17-2.89L502.05,54.55z"
			/>
		<path d="M511.01,68.3c1.72,0,3.65-0.35,5.3-0.79l0.34,1.62c-1.55,0.55-3.75,0.93-5.79,0.93c-4.72,0-6.23-2.45-6.23-6.1v-5.27
			c0-3.44,1.55-6.1,6.27-6.1c4.72,0,6.1,2.65,6.1,6.1v3.24h-10.37v2.1C506.63,67.02,507.67,68.3,511.01,68.3z M506.63,60.13h8.4
			v-1.52c0-2.82-1-4.3-4.13-4.3c-3.13,0-4.27,1.48-4.27,4.3V60.13z"/>
	</g>
	<rect x="320.98" y="-0.23" width="1.64" height="83.62"/>
</g>
</svg>
