<?xml version="1.0" encoding="utf-8"?>
<!-- Generator: Adobe Illustrator 25.0.1, SVG Export Plug-In . SVG Version: 6.00 Build 0)  -->
<svg version="1.1" id="Vrstva_1" xmlns="http://www.w3.org/2000/svg" xmlns:xlink="http://www.w3.org/1999/xlink" x="0px" y="0px"
	 viewBox="0 0 338 62" style="enable-background:new 0 0 338 62;" xml:space="preserve">
<style type="text/css">
	.st0{fill:#A60D1F;}
</style>
<g>
	<polygon class="st0" points="71.01,2.38 104.82,2.38 104.82,11.82 98.04,11.82 98.04,50.36 104.82,50.36 104.82,59.79 60.88,59.79 
		60.88,50.36 67.66,50.36 67.66,25.38 42.68,59.79 17.62,25.38 17.62,50.36 24.4,50.36 24.4,59.79 0.11,59.79 0.11,50.36 
		6.81,50.36 6.81,11.82 0.11,11.82 0.11,2.38 38.48,2.38 54.78,24.78 	"/>
	<polygon class="st0" points="148.08,16.63 110.92,16.63 110.92,26.07 117.69,26.07 117.69,50.36 110.92,50.36 110.92,59.8 
		154.85,59.8 154.85,50.36 148.08,50.36 	"/>
	<polygon class="st0" points="142.59,8.3 138.21,-0.02 124.39,7.1 128.77,15.51 	"/>
	<path class="st0" d="M222.23,41.44c0,0,0.18-1.16,0.18-3.19c0-12.17-12.16-23.95-32.49-23.95c-23.53,0-32.49,13.01-32.49,23.95
		c0,10.25,7.76,23.66,32.53,23.66c19,0,29.34-9.25,31.84-17.04c-2.3,0-8.69,0-16.82,0c-0.61,2.38-3.63,8.06-11.15,8.06
		c-5.24,0-8.59-3.4-8.59-7.09v-4.4H222.23z M185.25,27.99c0-1.92,1.64-4.68,4.68-4.68c3.29,0,4.74,2.89,4.74,4.7v6.03h-9.42V27.99z"
		/>
	<polygon class="st0" points="231.85,11.82 225.15,11.82 225.15,2.38 263.6,2.38 263.6,50.36 270.38,50.36 270.38,59.8 225.15,59.8 
		225.15,50.36 231.85,50.36 	"/>
	<path class="st0" d="M337.83,41.44c0,0,0.17-1.16,0.17-3.19c0-12.17-12.16-23.95-32.49-23.95c-23.52,0-32.49,13.01-32.49,23.95
		c0,10.25,7.77,23.66,32.53,23.66c19,0,29.33-9.25,31.84-17.04c-2.3,0-8.69,0-16.82,0c-0.62,2.38-3.63,8.06-11.15,8.06
		c-5.25,0-8.58-3.4-8.58-7.09v-4.4H337.83z M300.84,27.99c0-1.92,1.63-4.68,4.68-4.68c3.29,0,4.74,2.89,4.74,4.7v6.03h-9.42V27.99z"
		/>
</g>
</svg>
