<?xml version="1.0" encoding="utf-8"?>
<!-- Generator: Adobe Illustrator 25.0.1, SVG Export Plug-In . SVG Version: 6.00 Build 0)  -->
<svg version="1.1" id="Vrstva_1" xmlns="http://www.w3.org/2000/svg" xmlns:xlink="http://www.w3.org/1999/xlink" x="0px" y="0px"
	 viewBox="0 0 500 190" style="enable-background:new 0 0 500 190;" xml:space="preserve">
<style type="text/css">
	.st0{fill:#A60D1F;}
	.st1{fill:#FFFFFF;}
</style>
<g>
	<rect x="0.08" y="-0.42" class="st0" width="500.5" height="190.42"/>
	<polygon class="st1" points="141.93,63.05 179.31,63.05 179.31,73.49 171.82,73.49 171.82,116.09 179.31,116.09 179.31,126.53 
		130.73,126.53 130.73,116.09 138.23,116.09 138.23,88.48 110.62,126.53 82.91,88.48 82.91,116.09 90.41,116.09 90.41,126.53 
		63.55,126.53 63.55,116.09 70.95,116.09 70.95,73.49 63.55,73.49 63.55,63.05 105.97,63.05 123.99,87.82 	"/>
	<polygon class="st1" points="227.13,78.81 186.05,78.81 186.05,89.24 193.54,89.24 193.54,116.09 186.05,116.09 186.05,126.53 
		234.63,126.53 234.63,116.09 227.13,116.09 	"/>
	<polygon class="st1" points="221.06,69.6 216.23,60.4 200.95,68.27 205.79,77.57 	"/>
	<path class="st1" d="M309.12,106.23c0,0,0.2-1.28,0.2-3.52c0-13.45-13.45-26.48-35.92-26.48c-26.01,0-35.92,14.38-35.92,26.47
		c0,11.33,8.58,26.16,35.96,26.16c21,0,32.43-10.23,35.2-18.84c-2.54,0-9.61,0-18.59,0c-0.68,2.63-4.02,8.91-12.32,8.91
		c-5.8,0-9.49-3.76-9.49-7.84v-4.86H309.12z M268.23,91.36c0-2.12,1.81-5.18,5.18-5.18c3.63,0,5.24,3.19,5.24,5.2v6.67h-10.42V91.36
		z"/>
	<polygon class="st1" points="319.75,73.49 312.34,73.49 312.34,63.06 354.85,63.06 354.85,116.1 362.35,116.1 362.35,126.53 
		312.34,126.53 312.34,116.1 319.75,116.1 	"/>
	<path class="st1" d="M436.92,106.23c0,0,0.19-1.28,0.19-3.52c0-13.45-13.44-26.48-35.92-26.48c-26,0-35.92,14.38-35.92,26.47
		c0,11.33,8.59,26.16,35.96,26.16c21,0,32.43-10.23,35.2-18.84c-2.55,0-9.61,0-18.59,0c-0.69,2.63-4.02,8.91-12.33,8.91
		c-5.8,0-9.49-3.76-9.49-7.84v-4.86H436.92z M396.03,91.36c0-2.12,1.8-5.18,5.18-5.18c3.64,0,5.24,3.19,5.24,5.2v6.67h-10.41V91.36z
		"/>
</g>
</svg>
