
<svg xmlns="http://www.w3.org/2000/svg" viewBox="0 0 749.48 257.28"><defs><style>.a{fill-rule:evenodd;}</style></defs><path d="M5.18,73.4V174.62H25.92V73.4C39.25,60,64.84,46.29,78.58,60c4.09,4.36,4.91,8.18,4.91,22.64v92h21.56V71.49a39.2,39.2,0,0,0-3.28-15.83c-5.45-12-18.55-19.92-33.29-19.92-14.46,0-28.64,6.82-42.83,21,0-7.91-1.37-13.64-4.91-21.28L0,41.2C4.64,51.57,5.18,54.57,5.18,73.4Z"/><path class="a" d="M196.41,159.89c-13.64,0-26.19-4.91-33.83-16.64-5.09-7.28-6.58-20.34-6.28-33h84.86c.08-31.11-3.57-49.09-15.55-60.3-9-9.82-22.1-15-36.84-15C172.4,34.92,159,41.2,148.12,54c-11.74,13.37-16.37,28.38-16.37,51.3,0,45,22.64,72.3,60.3,72.3,17.46,0,33.83-6,45.83-16.91l-8.18-13.64c-9.55,8.73-20.19,12.82-33.29,12.82Zm-8.73-108c24.85,1.29,30.38,16.74,30.83,42.29H156.3C157.39,66,168.31,51.84,187.68,51.84Z"/><polygon points="304.75 99.32 254 174.62 279.1 174.62 315.93 116.78 352.77 174.62 378.69 174.62 326.57 99.32 366.68 39.29 341.85 39.29 315.93 84.04 289.19 39.29 263 39.29 304.75 99.32 304.75 99.32"/><path d="M423.38,38.47A341.74,341.74,0,0,1,426.11,0L404,4.91c-1.23,14.05-2.37,25.62-2.18,33.56H384.09V55.11h17.74v93.05c0,13.64,3.54,22.37,13.09,27,11.65,6.07,31,4.41,41.75-1.64l-3-13.64c-3.82,1.91-7.64,2.73-13.64,2.73-13.37,0-17.47-5.19-17.47-20.19V55.11h28.65l6.55-16.64Z"/><path d="M474.41,94.11l3.5,8.85c9.68-3.91,19.15-7.41,28-13.18v71.87H487v13h54.16v-13H522.19V70.22H509.63L474.41,94.11Z"/><path d="M674.92,141.88c6-2.68,16.06-4.53,26.15-4.53,48.85.13,36.35,64.83-13.79,64.25-6.59,0-10.92-.83-15.45-2.88l2.89,12.35c33.7,9.09,75.67-12,74.75-46.95-.1-32.14-28.94-42.93-56.84-38.1l3.5-39.94H740l2.48-13.59h-61l-6.59,69.39Z"/><path d="M601.64,161.44c-7.21,0-16.27.42-21.21.83,14.66-10.44,39.5-28.22,49-38.92,7-7.42,11.12-16.89,11.12-25.74C640.56,78.87,624.91,68,603.7,68c-15,0-27.8,5.77-43.24,19.16l6.59,8.23C580.2,85.53,590.24,81.63,599.58,82c14,0,21.83,6.38,21.83,17.91,0,7.21-1.65,10.3-4.74,15.65-3.09,5.15-10.7,11.53-22.65,21.42l-16.27,13.59c-6,4.94-14.41,11.12-14.41,11.12v13H642l3.3-13.18Z"/><path d="M155.09,257.16a6.25,6.25,0,0,1-4.15-4.46c-2.93,2.93-5.31,4.09-8.79,4.09-7.5,0-9.76-4.58-9.76-8.66-.28-7.69,8.2-11.63,18.24-10.87,0-2.21.19-6-1-6.89-3.29-3.7-11.08-.39-13.79,1.95l-2.38-3.41a22.86,22.86,0,0,1,12.75-4.09c7.47,0,9.59,4.78,9.09,11.47l-.24,10c-.13,4.94.18,6.22,2.44,7.44Zm-7-16.72c-7.69,0-10.43,2.62-10.43,7.26,0,3.6,1.77,5.55,5.24,5.55a8.34,8.34,0,0,0,7.39-4.76l.18-7.93C149.9,240.5,148.8,240.44,148.13,240.44Z"/><path d="M190.65,257.28c-2-1.65-2.87-2.87-3.29-4.88-3.52,5.6-14.72,6.61-17.64.3a10.85,10.85,0,0,1-.79-4.51V225.86l4.7-.92v21.84c0,2.87.42,4.15,1.83,5.13,4.1,2.56,9.19.14,11.47-4.46V225.92l4.7-.8v22.15c0,3.84.54,5.37,2.07,6.77Z"/><path d="M216.69,229.21h-6.34V248.8c0,3.35.91,4.51,3.9,4.51a6,6,0,0,0,3-.61l.68,3.05c-4.81,2.44-12.81,1.67-12.27-5.67V229.21h-4v-3.6h4c0-2.62.37-6.71.49-7.69l5-1.09a81.31,81.31,0,0,0-.61,8.78h7.63Z"/><path d="M245.92,256V235c0-2.26-.31-3.66-1.16-4.52-3.9-3-9-.23-12.39,3.91V256h-4.76c-.3-4.15.79-40.8-.79-43.69l4.76-.91a26,26,0,0,1,.79,7.19c0,2.25.08,9.51-.18,11.23,2.74-2.56,6.22-4.82,10.13-4.82,3.66,0,7,2,7.81,4.82,1,2.47.28,23.11.48,26.18Z"/><path d="M268.3,241.6c-.07,2.84.26,5.75,1.4,7.38,3.26,5,11,4.74,15,.85l1.83,3a15.12,15.12,0,0,1-10.25,3.79c-8.42,0-13.48-6.1-13.48-16.17-.22-8.45,4.51-15.6,12.75-15.68a11.26,11.26,0,0,1,8.24,3.29c2.69,2.51,3.6,6.53,3.47,13.49Zm12.51-10.38a6.49,6.49,0,0,0-5.49-2.68c-4.34,0-6.78,3.17-7,9.46h13.91C282.15,234.7,281.72,232.69,280.81,231.22Z"/><path d="M316.37,256V235.44c0-3.24-.25-4-1.1-5.07-3.28-3.06-8.63-.07-11.77,3V256h-4.64V232.57a14.5,14.5,0,0,0-1.16-6.41l4.64-1.28a11.94,11.94,0,0,1,1.09,4.76c5.07-5.51,13.57-6.86,17-.25a8.73,8.73,0,0,1,.73,3.54V256Z"/><path d="M346.26,229.21h-6.35V248.8c0,3.35.92,4.51,3.91,4.51a6,6,0,0,0,3-.61l.67,3.05c-4.8,2.44-12.81,1.67-12.26-5.67V229.21h-4v-3.6h4c0-2.62.36-6.71.48-7.69l5-1.09a78.72,78.72,0,0,0-.61,8.78h7.62Z"/><path d="M359.74,219.94c-5-.12-4.85-7.32,0-7.45C364.65,212.59,364.65,219.84,359.74,219.94ZM357.18,256V225.73l4.94-.79V256Z"/><path d="M387,256.67c-8.93.07-12.68-7-12.63-15.38,0-6.65,1.95-10.31,4.57-12.93,4.53-4.93,12.29-4.39,16.54-.25l-2.63,3.3c-3.54-3.48-9.13-3.31-11.53,1-1.16,2.13-1.71,5.48-1.71,9.94,0,6.83,2.63,10.55,7.51,10.55a8.46,8.46,0,0,0,6.53-3.29l2.62,3A11.84,11.84,0,0,1,387,256.67Z"/><path d="M422.93,256c-.3-4.15.79-40.8-.79-43.69l4.76-.91c1.54,3.28.51,40,.79,44.6Zm18.92,0-14-17.21,11.6-13.18h6l-12,13.18L448.19,256Z"/><path d="M458.68,219.94c-5-.12-4.85-7.32,0-7.45C463.6,212.59,463.59,219.84,458.68,219.94ZM456.12,256V225.73l4.94-.79V256Z"/><path d="M486.07,229.21h-6.34V248.8c0,3.35.91,4.51,3.9,4.51a6,6,0,0,0,3-.61l.67,3.05c-4.84,2.43-12.77,1.7-12.26-5.67V229.21h-4v-3.6h4c0-2.62.36-6.71.49-7.69l5-1.09a81.31,81.31,0,0,0-.61,8.78h7.63Z"/><path d="M507.48,256.67c-8.93.07-12.67-7-12.63-15.38,0-6.65,1.95-10.31,4.58-12.93,4.53-4.93,12.29-4.39,16.53-.25l-2.62,3.3c-3.55-3.48-9.14-3.31-11.53,1-1.16,2.13-1.71,5.48-1.71,9.94,0,6.83,2.62,10.55,7.5,10.55a8.46,8.46,0,0,0,6.53-3.29l2.63,3A11.85,11.85,0,0,1,507.48,256.67Z"/><path d="M545.67,256V235c0-2.26-.31-3.66-1.16-4.52-3.89-3-9-.23-12.39,3.91V256h-4.76c-.3-4.15.79-40.8-.79-43.69l4.76-.91a26,26,0,0,1,.79,7.19c0,2.25.08,9.51-.18,11.23,2.75-2.56,6.23-4.82,10.13-4.82,3.66,0,6.95,2,7.81,4.82,1,2.47.29,23.11.49,26.18Z"/><path d="M568.05,241.6c-.06,2.84.27,5.75,1.4,7.38,3.27,5,11,4.73,15,.85l1.84,3a15.15,15.15,0,0,1-10.25,3.79c-8.42,0-13.49-6.1-13.49-16.17-.22-8.45,4.51-15.6,12.75-15.68a11.23,11.23,0,0,1,8.24,3.29c2.7,2.51,3.6,6.53,3.48,13.49Zm12.51-10.38a6.48,6.48,0,0,0-5.49-2.68c-4.33,0-6.77,3.17-7,9.46H582C581.9,234.7,581.48,232.69,580.56,231.22Z"/><path d="M616.13,256V235.44c0-3.24-.25-4-1.1-5.07-3.28-3.06-8.64-.06-11.78,3V256h-4.63V232.57a14.5,14.5,0,0,0-1.16-6.41l4.63-1.28a11.71,11.71,0,0,1,1.1,4.76c5.07-5.51,13.57-6.86,17-.25a8.74,8.74,0,0,1,.74,3.54V256Z"/></svg>