<?xml version="1.0" encoding="utf-8"?>
<!-- Generator: Adobe Illustrator 25.0.1, SVG Export Plug-In . SVG Version: 6.00 Build 0)  -->
<svg version="1.1" id="Layer_1" xmlns="http://www.w3.org/2000/svg" xmlns:xlink="http://www.w3.org/1999/xlink" x="0px" y="0px"
	 viewBox="0 0 534.87 92.31" style="enable-background:new 0 0 534.87 92.31;" xml:space="preserve">
<style type="text/css">
	.st0{fill:#E30613;}
	.st1{fill:#E20613;}
	.st2{fill:none;}
</style>
<g>
	<path class="st0" d="M429.2,91.3h-33.19l0,0l0,0c-0.41,0-0.95,0.14-1.36-0.14c-0.68-0.27-1.09-0.68-1.36-1.36
		c-0.27-0.41-0.14-0.95-0.14-1.36l0,0l0,0V26.28l0,0l0,0c0-0.41-0.14-0.95,0.14-1.36c0.27-0.54,0.68-1.09,1.22-1.36
		c0.55-0.14,0.96-0.14,1.5-0.14l0,0l0,0h33.19l0,0l0,0c0.54,0,1.09,0,1.63,0.14c0.55,0.27,0.95,0.68,1.09,1.22
		c0.27,0.54,0.27,0.95,0.27,1.5l0,0l0,0v62.16l0,0l0,0c0,0.54,0,0.95-0.14,1.5c-0.27,0.54-0.82,0.95-1.36,1.22
		C430.29,91.43,429.75,91.3,429.2,91.3L429.2,91.3L429.2,91.3L429.2,91.3L429.2,91.3L429.2,91.3L429.2,91.3z"/>
	<path class="st1" d="M428.53,0.68l-30.72,0.02h-1.39l0,0c-0.41,0-0.95,0-1.36,0.27c-0.55,0.27-1.09,0.68-1.36,1.22
		c-0.14,0.54-0.14,1.09-0.14,1.5l0,0l0,0v11.56l0,0l0,0c0,0.54,0,0.95,0.14,1.5c0.27,0.54,0.68,1.09,1.36,1.22
		c0.41,0.14,0.95,0.27,1.36,0.27l0,0l0,0h32.37l0,0l0,0c0.41,0,1.09-0.14,1.5-0.27c0.54-0.27,1.09-0.68,1.36-1.22
		c0.14-0.54,0.14-0.95,0.14-1.5l0,0l0,0V3.7l0,0l0,0c0-0.41,0-0.95-0.14-1.5c-0.27-0.54-0.82-0.95-1.49-1.22
		c-0.41-0.27-0.62-0.16-1.03-0.3l-0.33,0.02l0,0l0,0l0,0l0,0L428.53,0.68z"/>
	<path class="st1" d="M58.82,57.78c0-1.63-0.16-2.67-0.7-4.16c-1.36-3.67-5.17-4.76-8.84-4.76c-3.81,0-7.89,1.36-9.52,5.17
		c-0.41,1.36-0.47,2.2-0.61,3.7l0,0c0,0.54,0,1.09,0,1.63l0,0l0,0v28.57l0,0l0,0c0,0.54,0,0.95-0.27,1.49
		c-0.14,0.68-0.82,1.22-1.5,1.36c-0.41,0.14-0.82,0-1.22,0l0,0l0,0H2.96l0,0l0,0c-0.41,0-0.95,0.14-1.36-0.14
		c-0.68-0.27-1.22-0.82-1.5-1.5c-0.14-0.41,0-0.82,0-1.22l0,0l0,0v-30.2l0,0l0,0L0.01,26.9l0.02-0.62l0,0
		c0-0.41-0.14-0.95,0.14-1.36c0.27-0.68,0.82-1.22,1.5-1.36c0.41-0.14,0.82-0.14,1.22-0.14l0,0l0,0h32.92l0,0l0,0
		c0.54,0,0.95,0,1.5,0.14c0.54,0.27,1.36,0.95,1.36,1.63c0.14,0.41,0.14,0.82,0.14,1.09l0,0l0,0v6.67l0,0l0,0l0,0
		c0.95-2.99,5.17-5.17,7.62-6.67c5.44-3.13,11.97-3.67,18.09-3.94c5.31-0.14,10.61,0.14,15.64,1.5c9.39,2.31,15.37,9.93,16.87,19.18
		c0.54,3.54,0.82,7.07,0.82,10.61l0,0l0,0v4.62l0,0l0,0v30.2l0,0l0,0c0,0.54,0,0.95-0.14,1.5c-0.27,0.68-0.95,1.22-1.63,1.36
		c-0.27,0.14-0.68,0-1.09,0l0,0l0,0H61.79l0,0l0,0c-0.41,0-0.95,0.14-1.36,0c-0.68-0.41-1.36-0.82-1.5-1.63
		c-0.14-0.41-0.14-0.82-0.14-1.22l0,0l0,0V59.88l0,0l0,0c0-0.54,0-1.09,0-1.63l0,0l0,0l0,0l0,0L58.82,57.78z"/>
	<path class="st1" d="M347.84,3.7v84.74l0,0l0,0c0,0.41,0,1.09,0.14,1.36c0.27,0.82,0.95,1.09,1.49,1.5c0.41,0.14,0.95,0,1.36,0l0,0
		l0,0h33.05l0,0l0,0c0.41,0,0.95,0.14,1.36-0.14c0.68-0.27,1.23-0.68,1.5-1.36c0.14-0.27,0.14-0.95,0.14-1.36l0,0l0,0V3.7l0,0l0,0
		c0-0.41,0-1.09-0.27-1.5c-0.14-0.54-0.82-0.95-1.36-1.22c-0.41-0.27-0.95-0.14-1.36-0.27l0,0l0,0h-33.05l0,0l0,0
		c-0.41,0-0.95,0-1.23,0.14c-0.82,0.41-1.36,0.82-1.63,1.5C347.84,2.75,347.84,3.29,347.84,3.7L347.84,3.7L347.84,3.7L347.84,3.7
		L347.84,3.7L347.84,3.7L347.84,3.7z"/>
	<path class="st1" d="M338.73,91.3h-33.19l0,0l0,0c-0.41,0-0.95,0.14-1.36-0.14c-0.68-0.27-1.09-0.68-1.36-1.36
		c-0.27-0.41-0.14-0.95-0.14-1.36l0,0l0,0V26.28l0,0l0,0c0-0.41-0.14-0.95,0.14-1.36c0.27-0.54,0.68-1.09,1.22-1.36
		c0.55-0.14,0.96-0.14,1.5-0.14l0,0l0,0h33.19l0,0l0,0c0.54,0,1.09,0,1.63,0.14c0.55,0.27,0.95,0.68,1.09,1.22
		c0.27,0.54,0.27,0.95,0.27,1.5l0,0l0,0v62.16l0,0l0,0c0,0.54,0,0.95-0.14,1.5c-0.27,0.54-0.82,0.95-1.36,1.22
		C339.82,91.44,339.27,91.3,338.73,91.3L338.73,91.3L338.73,91.3L338.73,91.3L338.73,91.3L338.73,91.3L338.73,91.3z"/>
	<path class="st1" d="M337.7,0.74l-30.37-0.03h-1.39l0,0c-0.41,0-0.95,0-1.36,0.27c-0.55,0.27-1.09,0.68-1.36,1.22
		c-0.14,0.54-0.14,1.09-0.14,1.5l0,0l0,0v11.56l0,0l0,0c0,0.54,0,0.95,0.14,1.5c0.27,0.54,0.68,1.09,1.36,1.23
		c0.41,0.14,0.95,0.27,1.36,0.27l0,0l0,0h32.37l0,0l0,0c0.41,0,1.09-0.14,1.5-0.27c0.54-0.27,1.09-0.68,1.36-1.23
		c0.14-0.54,0.14-0.95,0.14-1.5l0,0l0,0V3.7l0,0l0,0c0-0.41,0-0.95-0.14-1.5c-0.27-0.54-0.82-0.95-1.49-1.22
		c-0.5-0.24-0.42-0.04-0.83-0.18l-0.59-0.03l0,0l0,0l0,0l0,0L337.7,0.74z"/>
	<g>
		<path class="st1" d="M533.92,24.1c-0.41-0.41-1.09-0.68-1.63-0.68c-0.27,0-0.41,0-0.68,0h-32.78c-0.27,0-0.41,0-0.68,0
			c-0.54,0-1.22,0.27-1.63,0.68c-0.41,0.41-0.68,0.95-0.68,1.63c0,0.27,0,0.41,0,0.54v5.17c-0.55-0.27-0.95-0.82-1.22-1.22
			c-0.95-0.95-2.04-1.77-3.13-2.45c-2.34-1.46-4.9-2.86-7.62-3.67c-4.63-1.36-9.52-1.77-14.28-1.77c-5.85,0-11.7,0.68-17.28,2.86
			c-8.7,3.54-14.28,11.7-15.91,20.81c-0.95,5.03-1.22,10.34-0.95,15.37c0.55,10.2,3.94,20.4,13.06,26.12
			c6.12,3.81,13.33,4.76,20.4,4.76c4.08,0.14,8.16,0,12.24-0.68c3.68-0.54,7.21-1.91,10.34-3.94c0.82-0.54,1.36-0.95,2.04-1.5
			c0.82-0.68,1.63-1.49,2.31-2.18v4.49c0,0.14,0,0.41,0,0.54c0,0.68,0.27,1.22,0.68,1.63c0.55,0.54,1.09,0.68,1.63,0.68
			c0.27,0,0.41,0,0.68,0h32.78c0.27,0,0.41,0,0.68,0c0.55,0,1.22-0.14,1.63-0.68c0.41-0.41,0.68-0.95,0.68-1.63
			c0-0.14,0-0.41,0-0.54V26.28c0-0.14,0-0.41,0-0.54C534.6,25.06,534.33,24.51,533.92,24.1z M494.34,67.77
			c-0.82,0.95-1.77,1.9-2.86,2.72c-1.49,0.95-3.27,1.5-5.03,1.77c-2.31,0.27-4.9,0-7.07-0.95c-2.86-1.22-4.9-3.81-5.85-6.66
			c-0.95-2.72-1.09-5.71-0.82-8.57c0.27-3.54,1.63-7.07,4.62-9.11c2.45-1.77,5.44-1.9,8.43-1.9c2.04,0.14,4.08,0.54,5.71,1.63
			c1.09,0.54,1.9,1.36,2.72,2.31c2.04,2.72,2.59,6.26,2.59,9.39C496.79,61.65,496.24,65.05,494.34,67.77z"/>
	</g>
	<g>
		<path class="st1" d="M197.13,55.52c-0.54-11.56-4.63-22.58-15.51-28.43c-9.93-5.31-21.76-5.98-32.78-5.98
			c-6.8,0-13.87,0.27-20.54,1.77c-10.61,2.18-20,7.48-24.62,17.68c-2.31,5.17-2.86,10.75-3.13,16.19c0,0.54,0.03,0.66,0.03,1.2
			l-0.03,0.3c0.14,7.07,1.77,14.28,5.85,20.13c7.89,11.7,22.17,14.55,35.64,15.1c5.44,0.14,10.75,0.14,16.19-0.14
			c14.69-0.82,29.52-5.58,35.91-19.86c2.04-4.76,2.99-10.07,3.13-15.24C197.27,57.29,197.27,56.34,197.13,55.52z M161.36,59.06
			c-0.14,3.54-0.82,7.07-3.26,9.79c-2.45,2.58-5.85,3.4-9.25,3.4c-2.72,0-5.71-0.54-8.03-2.18c-3.26-2.72-4.22-7.07-4.49-11.15
			c0-0.27,0-0.41,0-0.68c0-3.54,0.68-7.89,3.26-10.74c2.45-2.45,5.98-3.13,9.25-3.13c2.45,0,5.17,0.41,7.34,1.63
			c4.22,2.58,5.31,7.62,5.17,12.24V59.06z"/>
	</g>
	<g>
		<path class="st1" d="M298.33,46c-1.63-9.11-7.21-17.27-15.91-20.81c-5.44-2.31-13.18-3.55-18.89-3.55l-1.75-0.01
			c-4.76,0.27-9.66,1.09-14.01,2.99c-3.26,1.5-6.12,3.54-8.71,6.12V2.99c0-0.14,0-0.27,0-0.54c-0.13-0.68-0.27-1.22-0.68-1.63
			c-0.54-0.54-1.09-0.54-1.63-0.68c-0.27,0-0.41-0.14-0.54-0.14h-33.19c-0.14,0-0.27,0.14-0.54,0.14c-0.68,0-1.09,0.14-1.63,0.68
			c-0.54,0.41-0.68,0.95-0.68,1.63c-0.14,0.14,0,0.41,0,0.54l0.02,53.98l-0.03,0.97v0.59l-0.02,29.9c0,0.14-0.14,0.41,0,0.54
			c0,0.68,0.14,1.22,0.68,1.63c0.54,0.54,0.95,0.68,1.63,0.68c0.27,0,0.41,0,0.54,0h32.78c0.27,0,0.41,0,0.68,0
			c0.54,0,1.09-0.14,1.63-0.68c0.41-0.41,0.68-0.95,0.68-1.63c0-0.14,0-0.41,0-0.54v-4.49c1.09,1.5,2.86,2.58,4.35,3.54
			c5.03,3.4,10.61,4.35,16.6,4.76c0.68,0,1.36,0,2.04,0c1.9,0,3.81,0.14,5.71,0c8.02-0.41,15.64-2.04,21.9-7.48
			c6.94-5.98,9.39-14.96,9.93-23.8C299.55,56.07,299.28,50.9,298.33,46z M261.74,63.41c-0.54,1.9-1.36,3.81-2.72,5.31
			c-2.18,2.58-5.58,3.54-8.84,3.54c-3.26,0-6.53-0.95-8.84-3.54c-2.58-2.72-3.27-6.67-3.27-10.34l0.03-0.85
			c0-3.67,0.95-7.62,3.67-10.34c2.31-2.18,5.3-2.72,8.43-2.86c2.99,0,6.26,0.68,8.43,2.86c1.5,1.36,2.58,3.26,3.13,5.44
			c0.41,1.63,0.51,3.97,0.51,5.74C262.28,60.15,262.15,61.78,261.74,63.41z"/>
	</g>
	<g>
		<path d="M534.6,6.42c-0.82-3.54-3.81-6.8-8.84-6.8c-4.9,0-7.75,3.26-8.57,6.8c-0.13,0.82-0.13,1.5-0.13,2.18
			c0,4.63,2.86,9.11,8.7,9.25c6.12,0,9.11-4.62,9.11-9.25C534.87,7.92,534.74,7.24,534.6,6.42z M525.76,16.62
			c-5.03,0-7.62-3.94-7.62-8.03c0-0.68,0.14-1.36,0.27-2.18c0.82-2.99,3.27-5.58,7.35-5.58c4.35,0,6.8,2.58,7.62,5.58
			c0.14,0.82,0.27,1.5,0.27,2.18C533.65,12.68,531.07,16.62,525.76,16.62z"/>
		<g>
			<path class="st2" d="M526.3,4.93h-2.18v1.5v1.77h2.18c0.95,0,1.9-0.68,1.9-1.77C528.34,5.2,527.39,4.93,526.3,4.93z"/>
			<path d="M527.94,9.41c0.41-0.27,0.82-0.54,1.09-0.82c0.54-0.54,0.95-1.22,0.95-2.18c0-1.9-1.77-2.99-3.67-2.99h-3.94v1.1v5.95
				v3.28h1.77V9.69h1.91l2.31,4.08h2.04L527.94,9.41z M526.3,8.19h-2.18V6.42v-1.5h2.18c1.09,0,2.04,0.27,1.9,1.5
				C528.21,7.51,527.25,8.19,526.3,8.19z"/>
		</g>
	</g>
</g>
</svg>
