<svg id="Layer_1" data-name="Layer 1" xmlns="http://www.w3.org/2000/svg" viewBox="0 0 1180.9885 274.6677">
  <defs>
    <style>
      .cls-1 {
        fill: #e1001a;
      }
    </style>
  </defs>
  <path d="M314.31,9.62h62.72V67.79c1.85-1.36,2.87-2.06,3.84-2.82,14.66-11.74,31.12-15.19,49.22-10.31,8.6,2.32,15.58,7.35,21.27,14.14a32.44,32.44,0,0,1,7.33,19.73c.62,12.09,1.36,24.2,1.41,36.3.16,46.66.06,93.32.06,140v5.58H397.01v-5.82q0-75.46-.12-150.92a119.7279,119.7279,0,0,0-1.11-15.37c-.7-5.33-3.37-7.68-8-7.89-4.82-.21-8.17,2.09-8.88,7.51a185.24,185.24,0,0,0-1.62,23.29c-.15,47.49-.08,95-.08,142.46v6.69H314.31Z" transform="translate(0.0285 0.0005)"/>
  <path d="M563.66,56.71h62.73V270.29H562.63c.3-5.3.59-10.5.93-16.6-1.29,1.46-2.09,2.22-2.73,3.1-9.32,12.73-22.15,18.12-37.63,17.6a58.4563,58.4563,0,0,1-13.3-1.89c-16.16-4.39-24.64-15.9-27-31.74-1.47-10-1.66-20.18-1.7-30.28-.18-49.81-.12-99.62-.13-149.44,0-1.3.12-2.6.2-4.23h63v5.86q0,74,.12,147.94a182.9825,182.9825,0,0,0,1,18.87c.55,5.23,3.6,7.38,8.91,7.2s8-2.42,8.36-7.83c.47-6.45.89-12.92.9-19.39q.13-73.21.08-146.44Z" transform="translate(0.0285 0.0005)"/>
  <path d="M908.44,181.43h59.74c.05,12,.27,23.68-.71,35.42a62.5013,62.5013,0,0,1-10.62,30.12c-8.83,13.22-20.82,21.71-36.37,25.06a104.54,104.54,0,0,1-52.8-1.76c-25.78-7.73-40.64-26.18-43.12-53.21-.65-7.09-1-14.24-1.08-21.37-.13-23.4-.3-46.82.09-70.22a152.3838,152.3838,0,0,1,2.92-26.14c4-20.83,16.6-34.78,36.56-41.7a92.18,92.18,0,0,1,65,1c20.64,8,33.22,23.35,37.12,45.16a217.7135,217.7135,0,0,1,3,27.67c.51,10.6.15,21.24.16,31.87,0,1.12-.09,2.23-.16,3.77H886.81c-.17,1.67-.4,2.94-.4,4.2,0,15.11-.06,30.22.06,45.32a93.0871,93.0871,0,0,0,1,11.9c.72,5.24,3.15,7.54,8,8.06,5.21.57,9.68-1.77,10.92-6.61a66.999,66.999,0,0,0,2-14.23c.31-9.62.13-19.25.15-28.88C908.45,185.21,908.44,183.62,908.44,181.43Zm-22-49.27h18.42c0-8.3.15-16.37-.06-24.43a61.5589,61.5589,0,0,0-1.41-11.8c-.94-4.2-3.65-5.76-8.18-5.52s-7.11,2.11-7.7,6.25c-1.69,11.67-1.01,23.41-1.12,35.5Z" transform="translate(0.0285 0.0005)"/>
  <path d="M133.58,124.47H77.86v-5.36c-.23-6.63-.34-13.28-.8-19.9-.41-6.05-2.5-8.26-7.5-8.76-5.65-.57-10.19,1.7-11.25,6.83-2.77,13.43-2.41,26.32,11,34.25,9.14,5.41,18.54,10.41,27.74,15.74,6.61,3.82,13.19,7.73,19.61,11.86,12.75,8.19,19.54,20.12,21.08,35a129.8811,129.8811,0,0,1-2,41.62c-4.06,18.44-16.31,29.38-33.77,34.49a105.25,105.25,0,0,1-68.07-2.62,65.284,65.284,0,0,1-10.2-5.2c-12.39-7.38-18.65-18.84-20.21-32.68-1.2-10.69-1.16-21.52-1.65-32.28a6.6708,6.6708,0,0,1,.48-1.73H57.64c0,2.13-.07,4.07,0,6,.36,8.62.29,17.28,1.27,25.83,1,8.32,8.52,11.79,15.88,7.61a9.26,9.26,0,0,0,4.09-5.23,58.54,58.54,0,0,0-.3-27.13c-.7-3-2.84-4.82-5.3-6.33-9.64-5.9-19.32-11.73-28.94-17.67-6.65-4.1-13.22-8.32-19.8-12.52C9.76,156.86,1.8,143.34.48,125.96c-1-12.63-.66-25.21,2.24-37.63S12.85,67.28,23.95,61.51a79.6977,79.6977,0,0,1,30.08-8.37c15.4-1.39,30.61-.55,45.36,4.5,11.12,3.81,20.63,9.91,27.34,19.86,2.93,4.33,5.17,8.91,5.78,14.14A212.1283,212.1283,0,0,1,133.58,124.47Z" transform="translate(0.0285 0.0005)"/>
  <path d="M238.97,182.82h56.42c-.51,11.24-1,22.15-1.51,33.06a58.76,58.76,0,0,1-6.49,23.81c-10.14,20.22-26.74,31.18-49,33.93a109.371,109.371,0,0,1-38.21-1.76c-23.66-5.45-38.18-20.21-42.89-43.83a179.1187,179.1187,0,0,1-3.24-31.61c-.47-24.06-.17-48.15-.15-72.22a130.5223,130.5223,0,0,1,3.06-29.15,44.52,44.52,0,0,1,14.4-23.9,72.09,72.09,0,0,1,41.87-18c16.54-1.62,32.62-.13,47.67,7.38,16.74,8.34,27.78,21.16,31.24,40a178.5347,178.5347,0,0,1,2.87,36.36H235.8v-5.3c-.24-10.11-.45-20.23-.79-30.35a18.44,18.44,0,0,0-1.12-5.32c-1.37-4-4.16-5.74-8.42-5.52s-6.7,2.19-7.5,6.58a59.5058,59.5058,0,0,0-1.05,10.38q-.1,54,0,108.1a63.7041,63.7041,0,0,0,1.1,10.37,20.6131,20.6131,0,0,0,2,5.59c1.8,3.59,4.81,5.5,8.89,5.16s7.07-2.6,7.91-6.51a89.15,89.15,0,0,0,2-15.24c.33-9,.13-17.93.15-26.9Z" transform="translate(0.0285 0.0005)"/>
  <path d="M649.87,9.62h64.31V270.27H649.87Z" transform="translate(0.0285 0.0005)"/>
  <path d="M737.75,9.62h64.31V270.26H737.75Z" transform="translate(0.0285 0.0005)"/>
  <path d="M989.46,56.7h62.66c-.72,8.46-1.41,16.65-2.1,24.84l.76.33c.71-1.13,1.49-2.23,2.13-3.4A56.53,56.53,0,0,1,1067,61.21c6.58-5.25,14.62-8.25,22.2-8.2v74.46c-5.09.57-9.86,1.08-14.61,1.65a23.555,23.555,0,0,0-3.41.74c-11.34,3.19-17.09,10-17.88,21.72-.55,8.28-1,16.58-1,24.87-.14,29.39-.08,58.78-.09,88.17v5.71H989.47Z" transform="translate(0.0285 0.0005)"/>
  <path class="cls-1" d="M1090.74,270.5V181.8c3.6-1.19,82-1.62,90-.5v88.83C1177.39,271.2,1098.56,271.62,1090.74,270.5Z" transform="translate(0.0285 0.0005)"/>
  <path d="M500.15.19h40.07v41.2H500.15Z" transform="translate(0.0285 0.0005)"/>
  <path d="M608.55.3V41.47h-40V.3Z" transform="translate(0.0285 0.0005)"/>
  <path d="M1180.96,35.71A35.65,35.65,0,1,1,1145.3705,0l.12,0A35.89,35.89,0,0,1,1180.96,35.71Zm-67.11,0a31.49,31.49,0,0,0,31.36,31.49c17.38.05,31.92-14.55,31.68-31.83a31.62,31.62,0,0,0-31.77-31.15,31.29,31.29,0,0,0-31.27,31.31q0,.08,0,.16Z" transform="translate(0.0285 0.0005)"/>
  <path d="M1151.78,38.14l9.21,16c-6.56,1.33-6.66,1.29-9.39-3.64-1.45-2.61-2.88-5.22-4.33-7.83-2.42-4.36-2.42-4.35-8.24-3.58V54.51l-5.69.29V16.92c6.24,0,12.4-.6,18.39.16,7.41.93,10.82,7.28,8.79,14.38C1159.39,35.51,1156.39,37.22,1151.78,38.14ZM1139.2,21.62V33.09c3.77,0,7.25.24,10.67-.06s4.85-2,5.07-5.09-1.19-5-4.5-5.54A97.4044,97.4044,0,0,0,1139.2,21.62Z" transform="translate(0.0285 0.0005)"/>
</svg>
