<?xml version="1.0" encoding="utf-8"?>
<!-- Generator: Adobe Illustrator 25.0.1, SVG Export Plug-In . SVG Version: 6.00 Build 0)  -->
<svg version="1.1" id="Vrstva_1" xmlns="http://www.w3.org/2000/svg" xmlns:xlink="http://www.w3.org/1999/xlink" x="0px" y="0px"
	 viewBox="0 0 446 189" style="enable-background:new 0 0 446 189;" xml:space="preserve">
<style type="text/css">
	.st0{fill:#FFFFFF;}
	.st1{fill-rule:evenodd;clip-rule:evenodd;fill:#009BA4;}
</style>
<g>
	<polygon class="st0" points="-0.25,189.41 446,189.41 446,0.5 -0.25,0.5 -0.25,0.5 	"/>
	<g>
		<path class="st1" d="M71.42,117.51v-9.21c5.24,1.65,9.88,2.47,13.91,2.47c5.57,0,8.35-1.47,8.35-4.41c0-1.1-0.41-2.02-1.22-2.76
			c-0.83-0.79-2.96-1.89-6.38-3.3c-6.14-2.52-10.14-4.67-12-6.45c-2.41-2.35-3.62-5.31-3.62-8.89c0-4.61,1.76-8.12,5.27-10.54
			c3.47-2.39,8-3.59,13.57-3.59c3.07,0,7.52,0.57,13.34,1.7v8.86c-4.33-1.73-8.35-2.59-12.06-2.59c-5.23,0-7.84,1.44-7.84,4.31
			c0,1.08,0.53,1.95,1.58,2.63c0.88,0.55,3.29,1.71,7.24,3.49c5.69,2.53,9.48,4.72,11.36,6.59c2.24,2.22,3.36,5.08,3.36,8.6
			c0,5.05-2.2,8.91-6.59,11.56c-3.56,2.15-8.17,3.23-13.84,3.23C81.1,119.21,76.28,118.64,71.42,117.51L71.42,117.51z"/>
		<polygon class="st1" points="113.66,71.64 113.66,71.64 126.68,71.64 126.68,118.27 113.66,118.27 		"/>
		<polygon class="st1" points="138.63,118.27 138.63,71.64 172.03,71.64 172.03,80.08 151.18,80.08 151.18,90.6 169.33,90.6 
			169.33,98.3 151.18,98.3 151.18,109.36 172.57,109.36 172.57,118.27 138.63,118.27 		"/>
		<polygon class="st1" points="181.07,118.27 181.07,71.64 197.95,71.64 209.69,101.43 221.71,71.64 237.75,71.64 237.75,118.27 
			225.4,118.27 225.4,85.26 211.73,118.74 203.66,118.74 190.24,85.26 190.24,118.27 181.07,118.27 		"/>
		<polygon class="st1" points="249.7,118.27 249.7,71.64 283.1,71.64 283.1,80.08 262.25,80.08 262.25,90.6 280.4,90.6 280.4,98.3 
			262.25,98.3 262.25,109.36 283.64,109.36 283.64,118.27 249.7,118.27 		"/>
		<polygon class="st1" points="292.21,118.27 292.21,71.64 307.3,71.64 323.31,102.85 323.31,71.64 332.48,71.64 332.48,118.27 
			317.82,118.27 301.38,86.64 301.38,118.27 292.21,118.27 		"/>
		<path class="st1" d="M341.73,117.51v-9.21c5.19,1.65,9.83,2.47,13.91,2.47c5.57,0,8.35-1.47,8.35-4.41c0-1.1-0.4-2.02-1.18-2.76
			c-0.83-0.79-2.97-1.89-6.41-3.3c-6.12-2.5-10.12-4.65-12-6.45c-2.41-2.33-3.62-5.3-3.62-8.92c0-4.59,1.75-8.09,5.27-10.51
			c3.47-2.39,8-3.59,13.58-3.59c3.14,0,7.2,0.5,12.19,1.5l1.15,0.2v8.86c-4.33-1.73-8.36-2.59-12.1-2.59
			c-5.21,0-7.81,1.44-7.81,4.31c0,1.08,0.52,1.95,1.58,2.63c0.83,0.53,3.26,1.69,7.28,3.49c5.65,2.53,9.43,4.72,11.33,6.59
			c2.24,2.22,3.36,5.08,3.36,8.6c0,5.05-2.18,8.91-6.55,11.56c-3.58,2.15-8.2,3.23-13.87,3.23
			C351.4,119.21,346.58,118.64,341.73,117.51L341.73,117.51z"/>
	</g>
</g>
</svg>
